<svg width="211" height="46" viewBox="0 0 211 46" fill="none" xmlns="http://www.w3.org/2000/svg">
<path d="M0.0960002 44.312V1.304H29.792V9.944H12V18.136H25.888V26.584H12V35.672H30.368V44.312H0.0960002ZM49.1875 21.4H53.7315C55.8222 21.4 57.3368 20.9093 58.2755 19.928C59.2142 18.904 59.6835 17.368 59.6835 15.32C59.6835 13.272 59.1928 11.8 58.2115 10.904C57.2728 9.96533 55.7155 9.496 53.5395 9.496H49.1875V21.4ZM37.2835 44.312V1.304H55.3315C60.8355 1.304 64.9315 2.392 67.6195 4.568C70.3075 6.744 71.6515 10.136 71.6515 14.744C71.6515 17.56 71.0542 19.8213 69.8595 21.528C68.6648 23.192 66.8942 24.536 64.5475 25.56V25.816L74.1475 44.312H61.6035L53.7955 28.632H49.3155V44.312H37.2835ZM79.221 44.312V1.304H108.917V9.944H91.125V18.136H105.013V26.584H91.125V35.672H109.493V44.312H79.221ZM115.065 45.976V36.312H125.561V45.976H115.065ZM152.759 44.952C145.591 44.952 140.13 43.288 136.375 39.96C132.62 36.5893 130.743 31.1067 130.743 23.512V22.104C130.743 18.1787 131.34 14.7867 132.535 11.928C133.73 9.02666 135.372 6.78666 137.463 5.208C139.596 3.58666 141.943 2.41333 144.503 1.688C147.106 0.962666 149.964 0.599998 153.079 0.599998C158.626 0.599998 162.935 1.38933 166.007 2.968V11.8C162.252 10.4773 158.498 9.816 154.743 9.816C150.434 9.816 147.426 10.84 145.719 12.888C144.012 14.8933 143.159 17.8587 143.159 21.784V23.704C143.159 28.0133 143.799 31.2133 145.079 33.304C146.402 35.352 148.834 36.376 152.375 36.376C154.21 36.376 155.746 36.1413 156.983 35.672V28.952H150.839V21.08H168.183V42.2C163.831 44.0347 158.69 44.952 152.759 44.952ZM195.572 44.952C188.404 44.952 182.942 43.288 179.188 39.96C175.433 36.5893 173.556 31.1067 173.556 23.512V22.104C173.556 18.1787 174.153 14.7867 175.348 11.928C176.542 9.02666 178.185 6.78666 180.276 5.208C182.409 3.58666 184.756 2.41333 187.316 1.688C189.918 0.962666 192.777 0.599998 195.892 0.599998C201.438 0.599998 205.748 1.38933 208.819 2.968V11.8C205.065 10.4773 201.31 9.816 197.556 9.816C193.246 9.816 190.238 10.84 188.532 12.888C186.825 14.8933 185.972 17.8587 185.972 21.784V23.704C185.972 28.0133 186.612 31.2133 187.892 33.304C189.214 35.352 191.646 36.376 195.188 36.376C197.022 36.376 198.558 36.1413 199.796 35.672V28.952H193.652V21.08H210.996V42.2C206.644 44.0347 201.502 44.952 195.572 44.952Z" fill="#505050"/>
</svg>
