<svg width="282" height="86" viewBox="0 0 282 86" fill="none" xmlns="http://www.w3.org/2000/svg">
<mask id="path-1-outside-1_849_61" maskUnits="userSpaceOnUse" x="0" y="0" width="282" height="86" fill="black">
<rect fill="white" width="282" height="86"/>
<path d="M21.8 30.2C22.92 32.3333 24.3333 33.9867 26.04 35.16C27.7467 36.3333 29.4533 37.4533 31.16 38.52C32.28 39.2133 33.4267 39.8533 34.6 40.44C35.8267 41.0267 37 41.64 38.12 42.28C38.6533 42.5467 39.16 42.8667 39.64 43.24C40.12 43.56 40.5733 43.9067 41 44.28C42.0133 45.1867 42.6267 46.2533 42.84 47.48C43.0533 48.7067 42.84 49.7467 42.2 50.6C41.6133 51.3467 40.7867 51.88 39.72 52.2C38.7067 52.4667 37.6667 52.36 36.6 51.88C34.8933 51.08 33.1867 50.2533 31.48 49.4C29.8267 48.4933 28.1467 47.5867 26.44 46.68C25.2133 45.9333 23.96 45.16 22.68 44.36C21.4 43.5067 19.9867 42.6267 18.44 41.72C18.0133 42.68 17.5867 43.5867 17.16 44.44C16.7333 45.2933 16.3333 46.1733 15.96 47.08C15.4267 48.3067 14.9733 49.56 14.6 50.84C14.2267 52.0667 13.7467 53.2667 13.16 54.44C12.68 55.5067 11.9333 56.2533 10.92 56.68C9.90667 57.0533 8.94667 57.08 8.04 56.76C7.13333 56.4933 6.38667 55.9067 5.8 55C5.21333 54.0933 4.97333 53.0533 5.08 51.88C5.13333 50.8133 5.34667 49.6667 5.72 48.44C7.42667 41.8267 9.50667 35.4267 11.96 29.24C14.4667 23.0533 17.2133 16.92 20.2 10.84C20.4133 10.4133 20.6533 10.04 20.92 9.72C21.1867 9.34666 21.4533 9 21.72 8.68C22.36 7.98667 23.08 7.50667 23.88 7.24C24.68 6.97333 25.5333 7.05333 26.44 7.48C27.4 7.85333 28.0933 8.41333 28.52 9.16C28.9467 9.90666 29.0533 10.7333 28.84 11.64C28.5733 12.92 28.2533 14.2 27.88 15.48C27.56 16.7067 27.1333 17.9333 26.6 19.16C25.8533 21.0267 25.0533 22.8933 24.2 24.76C23.4 26.5733 22.6 28.3867 21.8 30.2ZM66.28 54.44C66.1733 55.7733 66.12 57.1067 66.12 58.44C66.12 59.72 66.0133 61.0267 65.8 62.36C65.6933 63.4267 65.1867 64.3067 64.28 65C63.3733 65.6933 62.44 65.9867 61.48 65.88C59.56 65.6133 58.3067 64.5467 57.72 62.68C57.3467 61.4533 57.1333 60.3067 57.08 59.24C56.3333 51.4533 55.8267 43.6933 55.56 35.96C55.2933 28.1733 55.1867 20.36 55.24 12.52C55.24 11.6667 55.2933 10.7867 55.4 9.88C55.5067 8.97333 55.7467 8.14666 56.12 7.4C56.3867 6.81333 56.84 6.28 57.48 5.8C58.1733 5.32 58.8133 5.08 59.4 5.08C59.9867 5.02667 60.6267 5.24 61.32 5.72C62.0667 6.14666 62.6 6.62666 62.92 7.16C63.3467 7.90666 63.6133 8.70666 63.72 9.56C63.88 10.4133 63.9867 11.2933 64.04 12.2L65.96 54.44H66.28ZM98.4569 26.68C99.5235 27.48 100.537 28.2267 101.497 28.92C102.457 29.6133 103.39 30.3067 104.297 31C104.884 31.4267 105.47 31.8533 106.057 32.28C106.697 32.6533 107.31 33.08 107.897 33.56C108.804 34.3067 109.337 35.1867 109.497 36.2C109.71 37.2133 109.604 38.1733 109.177 39.08C108.644 40.0933 107.817 40.7867 106.697 41.16C105.577 41.48 104.35 41.4 103.017 40.92C102.324 40.6533 101.657 40.3333 101.017 39.96C100.43 39.5867 99.8169 39.24 99.1769 38.92C98.4302 38.4933 97.6569 38.0933 96.8569 37.72C96.0569 37.2933 95.1769 36.8133 94.2169 36.28C93.7902 37.4 93.3902 38.44 93.0169 39.4C92.6435 40.36 92.2435 41.32 91.8169 42.28C91.5502 42.92 91.2835 43.5867 91.0169 44.28C90.8035 44.9733 90.5102 45.64 90.1369 46.28C89.0702 47.9333 87.5502 48.6267 85.5769 48.36C84.6702 48.2533 83.7902 47.7733 82.9369 46.92C82.1369 46.0667 81.7369 45.1333 81.7369 44.12C81.7369 43.3733 81.7902 42.6533 81.8969 41.96C82.0569 41.2133 82.2702 40.52 82.5369 39.88C83.4969 37.2133 84.4835 34.6 85.4969 32.04C86.5102 29.48 87.5235 26.8933 88.5369 24.28C88.8035 23.48 89.0435 22.68 89.2569 21.88C89.4702 21.0267 89.7102 20.1733 89.9769 19.32C89.0702 18.7333 88.1369 18.3067 87.1769 18.04C86.2169 17.72 85.2569 17.48 84.2969 17.32C83.3902 17.16 82.4569 17.0533 81.4969 17C80.5369 16.9467 79.6035 16.84 78.6969 16.68C77.5235 16.52 76.3502 16.3333 75.1769 16.12C74.0569 15.8533 72.9635 15.5067 71.8969 15.08C71.0435 14.76 70.4035 14.2267 69.9769 13.48C69.5502 12.68 69.4169 11.7733 69.5769 10.76C69.7902 9.8 70.1902 9.02666 70.7769 8.44C71.4169 7.85333 72.2169 7.53333 73.1769 7.48C76.6969 7.26666 80.1902 7.32 83.6569 7.64C87.1769 7.96 90.6169 8.73333 93.9769 9.96C98.3502 11.56 100.297 14.7867 99.8169 19.64C99.7102 20.7067 99.5235 21.7733 99.2569 22.84C98.9902 23.9067 98.7235 25.1867 98.4569 26.68ZM122.457 69.4C122.777 67.32 122.91 65.6133 122.857 64.28C122.857 62.9467 122.537 61.88 121.897 61.08C121.257 60.28 120.244 59.72 118.857 59.4C117.524 59.08 115.737 58.8933 113.497 58.84C112.004 58.7867 110.51 58.7867 109.017 58.84C107.577 58.8933 106.137 58.8667 104.697 58.76C103.204 58.7067 102.004 58.3333 101.097 57.64C100.244 56.9467 99.7369 56.04 99.5769 54.92C99.4702 53.8533 99.7902 52.8667 100.537 51.96C101.284 51.0533 102.35 50.4667 103.737 50.2C106.937 49.6133 110.137 49.3467 113.337 49.4C116.537 49.4533 119.737 49.88 122.937 50.68C129.23 52.2267 132.377 56.2 132.377 62.6C132.43 64.9467 132.324 67.2667 132.057 69.56C131.844 71.9067 131.577 74.2533 131.257 76.6C131.097 77.7733 130.59 78.68 129.737 79.32C128.937 79.96 128.03 80.2533 127.017 80.2C125.95 80.1467 125.017 79.7733 124.217 79.08C123.47 78.44 123.017 77.5333 122.857 76.36C122.697 75.0267 122.59 73.7467 122.537 72.52C122.537 71.2933 122.51 70.2533 122.457 69.4ZM129.577 19.4C130.964 19.56 132.19 19.6933 133.257 19.8C134.324 19.9067 135.364 20.04 136.377 20.2C137.124 20.3067 137.844 20.4933 138.537 20.76C139.23 20.9733 139.897 21.2133 140.537 21.48C141.604 21.96 142.377 22.68 142.857 23.64C143.337 24.6 143.444 25.56 143.177 26.52C142.91 27.48 142.404 28.2 141.657 28.68C140.91 29.1067 140.084 29.3467 139.177 29.4C138.164 29.4533 137.15 29.4267 136.137 29.32C135.124 29.16 134.11 29.08 133.097 29.08C132.51 29.1333 131.924 29.24 131.337 29.4C130.804 29.5067 130.19 29.64 129.497 29.8C129.337 31.1867 129.177 32.5467 129.017 33.88C128.91 35.16 128.724 36.44 128.457 37.72C128.244 38.84 127.71 39.7467 126.857 40.44C126.057 41.1333 125.177 41.5067 124.217 41.56C123.204 41.56 122.297 41.2133 121.497 40.52C120.697 39.8267 120.164 38.92 119.897 37.8C119.79 37.5333 119.684 37.2667 119.577 37C119.524 36.68 119.524 36.3867 119.577 36.12C119.684 31.6933 119.79 27.2933 119.897 22.92C120.057 18.5467 120.244 14.1467 120.457 9.72C120.457 9.29333 120.537 8.89333 120.697 8.52C120.857 8.09333 121.07 7.69333 121.337 7.32C121.87 6.57333 122.51 5.96 123.257 5.48C124.057 5 124.91 4.94666 125.817 5.31999C126.404 5.58666 126.99 5.98667 127.577 6.52C128.164 7.05333 128.537 7.61333 128.697 8.2C128.964 9.16 129.07 10.1733 129.017 11.24C128.964 12.2533 128.99 13.2933 129.097 14.36C129.15 15.0533 129.204 15.8 129.257 16.6C129.364 17.3467 129.47 18.28 129.577 19.4ZM165.692 69.56C162.865 69.6133 160.412 69.2133 158.332 68.36C156.252 67.4533 154.599 66.2533 153.372 64.76C152.145 63.2133 151.399 61.4267 151.132 59.4C150.865 57.3733 151.132 55.24 151.932 53C152.359 51.7733 152.919 50.6 153.612 49.48C154.305 48.36 155.052 47.2667 155.852 46.2C156.652 45.24 157.585 44.44 158.652 43.8C159.719 43.1067 160.865 42.6 162.092 42.28C163.319 41.96 164.572 41.8267 165.852 41.88C167.132 41.9333 168.332 42.1733 169.452 42.6C172.225 43.6667 174.545 45.1867 176.412 47.16C178.279 49.08 179.479 51.56 180.012 54.6C180.225 55.7733 180.199 56.9467 179.932 58.12C179.719 59.2933 179.319 60.44 178.732 61.56C178.145 62.6267 177.372 63.6133 176.412 64.52C175.452 65.4267 174.385 66.2 173.212 66.84C171.825 67.5867 170.412 68.1733 168.972 68.6C167.532 68.9733 166.439 69.2933 165.692 69.56ZM165.132 61.16C165.559 60.8933 166.252 60.5733 167.212 60.2C168.172 59.8267 169.132 59.32 170.092 58.68C170.465 58.4133 170.759 57.9867 170.972 57.4C171.185 56.76 171.292 56.1733 171.292 55.64C171.292 54.4133 170.812 53.32 169.852 52.36C168.892 51.3467 167.692 50.7067 166.252 50.44C164.012 49.96 162.305 50.76 161.132 52.84C160.652 53.5333 160.252 54.3067 159.932 55.16C159.239 56.76 159.319 58.1733 160.172 59.4C161.079 60.5733 162.732 61.16 165.132 61.16ZM201.132 41.72C202.359 41.9867 203.452 42.2533 204.412 42.52C205.425 42.7333 206.439 42.92 207.452 43.08C208.359 43.1867 209.239 43.2667 210.092 43.32C210.945 43.32 211.799 43.4 212.652 43.56C213.825 43.7733 214.812 44.28 215.612 45.08C216.412 45.8267 216.785 46.6267 216.732 47.48C216.732 48.3867 216.305 49.24 215.452 50.04C214.599 50.7867 213.612 51.16 212.492 51.16C210.732 51.16 208.999 51.1067 207.292 51C205.585 50.8933 203.905 50.7867 202.252 50.68C201.719 51.32 201.345 51.9867 201.132 52.68C200.972 53.32 200.892 53.9867 200.892 54.68C200.892 55.32 200.945 55.96 201.052 56.6C201.159 57.24 201.239 57.88 201.292 58.52C201.345 59.96 201.399 61.4267 201.452 62.92C201.559 64.36 201.505 65.8 201.292 67.24C201.185 67.7733 200.839 68.3067 200.252 68.84C199.665 69.3733 199.079 69.7733 198.492 70.04C198.119 70.2 197.692 70.2267 197.212 70.12C196.785 70.0667 196.359 69.9067 195.932 69.64C195.559 69.4267 195.212 69.1333 194.892 68.76C194.625 68.3867 194.465 67.9867 194.412 67.56C194.039 65.3733 193.692 63.2133 193.372 61.08C193.052 58.9467 192.839 56.7867 192.732 54.6C192.572 50.92 192.519 47.2667 192.572 43.64C192.625 40.0133 192.652 36.36 192.652 32.68V30.92C192.972 27.6667 194.199 25.9067 196.332 25.64C197.452 25.48 198.412 25.9067 199.212 26.92C200.065 27.9333 200.545 29.32 200.652 31.08C200.812 32.7867 200.892 34.52 200.892 36.28C200.945 38.04 201.025 39.8533 201.132 41.72ZM167.772 27.48C169.479 27.3733 170.945 27.2667 172.172 27.16C173.399 27.0533 174.599 27.0533 175.772 27.16C176.785 27.2133 177.772 27.3467 178.732 27.56C179.745 27.72 180.705 28.0133 181.612 28.44C182.145 28.7067 182.572 29.2133 182.892 29.96C183.265 30.6533 183.505 31.32 183.612 31.96C183.772 32.76 183.585 33.4 183.052 33.88C182.519 34.36 181.879 34.7333 181.132 35C180.865 35.1067 180.572 35.1867 180.252 35.24C179.985 35.2933 179.719 35.3467 179.452 35.4C175.025 35.6133 170.625 35.8267 166.252 36.04C161.932 36.2 157.559 36.3333 153.132 36.44C152.439 36.4933 151.719 36.4933 150.972 36.44C150.225 36.3333 149.559 36.0933 148.972 35.72C148.385 35.4 147.879 34.92 147.452 34.28C147.025 33.64 146.759 33.0267 146.652 32.44C146.492 31.64 146.652 30.9733 147.132 30.44C147.612 29.8533 148.252 29.4533 149.052 29.24C150.599 28.8667 152.145 28.5467 153.692 28.28C155.292 27.96 156.999 27.6133 158.812 27.24C158.652 26.0667 158.492 25 158.332 24.04C158.172 23.0267 158.065 22.0133 158.012 21C157.959 20.1467 157.932 19.2933 157.932 18.44C157.985 17.5333 158.092 16.6533 158.252 15.8C158.412 14.8933 158.812 14.1467 159.452 13.56C160.145 12.92 160.945 12.5733 161.852 12.52C162.865 12.4667 163.665 12.76 164.252 13.4C164.892 14.04 165.345 14.8133 165.612 15.72C165.879 16.4133 166.012 17.1333 166.012 17.88C166.012 18.5733 166.065 19.2933 166.172 20.04C166.385 21.16 166.625 22.3067 166.892 23.48C167.159 24.6533 167.452 25.9867 167.772 27.48ZM241.175 34.76C239.895 33.5333 238.428 32.76 236.775 32.44C235.175 32.12 233.548 31.8267 231.895 31.56C230.508 31.2933 229.122 31.08 227.735 30.92C226.348 30.7067 224.962 30.4133 223.575 30.04C222.348 29.72 221.388 29.08 220.695 28.12C220.055 27.16 219.868 26.1467 220.135 25.08C220.295 24.1733 220.775 23.4 221.575 22.76C222.375 22.0667 223.308 21.72 224.375 21.72C227.895 21.8267 231.362 22.1733 234.775 22.76C238.242 23.3467 241.575 24.4133 244.775 25.96C247.335 27.1867 249.148 28.7867 250.215 30.76C251.335 32.7333 251.522 35.0267 250.775 37.64C249.708 41.5867 248.535 45.48 247.255 49.32C245.975 53.1067 244.642 56.92 243.255 60.76C242.828 62.04 242.082 62.92 241.015 63.4C239.948 63.88 238.908 63.9333 237.895 63.56C236.828 63.1867 236.002 62.4933 235.415 61.48C234.828 60.4133 234.695 59.2933 235.015 58.12C235.762 55.56 236.562 53.0267 237.415 50.52C238.322 48.0133 239.175 45.48 239.975 42.92C240.188 42.28 240.428 41.64 240.695 41C240.962 40.3067 241.175 39.64 241.335 39C241.548 38.3067 241.655 37.6133 241.655 36.92C241.655 36.2267 241.495 35.5067 241.175 34.76ZM266.535 43.32C266.535 40.76 266.508 38.2267 266.455 35.72C266.455 33.2133 266.482 30.68 266.535 28.12C266.588 27.2667 266.642 26.44 266.695 25.64C266.748 24.7867 266.908 23.96 267.175 23.16C267.388 22.52 267.762 22.0133 268.295 21.64C268.828 21.2667 269.388 21.0533 269.975 21C270.615 20.8933 271.228 20.9467 271.815 21.16C272.455 21.3733 272.962 21.7467 273.335 22.28C273.815 22.92 274.215 23.6667 274.535 24.52C274.855 25.32 275.042 26.0933 275.095 26.84C275.362 32.4933 275.575 38.12 275.735 43.72C275.895 49.2667 276.002 54.8667 276.055 60.52C276.108 62.9733 275.708 64.76 274.855 65.88C274.055 66.9467 272.962 67.4267 271.575 67.32C270.188 67.16 269.148 66.52 268.455 65.4C267.762 64.2267 267.362 62.4667 267.255 60.12C267.148 57.2933 267.068 54.4933 267.015 51.72C266.962 48.9467 266.882 46.1467 266.775 43.32H266.535Z"/>
</mask>
<path d="M21.8 30.2C22.92 32.3333 24.3333 33.9867 26.04 35.16C27.7467 36.3333 29.4533 37.4533 31.16 38.52C32.28 39.2133 33.4267 39.8533 34.6 40.44C35.8267 41.0267 37 41.64 38.12 42.28C38.6533 42.5467 39.16 42.8667 39.64 43.24C40.12 43.56 40.5733 43.9067 41 44.28C42.0133 45.1867 42.6267 46.2533 42.84 47.48C43.0533 48.7067 42.84 49.7467 42.2 50.6C41.6133 51.3467 40.7867 51.88 39.72 52.2C38.7067 52.4667 37.6667 52.36 36.6 51.88C34.8933 51.08 33.1867 50.2533 31.48 49.4C29.8267 48.4933 28.1467 47.5867 26.44 46.68C25.2133 45.9333 23.96 45.16 22.68 44.36C21.4 43.5067 19.9867 42.6267 18.44 41.72C18.0133 42.68 17.5867 43.5867 17.16 44.44C16.7333 45.2933 16.3333 46.1733 15.96 47.08C15.4267 48.3067 14.9733 49.56 14.6 50.84C14.2267 52.0667 13.7467 53.2667 13.16 54.44C12.68 55.5067 11.9333 56.2533 10.92 56.68C9.90667 57.0533 8.94667 57.08 8.04 56.76C7.13333 56.4933 6.38667 55.9067 5.8 55C5.21333 54.0933 4.97333 53.0533 5.08 51.88C5.13333 50.8133 5.34667 49.6667 5.72 48.44C7.42667 41.8267 9.50667 35.4267 11.96 29.24C14.4667 23.0533 17.2133 16.92 20.2 10.84C20.4133 10.4133 20.6533 10.04 20.92 9.72C21.1867 9.34666 21.4533 9 21.72 8.68C22.36 7.98667 23.08 7.50667 23.88 7.24C24.68 6.97333 25.5333 7.05333 26.44 7.48C27.4 7.85333 28.0933 8.41333 28.52 9.16C28.9467 9.90666 29.0533 10.7333 28.84 11.64C28.5733 12.92 28.2533 14.2 27.88 15.48C27.56 16.7067 27.1333 17.9333 26.6 19.16C25.8533 21.0267 25.0533 22.8933 24.2 24.76C23.4 26.5733 22.6 28.3867 21.8 30.2ZM66.28 54.44C66.1733 55.7733 66.12 57.1067 66.12 58.44C66.12 59.72 66.0133 61.0267 65.8 62.36C65.6933 63.4267 65.1867 64.3067 64.28 65C63.3733 65.6933 62.44 65.9867 61.48 65.88C59.56 65.6133 58.3067 64.5467 57.72 62.68C57.3467 61.4533 57.1333 60.3067 57.08 59.24C56.3333 51.4533 55.8267 43.6933 55.56 35.96C55.2933 28.1733 55.1867 20.36 55.24 12.52C55.24 11.6667 55.2933 10.7867 55.4 9.88C55.5067 8.97333 55.7467 8.14666 56.12 7.4C56.3867 6.81333 56.84 6.28 57.48 5.8C58.1733 5.32 58.8133 5.08 59.4 5.08C59.9867 5.02667 60.6267 5.24 61.32 5.72C62.0667 6.14666 62.6 6.62666 62.92 7.16C63.3467 7.90666 63.6133 8.70666 63.72 9.56C63.88 10.4133 63.9867 11.2933 64.04 12.2L65.96 54.44H66.28ZM98.4569 26.68C99.5235 27.48 100.537 28.2267 101.497 28.92C102.457 29.6133 103.39 30.3067 104.297 31C104.884 31.4267 105.47 31.8533 106.057 32.28C106.697 32.6533 107.31 33.08 107.897 33.56C108.804 34.3067 109.337 35.1867 109.497 36.2C109.71 37.2133 109.604 38.1733 109.177 39.08C108.644 40.0933 107.817 40.7867 106.697 41.16C105.577 41.48 104.35 41.4 103.017 40.92C102.324 40.6533 101.657 40.3333 101.017 39.96C100.43 39.5867 99.8169 39.24 99.1769 38.92C98.4302 38.4933 97.6569 38.0933 96.8569 37.72C96.0569 37.2933 95.1769 36.8133 94.2169 36.28C93.7902 37.4 93.3902 38.44 93.0169 39.4C92.6435 40.36 92.2435 41.32 91.8169 42.28C91.5502 42.92 91.2835 43.5867 91.0169 44.28C90.8035 44.9733 90.5102 45.64 90.1369 46.28C89.0702 47.9333 87.5502 48.6267 85.5769 48.36C84.6702 48.2533 83.7902 47.7733 82.9369 46.92C82.1369 46.0667 81.7369 45.1333 81.7369 44.12C81.7369 43.3733 81.7902 42.6533 81.8969 41.96C82.0569 41.2133 82.2702 40.52 82.5369 39.88C83.4969 37.2133 84.4835 34.6 85.4969 32.04C86.5102 29.48 87.5235 26.8933 88.5369 24.28C88.8035 23.48 89.0435 22.68 89.2569 21.88C89.4702 21.0267 89.7102 20.1733 89.9769 19.32C89.0702 18.7333 88.1369 18.3067 87.1769 18.04C86.2169 17.72 85.2569 17.48 84.2969 17.32C83.3902 17.16 82.4569 17.0533 81.4969 17C80.5369 16.9467 79.6035 16.84 78.6969 16.68C77.5235 16.52 76.3502 16.3333 75.1769 16.12C74.0569 15.8533 72.9635 15.5067 71.8969 15.08C71.0435 14.76 70.4035 14.2267 69.9769 13.48C69.5502 12.68 69.4169 11.7733 69.5769 10.76C69.7902 9.8 70.1902 9.02666 70.7769 8.44C71.4169 7.85333 72.2169 7.53333 73.1769 7.48C76.6969 7.26666 80.1902 7.32 83.6569 7.64C87.1769 7.96 90.6169 8.73333 93.9769 9.96C98.3502 11.56 100.297 14.7867 99.8169 19.64C99.7102 20.7067 99.5235 21.7733 99.2569 22.84C98.9902 23.9067 98.7235 25.1867 98.4569 26.68ZM122.457 69.4C122.777 67.32 122.91 65.6133 122.857 64.28C122.857 62.9467 122.537 61.88 121.897 61.08C121.257 60.28 120.244 59.72 118.857 59.4C117.524 59.08 115.737 58.8933 113.497 58.84C112.004 58.7867 110.51 58.7867 109.017 58.84C107.577 58.8933 106.137 58.8667 104.697 58.76C103.204 58.7067 102.004 58.3333 101.097 57.64C100.244 56.9467 99.7369 56.04 99.5769 54.92C99.4702 53.8533 99.7902 52.8667 100.537 51.96C101.284 51.0533 102.35 50.4667 103.737 50.2C106.937 49.6133 110.137 49.3467 113.337 49.4C116.537 49.4533 119.737 49.88 122.937 50.68C129.23 52.2267 132.377 56.2 132.377 62.6C132.43 64.9467 132.324 67.2667 132.057 69.56C131.844 71.9067 131.577 74.2533 131.257 76.6C131.097 77.7733 130.59 78.68 129.737 79.32C128.937 79.96 128.03 80.2533 127.017 80.2C125.95 80.1467 125.017 79.7733 124.217 79.08C123.47 78.44 123.017 77.5333 122.857 76.36C122.697 75.0267 122.59 73.7467 122.537 72.52C122.537 71.2933 122.51 70.2533 122.457 69.4ZM129.577 19.4C130.964 19.56 132.19 19.6933 133.257 19.8C134.324 19.9067 135.364 20.04 136.377 20.2C137.124 20.3067 137.844 20.4933 138.537 20.76C139.23 20.9733 139.897 21.2133 140.537 21.48C141.604 21.96 142.377 22.68 142.857 23.64C143.337 24.6 143.444 25.56 143.177 26.52C142.91 27.48 142.404 28.2 141.657 28.68C140.91 29.1067 140.084 29.3467 139.177 29.4C138.164 29.4533 137.15 29.4267 136.137 29.32C135.124 29.16 134.11 29.08 133.097 29.08C132.51 29.1333 131.924 29.24 131.337 29.4C130.804 29.5067 130.19 29.64 129.497 29.8C129.337 31.1867 129.177 32.5467 129.017 33.88C128.91 35.16 128.724 36.44 128.457 37.72C128.244 38.84 127.71 39.7467 126.857 40.44C126.057 41.1333 125.177 41.5067 124.217 41.56C123.204 41.56 122.297 41.2133 121.497 40.52C120.697 39.8267 120.164 38.92 119.897 37.8C119.79 37.5333 119.684 37.2667 119.577 37C119.524 36.68 119.524 36.3867 119.577 36.12C119.684 31.6933 119.79 27.2933 119.897 22.92C120.057 18.5467 120.244 14.1467 120.457 9.72C120.457 9.29333 120.537 8.89333 120.697 8.52C120.857 8.09333 121.07 7.69333 121.337 7.32C121.87 6.57333 122.51 5.96 123.257 5.48C124.057 5 124.91 4.94666 125.817 5.31999C126.404 5.58666 126.99 5.98667 127.577 6.52C128.164 7.05333 128.537 7.61333 128.697 8.2C128.964 9.16 129.07 10.1733 129.017 11.24C128.964 12.2533 128.99 13.2933 129.097 14.36C129.15 15.0533 129.204 15.8 129.257 16.6C129.364 17.3467 129.47 18.28 129.577 19.4ZM165.692 69.56C162.865 69.6133 160.412 69.2133 158.332 68.36C156.252 67.4533 154.599 66.2533 153.372 64.76C152.145 63.2133 151.399 61.4267 151.132 59.4C150.865 57.3733 151.132 55.24 151.932 53C152.359 51.7733 152.919 50.6 153.612 49.48C154.305 48.36 155.052 47.2667 155.852 46.2C156.652 45.24 157.585 44.44 158.652 43.8C159.719 43.1067 160.865 42.6 162.092 42.28C163.319 41.96 164.572 41.8267 165.852 41.88C167.132 41.9333 168.332 42.1733 169.452 42.6C172.225 43.6667 174.545 45.1867 176.412 47.16C178.279 49.08 179.479 51.56 180.012 54.6C180.225 55.7733 180.199 56.9467 179.932 58.12C179.719 59.2933 179.319 60.44 178.732 61.56C178.145 62.6267 177.372 63.6133 176.412 64.52C175.452 65.4267 174.385 66.2 173.212 66.84C171.825 67.5867 170.412 68.1733 168.972 68.6C167.532 68.9733 166.439 69.2933 165.692 69.56ZM165.132 61.16C165.559 60.8933 166.252 60.5733 167.212 60.2C168.172 59.8267 169.132 59.32 170.092 58.68C170.465 58.4133 170.759 57.9867 170.972 57.4C171.185 56.76 171.292 56.1733 171.292 55.64C171.292 54.4133 170.812 53.32 169.852 52.36C168.892 51.3467 167.692 50.7067 166.252 50.44C164.012 49.96 162.305 50.76 161.132 52.84C160.652 53.5333 160.252 54.3067 159.932 55.16C159.239 56.76 159.319 58.1733 160.172 59.4C161.079 60.5733 162.732 61.16 165.132 61.16ZM201.132 41.72C202.359 41.9867 203.452 42.2533 204.412 42.52C205.425 42.7333 206.439 42.92 207.452 43.08C208.359 43.1867 209.239 43.2667 210.092 43.32C210.945 43.32 211.799 43.4 212.652 43.56C213.825 43.7733 214.812 44.28 215.612 45.08C216.412 45.8267 216.785 46.6267 216.732 47.48C216.732 48.3867 216.305 49.24 215.452 50.04C214.599 50.7867 213.612 51.16 212.492 51.16C210.732 51.16 208.999 51.1067 207.292 51C205.585 50.8933 203.905 50.7867 202.252 50.68C201.719 51.32 201.345 51.9867 201.132 52.68C200.972 53.32 200.892 53.9867 200.892 54.68C200.892 55.32 200.945 55.96 201.052 56.6C201.159 57.24 201.239 57.88 201.292 58.52C201.345 59.96 201.399 61.4267 201.452 62.92C201.559 64.36 201.505 65.8 201.292 67.24C201.185 67.7733 200.839 68.3067 200.252 68.84C199.665 69.3733 199.079 69.7733 198.492 70.04C198.119 70.2 197.692 70.2267 197.212 70.12C196.785 70.0667 196.359 69.9067 195.932 69.64C195.559 69.4267 195.212 69.1333 194.892 68.76C194.625 68.3867 194.465 67.9867 194.412 67.56C194.039 65.3733 193.692 63.2133 193.372 61.08C193.052 58.9467 192.839 56.7867 192.732 54.6C192.572 50.92 192.519 47.2667 192.572 43.64C192.625 40.0133 192.652 36.36 192.652 32.68V30.92C192.972 27.6667 194.199 25.9067 196.332 25.64C197.452 25.48 198.412 25.9067 199.212 26.92C200.065 27.9333 200.545 29.32 200.652 31.08C200.812 32.7867 200.892 34.52 200.892 36.28C200.945 38.04 201.025 39.8533 201.132 41.72ZM167.772 27.48C169.479 27.3733 170.945 27.2667 172.172 27.16C173.399 27.0533 174.599 27.0533 175.772 27.16C176.785 27.2133 177.772 27.3467 178.732 27.56C179.745 27.72 180.705 28.0133 181.612 28.44C182.145 28.7067 182.572 29.2133 182.892 29.96C183.265 30.6533 183.505 31.32 183.612 31.96C183.772 32.76 183.585 33.4 183.052 33.88C182.519 34.36 181.879 34.7333 181.132 35C180.865 35.1067 180.572 35.1867 180.252 35.24C179.985 35.2933 179.719 35.3467 179.452 35.4C175.025 35.6133 170.625 35.8267 166.252 36.04C161.932 36.2 157.559 36.3333 153.132 36.44C152.439 36.4933 151.719 36.4933 150.972 36.44C150.225 36.3333 149.559 36.0933 148.972 35.72C148.385 35.4 147.879 34.92 147.452 34.28C147.025 33.64 146.759 33.0267 146.652 32.44C146.492 31.64 146.652 30.9733 147.132 30.44C147.612 29.8533 148.252 29.4533 149.052 29.24C150.599 28.8667 152.145 28.5467 153.692 28.28C155.292 27.96 156.999 27.6133 158.812 27.24C158.652 26.0667 158.492 25 158.332 24.04C158.172 23.0267 158.065 22.0133 158.012 21C157.959 20.1467 157.932 19.2933 157.932 18.44C157.985 17.5333 158.092 16.6533 158.252 15.8C158.412 14.8933 158.812 14.1467 159.452 13.56C160.145 12.92 160.945 12.5733 161.852 12.52C162.865 12.4667 163.665 12.76 164.252 13.4C164.892 14.04 165.345 14.8133 165.612 15.72C165.879 16.4133 166.012 17.1333 166.012 17.88C166.012 18.5733 166.065 19.2933 166.172 20.04C166.385 21.16 166.625 22.3067 166.892 23.48C167.159 24.6533 167.452 25.9867 167.772 27.48ZM241.175 34.76C239.895 33.5333 238.428 32.76 236.775 32.44C235.175 32.12 233.548 31.8267 231.895 31.56C230.508 31.2933 229.122 31.08 227.735 30.92C226.348 30.7067 224.962 30.4133 223.575 30.04C222.348 29.72 221.388 29.08 220.695 28.12C220.055 27.16 219.868 26.1467 220.135 25.08C220.295 24.1733 220.775 23.4 221.575 22.76C222.375 22.0667 223.308 21.72 224.375 21.72C227.895 21.8267 231.362 22.1733 234.775 22.76C238.242 23.3467 241.575 24.4133 244.775 25.96C247.335 27.1867 249.148 28.7867 250.215 30.76C251.335 32.7333 251.522 35.0267 250.775 37.64C249.708 41.5867 248.535 45.48 247.255 49.32C245.975 53.1067 244.642 56.92 243.255 60.76C242.828 62.04 242.082 62.92 241.015 63.4C239.948 63.88 238.908 63.9333 237.895 63.56C236.828 63.1867 236.002 62.4933 235.415 61.48C234.828 60.4133 234.695 59.2933 235.015 58.12C235.762 55.56 236.562 53.0267 237.415 50.52C238.322 48.0133 239.175 45.48 239.975 42.92C240.188 42.28 240.428 41.64 240.695 41C240.962 40.3067 241.175 39.64 241.335 39C241.548 38.3067 241.655 37.6133 241.655 36.92C241.655 36.2267 241.495 35.5067 241.175 34.76ZM266.535 43.32C266.535 40.76 266.508 38.2267 266.455 35.72C266.455 33.2133 266.482 30.68 266.535 28.12C266.588 27.2667 266.642 26.44 266.695 25.64C266.748 24.7867 266.908 23.96 267.175 23.16C267.388 22.52 267.762 22.0133 268.295 21.64C268.828 21.2667 269.388 21.0533 269.975 21C270.615 20.8933 271.228 20.9467 271.815 21.16C272.455 21.3733 272.962 21.7467 273.335 22.28C273.815 22.92 274.215 23.6667 274.535 24.52C274.855 25.32 275.042 26.0933 275.095 26.84C275.362 32.4933 275.575 38.12 275.735 43.72C275.895 49.2667 276.002 54.8667 276.055 60.52C276.108 62.9733 275.708 64.76 274.855 65.88C274.055 66.9467 272.962 67.4267 271.575 67.32C270.188 67.16 269.148 66.52 268.455 65.4C267.762 64.2267 267.362 62.4667 267.255 60.12C267.148 57.2933 267.068 54.4933 267.015 51.72C266.962 48.9467 266.882 46.1467 266.775 43.32H266.535Z" fill="#E5E091"/>
<path d="M21.8 30.2L17.2254 28.1818L16.2518 30.3886L17.373 32.5242L21.8 30.2ZM26.04 35.16L23.2074 39.2802L23.2074 39.2802L26.04 35.16ZM31.16 38.52L28.51 42.76L28.5191 42.7657L28.5282 42.7713L31.16 38.52ZM34.6 40.44L32.3639 44.9121L32.4032 44.9317L32.4427 44.9507L34.6 40.44ZM38.12 42.28L35.6393 46.6212L35.7598 46.6901L35.8839 46.7521L38.12 42.28ZM39.64 43.24L36.5703 47.1868L36.7145 47.2989L36.8665 47.4002L39.64 43.24ZM41 44.28L44.334 40.5538L44.3133 40.5353L44.2925 40.5171L41 44.28ZM42.84 47.48L37.9139 48.3367L37.9139 48.3367L42.84 47.48ZM42.2 50.6L46.1316 53.6891L46.1663 53.6449L46.2 53.6L42.2 50.6ZM39.72 52.2L40.9925 57.0354L41.075 57.0137L41.1567 56.9891L39.72 52.2ZM36.6 51.88L34.4778 56.4073L34.5129 56.4237L34.5482 56.4396L36.6 51.88ZM31.48 49.4L29.0758 53.7841L29.159 53.8297L29.2439 53.8721L31.48 49.4ZM26.44 46.68L23.8403 50.951L23.9651 51.027L24.0942 51.0956L26.44 46.68ZM22.68 44.36L19.9065 48.5203L19.9677 48.561L20.03 48.6L22.68 44.36ZM18.44 41.72L20.9686 37.4065L16.1428 34.5776L13.8709 39.6893L18.44 41.72ZM15.96 47.08L20.5454 49.0736L20.5648 49.0289L20.5834 48.9837L15.96 47.08ZM14.6 50.84L19.3834 52.2958L19.3918 52.268L19.4 52.24L14.6 50.84ZM13.16 54.44L8.68786 52.2039L8.64225 52.2952L8.60039 52.3882L13.16 54.44ZM10.92 56.68L12.6485 61.3717L12.7554 61.3324L12.8603 61.2882L10.92 56.68ZM8.04 56.76L9.7041 52.045L9.57856 52.0007L9.45083 51.9632L8.04 56.76ZM5.8 55L9.99785 52.2837L9.99785 52.2837L5.8 55ZM5.08 51.88L10.0595 52.3327L10.0687 52.2313L10.0738 52.1297L5.08 51.88ZM5.72 48.44L10.5034 49.8958L10.5346 49.7932L10.5614 49.6894L5.72 48.44ZM11.96 29.24L7.32593 27.3624L7.31896 27.3796L7.31211 27.3969L11.96 29.24ZM20.2 10.84L15.7279 8.60391L15.72 8.61967L15.7122 8.63548L20.2 10.84ZM20.92 9.72L24.7611 12.9209L24.8804 12.7778L24.9887 12.6262L20.92 9.72ZM21.72 8.68L18.046 5.2886L17.96 5.38172L17.8789 5.47907L21.72 8.68ZM23.88 7.24L22.2989 2.49658L22.2989 2.49658L23.88 7.24ZM26.44 7.48L24.311 12.0041L24.4671 12.0775L24.6278 12.14L26.44 7.48ZM28.52 9.16L24.1788 11.6407L24.1788 11.6407L28.52 9.16ZM28.84 11.64L23.9729 10.4948L23.9582 10.5573L23.9451 10.6202L28.84 11.64ZM27.88 15.48L23.08 14.08L23.06 14.1487L23.0419 14.2179L27.88 15.48ZM26.6 19.16L22.0147 17.1664L21.9851 17.2343L21.9576 17.303L26.6 19.16ZM24.2 24.76L19.6526 22.6812L19.6388 22.7114L19.6254 22.7418L24.2 24.76ZM66.28 54.44L71.2641 54.8387L71.696 49.44H66.28V54.44ZM65.8 62.36L60.8628 61.5701L60.8395 61.7157L60.8248 61.8625L65.8 62.36ZM64.28 65L61.2428 61.0282L61.2427 61.0282L64.28 65ZM61.48 65.88L60.7922 70.8325L60.8599 70.8419L60.9278 70.8494L61.48 65.88ZM57.72 62.68L52.9366 64.1358L52.9432 64.1575L52.95 64.1791L57.72 62.68ZM57.08 59.24L62.0738 58.9903L62.0681 58.8763L62.0572 58.7627L57.08 59.24ZM55.56 35.96L50.5629 36.1311L50.563 36.1323L55.56 35.96ZM55.24 12.52L60.2399 12.554L60.24 12.537V12.52H55.24ZM55.4 9.88L50.4342 9.29578L50.4342 9.2958L55.4 9.88ZM56.12 7.4L60.5921 9.63606L60.6335 9.55327L60.6718 9.46901L56.12 7.4ZM57.48 5.8L54.634 1.68904L54.5559 1.74306L54.48 1.8L57.48 5.8ZM59.4 5.08V10.08H59.6268L59.8527 10.0595L59.4 5.08ZM61.32 5.72L58.4739 9.83095L58.6517 9.95398L58.8393 10.0612L61.32 5.72ZM62.92 7.16L67.2612 4.6793L67.2348 4.63311L67.2075 4.5875L62.92 7.16ZM63.72 9.56L58.7586 10.1802L58.7775 10.3315L58.8056 10.4814L63.72 9.56ZM64.04 12.2L69.0348 11.973L69.0333 11.9397L69.0314 11.9064L64.04 12.2ZM65.96 54.44L60.9652 54.667L61.1821 59.44H65.96V54.44ZM17.373 32.5242C18.8088 35.2589 20.7295 37.5767 23.2074 39.2802L28.8726 31.0398C27.9372 30.3967 27.0312 29.4077 26.227 27.8758L17.373 32.5242ZM23.2074 39.2802C24.9723 40.4936 26.7398 41.6536 28.51 42.76L33.81 34.28C32.1668 33.253 30.521 32.1731 28.8726 31.0398L23.2074 39.2802ZM28.5282 42.7713C29.7762 43.5439 31.0549 44.2576 32.3639 44.9121L36.8361 35.9679C35.7985 35.4491 34.7838 34.8828 33.7918 34.2687L28.5282 42.7713ZM32.4427 44.9507C33.5654 45.4876 34.6305 46.0448 35.6393 46.6212L40.6007 37.9388C39.3695 37.2352 38.0879 36.5657 36.7573 35.9293L32.4427 44.9507ZM35.8839 46.7521C36.117 46.8687 36.345 47.0116 36.5703 47.1868L42.7097 39.2932C41.975 38.7218 41.1897 38.2247 40.3561 37.8079L35.8839 46.7521ZM36.8665 47.4002C37.1682 47.6014 37.4478 47.8157 37.7075 48.0429L44.2925 40.5171C43.6989 39.9977 43.0718 39.5186 42.4135 39.0797L36.8665 47.4002ZM37.666 48.0062C37.817 48.1413 37.8708 48.2268 37.8855 48.2524C37.8974 48.2731 37.9062 48.292 37.9139 48.3367L47.7661 46.6233C47.3419 44.1843 46.1035 42.1371 44.334 40.5538L37.666 48.0062ZM37.9139 48.3367C37.9316 48.438 37.9031 48.3647 37.942 48.1753C37.9844 47.9685 38.0792 47.7611 38.2 47.6L46.2 53.6C47.8068 51.4576 48.1725 48.9606 47.7661 46.6233L37.9139 48.3367ZM38.2684 47.5109C38.2965 47.4752 38.3274 47.4423 38.3586 47.414C38.3897 47.3858 38.4149 47.3678 38.4294 47.3585C38.459 47.3394 38.4248 47.3684 38.2833 47.4109L41.1567 56.9891C43.035 56.4256 44.8039 55.3789 46.1316 53.6891L38.2684 47.5109ZM38.4475 47.3646C38.4787 47.3564 38.5195 47.3488 38.5666 47.3451C38.6137 47.3414 38.6561 47.3426 38.6901 47.3461C38.7621 47.3535 38.7542 47.3665 38.6518 47.3204L34.5482 56.4396C36.5299 57.3314 38.7428 57.6274 40.9925 57.0354L38.4475 47.3646ZM38.7222 47.3527C37.0542 46.5708 35.3855 45.7626 33.7161 44.9279L29.2439 53.8721C30.9879 54.7441 32.7325 55.5892 34.4778 56.4073L38.7222 47.3527ZM33.8842 45.0159C32.211 44.0984 30.5115 43.1812 28.7858 42.2644L24.0942 51.0956C25.7818 51.9921 27.4424 52.8883 29.0758 53.7841L33.8842 45.0159ZM29.0397 42.409C27.8307 41.6731 26.5941 40.9101 25.33 40.12L20.03 48.6C21.3259 49.4099 22.596 50.1936 23.8403 50.951L29.0397 42.409ZM25.4535 40.1997C24.0816 39.2851 22.5852 38.3542 20.9686 37.4065L15.9114 46.0335C17.3882 46.8992 18.7184 47.7282 19.9065 48.5203L25.4535 40.1997ZM13.8709 39.6893C13.472 40.5869 13.0775 41.4247 12.6879 42.2039L21.6321 46.6761C22.0958 45.7487 22.5547 44.7731 23.0091 43.7507L13.8709 39.6893ZM12.6879 42.2039C12.2053 43.1691 11.755 44.1601 11.3366 45.1762L20.5834 48.9837C20.9116 48.1866 21.2614 47.4175 21.6321 46.6761L12.6879 42.2039ZM11.3747 45.0864C10.7576 46.5056 10.2325 47.9572 9.8 49.44L19.4 52.24C19.7142 51.1628 20.0957 50.1078 20.5454 49.0736L11.3747 45.0864ZM9.81663 49.3842C9.52683 50.3364 9.15198 51.2757 8.68786 52.2039L17.6321 56.6761C18.3414 55.2576 18.9265 53.797 19.3834 52.2958L9.81663 49.3842ZM8.60039 52.3882C8.58232 52.4283 8.60562 52.3633 8.70447 52.2645C8.80732 52.1616 8.91529 52.0989 8.97972 52.0718L12.8603 61.2882C15.1175 60.3378 16.7573 58.6303 17.7196 56.4918L8.60039 52.3882ZM9.19147 51.9883C9.13182 52.0103 9.17513 51.9854 9.30116 51.9819C9.43515 51.9782 9.5796 52.0011 9.7041 52.045L6.3759 61.4749C8.51734 62.2308 10.6847 62.0952 12.6485 61.3717L9.19147 51.9883ZM9.45083 51.9632C9.60977 52.0099 9.76549 52.0913 9.88911 52.1884C10.005 52.2795 10.0318 52.3363 9.99785 52.2837L1.60215 57.7163C2.74034 59.4753 4.4116 60.9046 6.62917 61.5568L9.45083 51.9632ZM9.99785 52.2837C10.0043 52.2938 10.0156 52.3133 10.0272 52.3406C10.0389 52.3681 10.047 52.3943 10.052 52.4157C10.0568 52.4367 10.0566 52.4443 10.056 52.4343C10.0553 52.4238 10.0542 52.3911 10.0595 52.3327L0.100534 51.4273C-0.097604 53.6068 0.351494 55.7834 1.60215 57.7163L9.99785 52.2837ZM10.0738 52.1297C10.103 51.5442 10.2263 50.8061 10.5034 49.8958L0.936631 46.9842C0.467015 48.5272 0.163628 50.0825 0.0862385 51.6303L10.0738 52.1297ZM10.5614 49.6894C12.2174 43.2725 14.2333 37.0711 16.6079 31.0831L7.31211 27.3969C4.77999 33.7822 2.63598 40.3808 0.878614 47.1906L10.5614 49.6894ZM16.5941 31.1176C19.0552 25.0432 21.753 19.0189 24.6878 13.0445L15.7122 8.63548C12.6737 14.8211 9.8781 21.0634 7.32593 27.3624L16.5941 31.1176ZM24.6721 13.0761C24.7374 12.9455 24.7739 12.9056 24.7611 12.9209L17.0789 6.51909C16.5328 7.17442 16.0893 7.88113 15.7279 8.60391L24.6721 13.0761ZM24.9887 12.6262C25.1903 12.3439 25.3814 12.0965 25.5611 11.8809L17.8789 5.47907C17.5252 5.90345 17.183 6.34943 16.8513 6.8138L24.9887 12.6262ZM25.394 12.0714C25.4694 11.9898 25.5113 11.9617 25.5135 11.9603C25.5152 11.9591 25.5104 11.9624 25.4995 11.9678C25.4885 11.9732 25.4753 11.9787 25.4611 11.9834L22.2989 2.49658C20.6067 3.06064 19.189 4.05029 18.046 5.2886L25.394 12.0714ZM25.4611 11.9834C25.1912 12.0734 24.9065 12.1019 24.6533 12.0782C24.4155 12.0559 24.2946 11.9963 24.311 12.0041L28.569 2.9559C26.733 2.09192 24.5422 1.74879 22.2989 2.49658L25.4611 11.9834ZM24.6278 12.14C24.7008 12.1684 24.6493 12.1593 24.5383 12.0697C24.4189 11.9732 24.2854 11.8272 24.1788 11.6407L32.8612 6.67931C31.7594 4.75112 30.0606 3.52324 28.2522 2.81997L24.6278 12.14ZM24.1788 11.6407C24.0784 11.4651 23.9941 11.2353 23.9611 10.9799C23.9291 10.7316 23.9581 10.5578 23.9729 10.4948L33.7071 12.7852C34.1839 10.7586 33.9703 8.62027 32.8612 6.6793L24.1788 11.6407ZM23.9451 10.6202C23.7056 11.7698 23.4175 12.923 23.08 14.08L32.68 16.88C33.0892 15.477 33.4411 14.0702 33.7349 12.6598L23.9451 10.6202ZM23.0419 14.2179C22.7906 15.1813 22.4506 16.1637 22.0147 17.1664L31.1854 21.1536C31.8161 19.703 32.3294 18.2321 32.7181 16.7421L23.0419 14.2179ZM21.9576 17.303C21.2414 19.0935 20.4732 20.8862 19.6526 22.6812L28.7474 26.8388C29.6335 24.9005 30.4652 22.9599 31.2424 21.0169L21.9576 17.303ZM19.6254 22.7418C18.8254 24.5551 18.0254 26.3685 17.2254 28.1818L26.3746 32.2182C27.1746 30.4049 27.9746 28.5915 28.7746 26.7782L19.6254 22.7418ZM61.2959 54.0413C61.1787 55.5068 61.12 56.9732 61.12 58.44H71.12C71.12 57.2402 71.168 56.0398 71.2641 54.8387L61.2959 54.0413ZM61.12 58.44C61.12 59.4414 61.0366 60.4837 60.8628 61.5701L70.7372 63.1499C70.9901 61.5696 71.12 59.9986 71.12 58.44H61.12ZM60.8248 61.8625C60.8379 61.7321 60.8879 61.5319 61.0069 61.3252C61.1221 61.1251 61.2357 61.0336 61.2428 61.0282L67.3172 68.9718C69.2429 67.4992 70.5212 65.3972 70.7752 62.8575L60.8248 61.8625ZM61.2427 61.0282C61.1762 61.0791 61.2283 61.0243 61.4009 60.97C61.5879 60.9112 61.8129 60.8862 62.0322 60.9106L60.9278 70.8494C63.3968 71.1237 65.5859 70.2958 67.3173 68.9718L61.2427 61.0282ZM62.1678 60.9275C62.0641 60.9131 62.0521 60.8995 62.1018 60.9204C62.1566 60.9434 62.2455 60.9914 62.3406 61.0723C62.4355 61.1531 62.4938 61.2302 62.5207 61.2731C62.5446 61.3113 62.525 61.2923 62.49 61.1809L52.95 64.1791C53.4717 65.839 54.3901 67.4372 55.8594 68.6877C57.3314 69.9404 59.0599 70.5919 60.7922 70.8325L62.1678 60.9275ZM62.5034 61.2242C62.2263 60.3139 62.103 59.5758 62.0738 58.9903L52.0862 59.4897C52.1636 61.0375 52.467 62.5928 52.9366 64.1358L62.5034 61.2242ZM62.0572 58.7627C61.3201 51.0764 60.8202 43.4181 60.557 35.7877L50.563 36.1323C50.8332 43.9686 51.3465 51.8303 52.1028 59.7173L62.0572 58.7627ZM60.5571 35.7889C60.2928 28.071 60.187 20.326 60.2399 12.554L50.2401 12.486C50.1863 20.394 50.2939 28.2757 50.5629 36.1311L60.5571 35.7889ZM60.24 12.52C60.24 11.8749 60.2803 11.1903 60.3658 10.4642L50.4342 9.2958C50.3063 10.383 50.24 11.4584 50.24 12.52H60.24ZM60.3658 10.4642C60.4111 10.0788 60.5009 9.81854 60.5921 9.63606L51.6479 5.16394C50.9924 6.47478 50.6022 7.86783 50.4342 9.29578L60.3658 10.4642ZM60.6718 9.46901C60.5172 9.80916 60.3514 9.89648 60.48 9.8L54.48 1.8C53.3286 2.66351 52.2561 3.8175 51.5682 5.33098L60.6718 9.46901ZM60.3261 9.91096C60.4095 9.85316 60.3786 9.88804 60.2356 9.94164C60.0853 9.99802 59.7963 10.08 59.4 10.08V0.079998C57.4405 0.079998 55.8133 0.872598 54.634 1.68904L60.3261 9.91096ZM59.8527 10.0595C58.8583 10.1499 58.3365 9.73577 58.4739 9.83095L64.1661 1.60904C62.9169 0.744228 61.115 -0.09653 58.9473 0.100531L59.8527 10.0595ZM58.8393 10.0612C58.9621 10.1314 58.9796 10.1564 58.9352 10.1165C58.888 10.074 58.7639 9.95147 58.6325 9.73249L67.2075 4.5875C66.3099 3.09166 65.0202 2.07563 63.8007 1.37878L58.8393 10.0612ZM58.5788 9.64069C58.6779 9.8142 58.7338 9.98186 58.7586 10.1802L68.6814 8.93983C68.4929 7.43146 68.0154 5.99912 67.2612 4.6793L58.5788 9.64069ZM58.8056 10.4814C58.925 11.1181 59.0071 11.788 59.0486 12.4936L69.0314 11.9064C68.9662 10.7987 68.835 9.7086 68.6344 8.63855L58.8056 10.4814ZM59.0452 12.427L60.9652 54.667L70.9548 54.213L69.0348 11.973L59.0452 12.427ZM65.96 59.44H66.28V49.44H65.96V59.44ZM98.4569 26.68L93.5347 25.801L92.9934 28.8324L95.4569 30.68L98.4569 26.68ZM101.497 28.92L104.424 24.8666L104.424 24.8666L101.497 28.92ZM104.297 31L101.26 34.9718L101.307 35.0083L101.356 35.0437L104.297 31ZM106.057 32.28L103.116 36.3237L103.32 36.4719L103.538 36.5989L106.057 32.28ZM107.897 33.56L111.075 29.7003L111.069 29.6953L111.063 29.6902L107.897 33.56ZM109.497 36.2L104.558 36.9798L104.578 37.1055L104.604 37.2301L109.497 36.2ZM109.177 39.08L113.601 41.4087L113.653 41.31L113.701 41.209L109.177 39.08ZM106.697 41.16L108.07 45.9676L108.175 45.9378L108.278 45.9034L106.697 41.16ZM103.017 40.92L101.222 45.5867L101.272 45.6061L101.323 45.6244L103.017 40.92ZM101.017 39.96L98.3325 44.1783L98.414 44.2302L98.4975 44.2789L101.017 39.96ZM99.1769 38.92L96.6962 43.2612L96.8167 43.3301L96.9408 43.3921L99.1769 38.92ZM96.8569 37.72L94.5039 42.1318L94.6216 42.1945L94.7424 42.2509L96.8569 37.72ZM94.2169 36.28L96.6451 31.9092L91.5993 29.106L89.5444 34.5L94.2169 36.28ZM93.0169 39.4L97.6769 41.2122L97.6769 41.2122L93.0169 39.4ZM91.8169 42.28L87.2478 40.2493L87.224 40.3028L87.2015 40.3569L91.8169 42.28ZM91.0169 44.28L86.3501 42.4851L86.2885 42.6454L86.238 42.8096L91.0169 44.28ZM90.1369 46.28L94.3384 48.9906L94.3992 48.8963L94.4558 48.7994L90.1369 46.28ZM85.5769 48.36L86.2465 43.405L86.2038 43.3993L86.1611 43.3942L85.5769 48.36ZM82.9369 46.92L79.2892 50.3397L79.3443 50.3985L79.4013 50.4555L82.9369 46.92ZM81.8969 41.96L77.0079 40.9124L76.9772 41.0553L76.955 41.1997L81.8969 41.96ZM82.5369 39.88L87.1523 41.8031L87.1996 41.6894L87.2413 41.5736L82.5369 39.88ZM85.4969 32.04L80.8478 30.1998L80.8478 30.1998L85.4969 32.04ZM88.5369 24.28L93.1987 26.0876L93.2422 25.9754L93.2803 25.8611L88.5369 24.28ZM89.2569 21.88L94.088 23.1683L94.0981 23.1306L94.1076 23.0927L89.2569 21.88ZM89.9769 19.32L94.7493 20.8114L95.8823 17.1857L92.6931 15.1221L89.9769 19.32ZM87.1769 18.04L85.5957 22.7834L85.7163 22.8236L85.8387 22.8576L87.1769 18.04ZM84.2969 17.32L83.4279 22.2439L83.4514 22.2481L83.4749 22.252L84.2969 17.32ZM81.4969 17L81.2195 21.9923L81.2195 21.9923L81.4969 17ZM78.6969 16.68L79.5658 11.7561L79.4694 11.7391L79.3724 11.7258L78.6969 16.68ZM75.1769 16.12L74.0188 20.984L74.1499 21.0152L74.2824 21.0393L75.1769 16.12ZM71.8969 15.08L73.7538 10.4376L73.7034 10.4174L73.6525 10.3984L71.8969 15.08ZM69.9769 13.48L65.5651 15.8329L65.5994 15.8973L65.6357 15.9607L69.9769 13.48ZM69.5769 10.76L64.6959 9.67534L64.6623 9.82687L64.6381 9.98018L69.5769 10.76ZM70.7769 8.44L67.3983 4.75422L67.3182 4.82764L67.2413 4.90446L70.7769 8.44ZM73.1769 7.48L73.4542 12.4723L73.4668 12.4716L73.4793 12.4708L73.1769 7.48ZM83.6569 7.64L83.1973 12.6188L83.2042 12.6195L83.6569 7.64ZM93.9769 9.96L95.6948 5.26438L95.6916 5.26321L93.9769 9.96ZM99.8169 19.64L104.792 20.1375L104.793 20.1321L99.8169 19.64ZM122.457 69.4L117.515 68.6397L117.433 69.1732L117.467 69.7119L122.457 69.4ZM122.857 64.28H117.857V64.38L117.861 64.4798L122.857 64.28ZM121.897 61.08L125.801 57.9565L125.801 57.9565L121.897 61.08ZM118.857 59.4L117.69 64.2619L117.711 64.267L117.733 64.272L118.857 59.4ZM113.497 58.84L113.318 63.8368L113.348 63.8379L113.378 63.8386L113.497 58.84ZM109.017 58.84L108.838 53.8432L108.832 53.8434L109.017 58.84ZM104.697 58.76L105.066 53.7737L104.971 53.7666L104.875 53.7632L104.697 58.76ZM101.097 57.64L97.9439 61.5206L98.0011 61.567L98.0596 61.6118L101.097 57.64ZM99.5769 54.92L94.6017 55.4175L94.6122 55.5226L94.6271 55.6271L99.5769 54.92ZM100.537 51.96L96.6772 48.7815L96.6772 48.7815L100.537 51.96ZM103.737 50.2L102.835 45.282L102.814 45.2859L102.793 45.29L103.737 50.2ZM113.337 49.4L113.254 54.3993L113.254 54.3993L113.337 49.4ZM122.937 50.68L121.724 55.5307L121.734 55.5331L121.744 55.5355L122.937 50.68ZM132.377 62.6H127.377V62.6568L127.378 62.7136L132.377 62.6ZM132.057 69.56L127.09 68.9825L127.083 69.0448L127.077 69.1073L132.057 69.56ZM131.257 76.6L126.303 75.9244L126.303 75.9244L131.257 76.6ZM129.737 79.32L126.737 75.32L126.674 75.3669L126.613 75.4157L129.737 79.32ZM127.017 80.2L127.28 75.2069L127.267 75.2062L127.017 80.2ZM124.217 79.08L127.492 75.3016L127.481 75.2926L127.471 75.2837L124.217 79.08ZM122.857 76.36L117.892 76.9557L117.897 76.9957L117.903 77.0356L122.857 76.36ZM122.537 72.52H117.537V72.6286L117.542 72.7372L122.537 72.52ZM129.577 19.4L124.599 19.8741L124.983 23.9031L129.004 24.367L129.577 19.4ZM133.257 19.8L132.759 24.7752L132.759 24.7752L133.257 19.8ZM136.377 20.2L135.597 25.1388L135.633 25.1445L135.67 25.1497L136.377 20.2ZM138.537 20.76L136.742 25.4267L136.902 25.4884L137.066 25.5389L138.537 20.76ZM140.537 21.48L142.589 16.9204L142.525 16.8916L142.46 16.8646L140.537 21.48ZM143.177 26.52L147.994 27.8582L147.994 27.8582L143.177 26.52ZM141.657 28.68L144.138 33.0212L144.251 32.9565L144.361 32.8859L141.657 28.68ZM139.177 29.4L139.44 34.3931L139.455 34.3923L139.47 34.3914L139.177 29.4ZM136.137 29.32L135.357 34.2588L135.485 34.279L135.613 34.2925L136.137 29.32ZM133.097 29.08V24.08H132.87L132.644 24.1005L133.097 29.08ZM131.337 29.4L132.317 34.3029L132.486 34.2691L132.652 34.2238L131.337 29.4ZM129.497 29.8L128.373 24.928L124.934 25.7215L124.53 29.2269L129.497 29.8ZM129.017 33.88L124.052 33.2843L124.042 33.3744L124.034 33.4648L129.017 33.88ZM128.457 37.72L123.562 36.7002L123.553 36.7423L123.545 36.7844L128.457 37.72ZM126.857 40.44L123.704 36.5594L123.642 36.6095L123.582 36.6616L126.857 40.44ZM124.217 41.56V46.56H124.356L124.494 46.5523L124.217 41.56ZM121.497 40.52L118.222 44.2984L118.222 44.2984L121.497 40.52ZM119.897 37.8L124.761 36.6419L124.676 36.2843L124.539 35.9431L119.897 37.8ZM119.577 37L114.645 37.822L114.734 38.3551L114.934 38.8569L119.577 37ZM119.577 36.12L124.48 37.1006L124.565 36.6747L124.575 36.2404L119.577 36.12ZM119.897 22.92L114.9 22.7372L114.899 22.7676L114.898 22.7981L119.897 22.92ZM120.457 9.72L125.451 9.96068L125.457 9.84041V9.72H120.457ZM120.697 8.52L125.293 10.4896L125.338 10.3836L125.379 10.2756L120.697 8.52ZM121.337 7.32L125.406 10.2262L125.406 10.2262L121.337 7.32ZM123.257 5.48L120.684 1.19253L120.618 1.2323L120.553 1.2741L123.257 5.48ZM125.817 5.31999L127.886 0.768168L127.804 0.730897L127.721 0.696603L125.817 5.31999ZM127.577 6.52L124.214 10.2197L124.214 10.2197L127.577 6.52ZM128.697 8.2L123.873 9.51557L123.876 9.5269L123.879 9.53821L128.697 8.2ZM129.017 11.24L134.01 11.5028L134.011 11.4897L129.017 11.24ZM129.097 14.36L134.082 13.9765L134.078 13.9194L134.072 13.8625L129.097 14.36ZM129.257 16.6L124.268 16.9326L124.28 17.1206L124.307 17.3071L129.257 16.6ZM95.4569 30.68C96.5446 31.4958 97.5823 32.2605 98.5694 32.9734L104.424 24.8666C103.491 24.1929 102.502 23.4642 101.457 22.68L95.4569 30.68ZM98.5694 32.9734C99.4938 33.641 100.391 34.3072 101.26 34.9718L107.334 27.0282C106.39 26.3062 105.42 25.5856 104.424 24.8666L98.5694 32.9734ZM101.356 35.0437C101.943 35.4703 102.529 35.897 103.116 36.3237L108.998 28.2363C108.411 27.8097 107.824 27.383 107.238 26.9563L101.356 35.0437ZM103.538 36.5989C103.945 36.8367 104.343 37.1124 104.731 37.4298L111.063 29.6902C110.278 29.0476 109.448 28.4699 108.576 27.9611L103.538 36.5989ZM104.718 37.4197C104.798 37.485 104.764 37.4758 104.701 37.3715C104.67 37.3207 104.639 37.2575 104.612 37.1843C104.585 37.1111 104.568 37.0412 104.558 36.9798L114.436 35.4202C114.058 33.0252 112.78 31.1039 111.075 29.7003L104.718 37.4197ZM104.604 37.2301C104.609 37.2543 104.598 37.2128 104.607 37.1278C104.617 37.041 104.641 36.9764 104.653 36.951L113.701 41.209C114.607 39.2827 114.819 37.2101 114.39 35.1699L104.604 37.2301ZM104.752 36.7513C104.769 36.719 104.83 36.6249 104.944 36.529C105.056 36.4352 105.136 36.41 105.116 36.4166L108.278 45.9034C110.58 45.1362 112.447 43.6023 113.601 41.4087L104.752 36.7513ZM105.323 36.3524C105.345 36.3462 105.335 36.3553 105.262 36.3506C105.181 36.3453 105.002 36.3206 104.71 36.2156L101.323 45.6244C103.425 46.3811 105.741 46.6332 108.07 45.9676L105.323 36.3524ZM104.812 36.2533C104.368 36.0827 103.944 35.8789 103.536 35.6411L98.4975 44.2789C99.3699 44.7878 100.279 45.224 101.222 45.5867L104.812 36.2533ZM103.701 35.7417C102.965 35.2735 102.202 34.8425 101.413 34.4479L96.9408 43.3921C97.4315 43.6375 97.8949 43.8999 98.3325 44.1783L103.701 35.7417ZM101.658 34.5788C100.788 34.0821 99.8927 33.619 98.9713 33.1891L94.7424 42.2509C95.4211 42.5676 96.0721 42.9046 96.6962 43.2612L101.658 34.5788ZM99.2098 33.3082C98.4396 32.8975 97.5851 32.4314 96.6451 31.9092L91.7887 40.6508C92.7686 41.1952 93.6741 41.6892 94.5039 42.1318L99.2098 33.3082ZM89.5444 34.5C89.1212 35.6109 88.7254 36.6401 88.3568 37.5878L97.6769 41.2122C98.055 40.2399 98.4592 39.1891 98.8893 38.06L89.5444 34.5ZM88.3569 37.5878C88.0127 38.4728 87.6431 39.36 87.2478 40.2493L96.3859 44.3107C96.844 43.28 97.2744 42.2472 97.6769 41.2122L88.3569 37.5878ZM87.2015 40.3569C86.9159 41.0423 86.6322 41.7518 86.3501 42.4851L95.6836 46.0749C95.9349 45.4215 96.1845 44.7977 96.4323 44.2031L87.2015 40.3569ZM86.238 42.8096C86.1397 43.129 86.0025 43.4444 85.818 43.7606L94.4558 48.7994C95.018 47.8356 95.4674 46.8176 95.7958 45.7504L86.238 42.8096ZM85.9354 43.5694C85.8756 43.6621 85.8552 43.6705 85.8923 43.6368C85.9336 43.5994 86.0117 43.5411 86.1218 43.4909C86.2317 43.4408 86.3216 43.4223 86.3657 43.4169C86.4042 43.4122 86.3712 43.4219 86.2465 43.405L84.9073 53.315C86.6474 53.5501 88.501 53.3969 90.2719 52.5891C92.0468 51.7795 93.3803 50.4757 94.3384 48.9906L85.9354 43.5694ZM86.1611 43.3942C86.2758 43.4077 86.3773 43.4318 86.4617 43.4595C86.5452 43.4869 86.602 43.5146 86.6311 43.5305C86.6855 43.5602 86.6278 43.5398 86.4724 43.3845L79.4013 50.4555C80.7932 51.8473 82.6558 53.0508 84.9927 53.3258L86.1611 43.3942ZM86.5846 43.5003C86.523 43.4347 86.5714 43.4677 86.6326 43.6104C86.6988 43.7648 86.7369 43.9481 86.7369 44.12H76.7369C76.7369 46.5993 77.7642 48.713 79.2892 50.3397L86.5846 43.5003ZM86.7369 44.12C86.7369 43.6117 86.7732 43.1465 86.8387 42.7203L76.955 41.1997C76.8073 42.1601 76.7369 43.135 76.7369 44.12H86.7369ZM86.7859 43.0076C86.8881 42.5308 87.0146 42.1335 87.1523 41.8031L77.9215 37.9569C77.5258 38.9065 77.2257 39.8959 77.0079 40.9124L86.7859 43.0076ZM87.2413 41.5736C88.1841 38.9547 89.1524 36.3903 90.1459 33.8802L80.8478 30.1998C79.8147 32.8097 78.8096 35.472 77.8324 38.1864L87.2413 41.5736ZM90.1459 33.8802C91.1636 31.3092 92.1812 28.7117 93.1987 26.0876L83.8751 22.4724C82.8659 25.075 81.8568 27.6508 80.8478 30.1998L90.1459 33.8802ZM93.2803 25.8611C93.5786 24.9662 93.848 24.0686 94.088 23.1683L84.4257 20.5917C84.2391 21.2914 84.0285 21.9938 83.7935 22.6989L93.2803 25.8611ZM94.1076 23.0927C94.2971 22.3345 94.5109 21.5741 94.7493 20.8114L85.2045 17.8286C84.9095 18.7726 84.6433 19.7188 84.4062 20.6673L94.1076 23.0927ZM92.6931 15.1221C91.3967 14.2833 90.0024 13.6355 88.5151 13.2224L85.8387 22.8576C86.2714 22.9778 86.7437 23.1834 87.2606 23.5179L92.6931 15.1221ZM88.758 13.2966C87.5601 12.8973 86.3464 12.5926 85.1189 12.388L83.4749 22.252C84.1673 22.3674 84.8737 22.5427 85.5957 22.7834L88.758 13.2966ZM85.1658 12.3961C84.0551 12.2001 82.9239 12.0716 81.7742 12.0077L81.2195 21.9923C81.9899 22.0351 82.7253 22.1199 83.4279 22.2439L85.1658 12.3961ZM81.7742 12.0077C81.0039 11.9649 80.2684 11.8801 79.5658 11.7561L77.8279 21.6039C78.9387 21.7999 80.0699 21.9284 81.2195 21.9923L81.7742 12.0077ZM79.3724 11.7258C78.2728 11.5759 77.1725 11.4009 76.0713 11.2006L74.2824 21.0393C75.528 21.2658 76.7743 21.4641 78.0213 21.6341L79.3724 11.7258ZM76.335 11.256C75.4525 11.0459 74.5928 10.7732 73.7538 10.4376L70.0399 19.7224C71.3343 20.2401 72.6612 20.6608 74.0188 20.984L76.335 11.256ZM73.6525 10.3984C73.7021 10.417 73.828 10.474 73.9778 10.5989C74.1308 10.7264 74.2452 10.8718 74.3181 10.9993L65.6357 15.9607C66.6774 17.7837 68.2662 19.0585 70.1413 19.7616L73.6525 10.3984ZM74.3886 11.1271C74.4487 11.2396 74.4876 11.3636 74.5037 11.4725C74.5187 11.5749 74.5052 11.6062 74.5157 11.5398L64.6381 9.98018C64.3319 11.9194 64.5606 13.9495 65.5651 15.8329L74.3886 11.1271ZM74.4578 11.8446C74.4827 11.7326 74.5 11.7145 74.478 11.7571C74.467 11.7783 74.448 11.8111 74.419 11.8511C74.3898 11.8914 74.3541 11.9338 74.3124 11.9755L67.2413 4.90446C65.8662 6.27959 65.0768 7.96149 64.6959 9.67534L74.4578 11.8446ZM74.1555 12.1258C74.0337 12.2374 73.879 12.3363 73.7138 12.4024C73.555 12.4659 73.454 12.4723 73.4542 12.4723L72.8995 2.48769C70.9179 2.59779 68.9826 3.30188 67.3983 4.75422L74.1555 12.1258ZM73.4793 12.4708C76.7487 12.2727 79.9872 12.3225 83.1973 12.6188L84.1165 2.66117C80.3932 2.31748 76.6451 2.26063 72.8744 2.48915L73.4793 12.4708ZM83.2042 12.6195C86.2879 12.8998 89.3039 13.5768 92.2622 14.6568L95.6916 5.26321C91.9298 3.88988 88.0659 3.0202 84.1096 2.66053L83.2042 12.6195ZM92.259 14.6556C93.6347 15.1589 94.1794 15.7381 94.4357 16.1629C94.7074 16.6133 95.0063 17.4777 94.8411 19.1479L104.793 20.1321C105.107 16.9489 104.673 13.7733 102.998 10.9971C101.308 8.19525 98.6924 6.36106 95.6948 5.26438L92.259 14.6556ZM94.8417 19.1425C94.7597 19.962 94.6156 20.7897 94.4062 21.6273L104.108 24.0527C104.432 22.757 104.661 21.4514 104.792 20.1375L94.8417 19.1425ZM94.4062 21.6273C94.1038 22.8368 93.8145 24.2343 93.5347 25.801L103.379 27.5589C103.633 26.139 103.877 24.9765 104.108 24.0527L94.4062 21.6273ZM127.399 70.1603C127.743 67.9219 127.924 65.8631 127.853 64.0802L117.861 64.4798C117.896 65.3636 117.811 66.7181 117.515 68.6397L127.399 70.1603ZM127.857 64.28C127.857 62.1568 127.34 59.8797 125.801 57.9565L117.993 64.2035C117.939 64.137 117.899 64.0724 117.87 64.0167C117.842 63.9618 117.83 63.9255 117.828 63.9167C117.824 63.9027 117.857 64.0072 117.857 64.28H127.857ZM125.801 57.9565C124.229 55.9911 122.045 55.0042 119.981 54.528L117.733 64.272C118.073 64.3505 118.218 64.4252 118.238 64.4362C118.245 64.4401 118.218 64.4259 118.171 64.3864C118.122 64.3462 118.058 64.2859 117.993 64.2035L125.801 57.9565ZM120.024 54.5381C118.2 54.1004 116.017 53.8986 113.616 53.8414L113.378 63.8386C115.457 63.8881 116.847 64.0596 117.69 64.2619L120.024 54.5381ZM113.675 53.8432C112.063 53.7856 110.451 53.7856 108.838 53.8432L109.195 63.8368C110.57 63.7877 111.944 63.7877 113.318 63.8368L113.675 53.8432ZM108.832 53.8434C107.577 53.8899 106.322 53.8667 105.066 53.7737L104.328 63.7463C105.952 63.8666 107.577 63.8968 109.202 63.8366L108.832 53.8434ZM104.875 53.7632C104.1 53.7355 103.996 53.5626 104.134 53.6682L98.0596 61.6118C100.011 63.1041 102.307 63.6778 104.518 63.7568L104.875 53.7632ZM104.25 53.7594C104.286 53.7885 104.368 53.8694 104.442 54.0009C104.514 54.1301 104.527 54.219 104.527 54.2129L94.6271 55.6271C94.9595 57.9535 96.0826 60.0083 97.9439 61.5206L104.25 53.7594ZM104.552 54.4225C104.565 54.5534 104.553 54.7361 104.493 54.9225C104.436 55.0996 104.37 55.1712 104.397 55.1385L96.6772 48.7815C95.1732 50.6078 94.3492 52.8925 94.6017 55.4175L104.552 54.4225ZM104.397 55.1385C104.379 55.1603 104.357 55.1817 104.335 55.1997C104.314 55.2173 104.302 55.2236 104.306 55.2211C104.315 55.2161 104.421 55.1601 104.681 55.11L102.793 45.29C100.503 45.7303 98.3065 46.803 96.6772 48.7815L104.397 55.1385ZM104.639 55.118C107.519 54.5899 110.389 54.3516 113.254 54.3993L113.42 44.4007C109.885 44.3418 106.355 44.6367 102.835 45.282L104.639 55.118ZM113.254 54.3993C116.061 54.4461 118.882 54.8203 121.724 55.5307L124.15 45.8293C120.591 44.9397 117.013 44.4606 113.42 44.4007L113.254 54.3993ZM121.744 55.5355C124.116 56.1186 125.385 57.0248 126.097 57.9242C126.804 58.817 127.377 60.2254 127.377 62.6H137.377C137.377 58.5746 136.376 54.7964 133.937 51.7158C131.502 48.6419 128.051 46.7881 124.13 45.8245L121.744 55.5355ZM127.378 62.7136C127.426 64.8333 127.33 66.9223 127.09 68.9825L137.023 70.1375C137.317 67.611 137.434 65.0601 137.376 62.4864L127.378 62.7136ZM127.077 69.1073C126.871 71.3791 126.613 73.6515 126.303 75.9244L136.211 77.2756C136.541 74.8552 136.816 72.4342 137.036 70.0127L127.077 69.1073ZM126.303 75.9244C126.295 75.9776 126.301 75.8844 126.392 75.7209C126.489 75.5476 126.62 75.4076 126.737 75.32L132.737 83.32C134.783 81.7856 135.892 79.6135 136.211 77.2756L126.303 75.9244ZM126.613 75.4157C126.65 75.3864 126.754 75.3158 126.918 75.2628C127.082 75.2095 127.216 75.2036 127.28 75.2069L126.754 85.1931C129.004 85.3115 131.113 84.6219 132.86 83.2243L126.613 75.4157ZM127.267 75.2062C127.255 75.2057 127.262 75.2052 127.285 75.21C127.308 75.2149 127.339 75.2237 127.374 75.2376C127.409 75.2516 127.439 75.2673 127.462 75.2817C127.485 75.2959 127.495 75.3046 127.492 75.3016L120.942 82.8584C122.595 84.2904 124.595 85.0852 126.767 85.1938L127.267 75.2062ZM127.471 75.2837C127.619 75.4109 127.727 75.56 127.789 75.6839C127.845 75.7954 127.829 75.8173 127.811 75.6844L117.903 77.0356C118.193 79.162 119.105 81.2836 120.963 82.8763L127.471 75.2837ZM127.821 75.7643C127.675 74.5452 127.58 73.3919 127.532 72.3028L117.542 72.7372C117.601 74.1015 117.719 75.5082 117.892 76.9557L127.821 75.7643ZM127.537 72.52C127.537 71.2298 127.509 70.0791 127.447 69.0881L117.467 69.7119C117.511 70.4276 117.537 71.3569 117.537 72.52H127.537ZM129.004 24.367C130.409 24.5291 131.661 24.6654 132.759 24.7752L133.754 14.8248C132.719 14.7213 131.519 14.5909 130.15 14.433L129.004 24.367ZM132.759 24.7752C133.736 24.8728 134.682 24.9943 135.597 25.1388L137.157 15.2612C136.046 15.0857 134.911 14.9405 133.754 14.8248L132.759 24.7752ZM135.67 25.1497C136.05 25.2041 136.405 25.2971 136.742 25.4267L140.332 16.0933C139.282 15.6896 138.197 15.4092 137.084 15.2503L135.67 25.1497ZM137.066 25.5389C137.613 25.7072 138.129 25.8932 138.614 26.0954L142.46 16.8646C141.665 16.5334 140.847 16.2395 140.007 15.9811L137.066 25.5389ZM138.485 26.0396C138.573 26.0794 138.563 26.0891 138.51 26.0395C138.485 26.0164 138.459 25.9876 138.434 25.9548C138.41 25.9221 138.394 25.8942 138.385 25.8761L147.329 21.4039C146.287 19.319 144.605 17.8276 142.589 16.9204L138.485 26.0396ZM138.385 25.8761C138.39 25.8869 138.346 25.8 138.327 25.6322C138.308 25.4581 138.327 25.2967 138.359 25.1818L147.994 27.8582C148.619 25.6085 148.316 23.3784 147.329 21.4039L138.385 25.8761ZM138.359 25.1818C138.359 25.1825 138.392 25.0674 138.508 24.9025C138.629 24.73 138.788 24.5804 138.953 24.4741L144.361 32.8859C146.268 31.6595 147.442 29.8457 147.994 27.8582L138.359 25.1818ZM139.176 24.3388C139.136 24.3616 139.065 24.3979 138.883 24.4086L139.47 34.3914C141.102 34.2954 142.684 33.8517 144.138 33.0212L139.176 24.3388ZM138.914 24.4069C138.164 24.4464 137.414 24.4268 136.66 24.3475L135.613 34.2925C136.887 34.4266 138.163 34.4603 139.44 34.3931L138.914 24.4069ZM136.917 24.3812C135.649 24.181 134.375 24.08 133.097 24.08V34.08C133.846 34.08 134.598 34.139 135.357 34.2588L136.917 24.3812ZM132.644 24.1005C131.757 24.1812 130.881 24.3416 130.021 24.5762L132.652 34.2238C132.966 34.1384 133.264 34.0854 133.55 34.0595L132.644 24.1005ZM130.356 24.4971C129.763 24.6158 129.1 24.7602 128.373 24.928L130.621 34.672C131.28 34.5198 131.844 34.3976 132.317 34.3029L130.356 24.4971ZM124.53 29.2269C124.371 30.6063 124.212 31.9588 124.052 33.2843L133.981 34.4757C134.142 33.1346 134.303 31.767 134.464 30.3731L124.53 29.2269ZM124.034 33.4648C123.945 34.5381 123.788 35.6162 123.562 36.7002L133.352 38.7398C133.659 37.2638 133.876 35.7819 134 34.2952L124.034 33.4648ZM123.545 36.7844C123.537 36.828 123.539 36.7861 123.587 36.7049C123.609 36.6677 123.634 36.6337 123.658 36.6053C123.683 36.5773 123.7 36.5624 123.704 36.5594L130.01 44.3206C131.815 42.8543 132.943 40.8873 133.369 38.6556L123.545 36.7844ZM123.582 36.6616C123.535 36.7025 123.554 36.6751 123.644 36.6371C123.739 36.5968 123.846 36.5729 123.94 36.5677L124.494 46.5523C126.673 46.4313 128.584 45.5596 130.132 44.2184L123.582 36.6616ZM124.217 36.56C124.293 36.56 124.421 36.5756 124.563 36.6297C124.628 36.6547 124.68 36.6819 124.719 36.7053C124.757 36.7283 124.774 36.7434 124.772 36.7416L118.222 44.2984C119.887 45.7412 121.943 46.56 124.217 46.56V36.56ZM124.772 36.7416C124.771 36.7415 124.772 36.7419 124.773 36.7428C124.774 36.7436 124.775 36.7449 124.777 36.7465C124.78 36.7497 124.784 36.754 124.788 36.7591C124.797 36.77 124.803 36.7796 124.807 36.7849C124.809 36.7899 124.806 36.7845 124.798 36.7642C124.789 36.7435 124.776 36.7042 124.761 36.6419L115.033 38.9581C115.52 41.0025 116.561 42.8589 118.222 44.2984L124.772 36.7416ZM124.539 35.9431C124.511 35.872 124.408 35.6141 124.379 35.5431C124.379 35.5431 124.299 35.3431 124.299 35.3431C124.299 35.3431 124.219 35.1431 124.219 35.1431L114.934 38.8569C114.934 38.8569 115.094 39.2569 115.094 39.2569C115.094 39.2569 115.174 39.4569 115.174 39.4569C115.174 39.4569 115.254 39.6569 115.254 39.6569L124.539 35.9431ZM124.509 36.178C124.536 36.3431 124.566 36.6707 124.48 37.1006L114.674 35.1394C114.481 36.1026 114.511 37.0169 114.645 37.822L124.509 36.178ZM124.575 36.2404C124.682 31.8143 124.789 27.4147 124.895 23.0419L114.898 22.7981C114.792 27.1719 114.685 31.5724 114.578 35.9996L124.575 36.2404ZM124.894 23.1028C125.053 18.749 125.239 14.3683 125.451 9.96068L115.463 9.47931C115.248 13.925 115.061 18.3443 114.9 22.7372L124.894 23.1028ZM125.457 9.72C125.457 9.93568 125.413 10.2094 125.293 10.4896L116.101 6.5504C115.661 7.57731 115.457 8.65098 115.457 9.72H125.457ZM125.379 10.2756C125.384 10.2604 125.391 10.2468 125.406 10.2262L117.268 4.4138C116.75 5.13982 116.33 5.92628 116.015 6.7644L125.379 10.2756ZM125.406 10.2262C125.583 9.97764 125.765 9.81151 125.961 9.68589L120.553 1.2741C119.255 2.10848 118.157 3.16902 117.268 4.41381L125.406 10.2262ZM125.829 9.76746C125.607 9.90099 125.252 10.0425 124.809 10.0703C124.375 10.0974 124.058 10.003 123.913 9.94339L127.721 0.696603C125.44 -0.242537 122.918 -0.147884 120.684 1.19253L125.829 9.76746ZM123.748 9.87182C123.767 9.88055 123.926 9.95863 124.214 10.2197L130.94 2.8203C130.054 2.0147 129.04 1.29278 127.886 0.768168L123.748 9.87182ZM124.214 10.2197C124.307 10.3044 124.029 10.0865 123.873 9.51557L133.521 6.88442C133.045 5.14019 132.02 3.80222 130.94 2.82029L124.214 10.2197ZM123.879 9.53821C123.993 9.94586 124.052 10.4204 124.023 10.9903L134.011 11.4897C134.089 9.92624 133.935 8.37413 133.514 6.86178L123.879 9.53821ZM124.024 10.9772C123.956 12.2578 123.991 13.5523 124.122 14.8575L134.072 13.8625C133.989 13.0343 133.971 12.2488 134.01 11.5028L124.024 10.9772ZM124.112 14.7435C124.163 15.4175 124.216 16.1471 124.268 16.9326L134.246 16.2674C134.192 15.4529 134.137 14.6891 134.082 13.9765L124.112 14.7435ZM124.307 17.3071C124.399 17.9487 124.497 18.7982 124.599 19.8741L134.554 18.9259C134.443 17.7618 134.328 16.7446 134.207 15.8929L124.307 17.3071ZM165.692 69.56L165.786 74.5591L166.604 74.5437L167.374 74.2687L165.692 69.56ZM158.332 68.36L156.334 72.9435L156.384 72.9652L156.434 72.9858L158.332 68.36ZM153.372 64.76L149.454 67.867L149.481 67.9006L149.508 67.9337L153.372 64.76ZM151.132 59.4L156.089 58.7477L156.089 58.7477L151.132 59.4ZM151.932 53L156.641 54.6817L156.648 54.6622L156.654 54.6426L151.932 53ZM153.612 49.48L157.863 52.1118L157.863 52.1118L153.612 49.48ZM155.852 46.2L152.011 42.9991L151.929 43.0975L151.852 43.2L155.852 46.2ZM158.652 43.8L161.224 48.0875L161.301 48.0412L161.377 47.9922L158.652 43.8ZM162.092 42.28L160.83 37.4419L160.83 37.4419L162.092 42.28ZM165.852 41.88L165.644 46.8757L165.644 46.8757L165.852 41.88ZM169.452 42.6L171.247 37.9333L171.239 37.9304L171.232 37.9276L169.452 42.6ZM176.412 47.16L172.78 50.596L172.803 50.6209L172.827 50.6454L176.412 47.16ZM180.012 54.6L175.087 55.464L175.09 55.4792L175.093 55.4944L180.012 54.6ZM179.932 58.12L175.056 57.0119L175.032 57.1183L175.013 57.2256L179.932 58.12ZM178.732 61.56L183.113 63.9696L183.137 63.9251L183.161 63.88L178.732 61.56ZM176.412 64.52L172.979 60.8849L172.979 60.8849L176.412 64.52ZM173.212 66.84L175.582 71.2424L175.594 71.2359L175.606 71.2295L173.212 66.84ZM168.972 68.6L170.227 73.44L170.31 73.4184L170.392 73.394L168.972 68.6ZM165.132 61.16V66.16H166.566L167.782 65.4L165.132 61.16ZM167.212 60.2L169.024 64.86L169.024 64.86L167.212 60.2ZM170.092 58.68L172.865 62.8403L172.932 62.7955L172.998 62.7487L170.092 58.68ZM170.972 57.4L175.671 59.1087L175.694 59.0452L175.715 58.9811L170.972 57.4ZM169.852 52.36L166.222 55.7987L166.269 55.8478L166.316 55.8955L169.852 52.36ZM166.252 50.44L165.204 55.329L165.273 55.3437L165.341 55.3564L166.252 50.44ZM161.132 52.84L165.243 55.6861L165.374 55.4969L165.487 55.2966L161.132 52.84ZM159.932 55.16L164.52 57.148L164.569 57.033L164.614 56.9156L159.932 55.16ZM160.172 59.4L156.067 62.2553L156.139 62.3581L156.215 62.4572L160.172 59.4ZM201.132 41.72L196.14 42.0053L196.357 45.7987L200.07 46.6059L201.132 41.72ZM204.412 42.52L203.074 47.3376L203.227 47.3801L203.382 47.4127L204.412 42.52ZM207.452 43.08L206.672 48.0188L206.77 48.0342L206.868 48.0458L207.452 43.08ZM210.092 43.32L209.78 48.3103L209.936 48.32H210.092V43.32ZM212.652 43.56L211.73 48.4744L211.744 48.4769L211.757 48.4793L212.652 43.56ZM215.612 45.08L212.076 48.6155L212.137 48.6765L212.2 48.7353L215.612 45.08ZM216.732 47.48L211.742 47.1681L211.732 47.3239V47.48H216.732ZM215.452 50.04L218.744 53.8029L218.809 53.7464L218.872 53.6877L215.452 50.04ZM202.252 50.68L202.574 45.6904L200.038 45.5268L198.411 47.4791L202.252 50.68ZM201.132 52.68L196.353 51.2096L196.314 51.3375L196.281 51.4673L201.132 52.68ZM201.052 56.6L196.12 57.422L196.12 57.422L201.052 56.6ZM201.292 58.52L206.288 58.3349L206.284 58.2197L206.275 58.1048L201.292 58.52ZM201.452 62.92L196.455 63.0985L196.458 63.194L196.466 63.2894L201.452 62.92ZM201.292 67.24L206.195 68.2206L206.219 68.0972L206.238 67.9727L201.292 67.24ZM200.252 68.84L196.889 65.1403L196.889 65.1403L200.252 68.84ZM198.492 70.04L200.461 74.6357L200.511 74.6143L200.561 74.5918L198.492 70.04ZM197.212 70.12L198.297 65.2391L198.066 65.1879L197.832 65.1586L197.212 70.12ZM195.932 69.64L198.582 65.4L198.498 65.3477L198.413 65.2988L195.932 69.64ZM194.892 68.76L190.823 71.6662L190.952 71.8461L191.096 72.014L194.892 68.76ZM194.412 67.56L199.373 66.9398L199.359 66.8288L199.341 66.7185L194.412 67.56ZM193.372 61.08L198.317 60.3383L198.317 60.3383L193.372 61.08ZM192.732 54.6L187.737 54.8172L187.737 54.8304L187.738 54.8436L192.732 54.6ZM192.572 43.64L187.572 43.5665L187.572 43.5665L192.572 43.64ZM192.652 30.92L187.676 30.4306L187.652 30.6747V30.92H192.652ZM196.332 25.64L196.952 30.6014L196.996 30.5959L197.039 30.5897L196.332 25.64ZM199.212 26.92L195.287 30.0182L195.336 30.0802L195.387 30.1407L199.212 26.92ZM200.652 31.08L195.661 31.3825L195.666 31.4647L195.674 31.5467L200.652 31.08ZM200.892 36.28H195.892V36.3557L195.894 36.4314L200.892 36.28ZM167.772 27.48L162.883 28.5276L163.785 32.7389L168.084 32.4703L167.772 27.48ZM172.172 27.16L172.605 32.1412L172.605 32.1412L172.172 27.16ZM175.772 27.16L175.319 32.1395L175.414 32.1481L175.509 32.1531L175.772 27.16ZM178.732 27.56L177.647 32.4409L177.799 32.4746L177.952 32.4988L178.732 27.56ZM181.612 28.44L183.848 23.9679L183.795 23.9412L183.741 23.9159L181.612 28.44ZM182.892 29.96L178.296 31.9296L178.384 32.1344L178.49 32.3305L182.892 29.96ZM183.612 31.96L178.68 32.782L178.693 32.8615L178.709 32.9406L183.612 31.96ZM183.052 33.88L186.397 37.5965L186.397 37.5965L183.052 33.88ZM181.132 35L179.45 30.2913L179.362 30.3228L179.275 30.3576L181.132 35ZM180.252 35.24L179.43 30.308L179.35 30.3213L179.271 30.3371L180.252 35.24ZM179.452 35.4L179.693 40.3942L180.066 40.3762L180.432 40.3029L179.452 35.4ZM166.252 36.04L166.437 41.0366L166.466 41.0355L166.495 41.0341L166.252 36.04ZM153.132 36.44L153.011 31.4415L152.88 31.4446L152.748 31.4547L153.132 36.44ZM150.972 36.44L150.265 41.3897L150.44 41.4147L150.616 41.4273L150.972 36.44ZM148.972 35.72L151.656 31.5017L151.514 31.4112L151.366 31.3305L148.972 35.72ZM146.652 32.44L151.571 31.5456L151.563 31.5024L151.555 31.4594L146.652 32.44ZM147.132 30.44L150.848 33.7848L150.927 33.6973L151.002 33.6062L147.132 30.44ZM149.052 29.24L147.879 24.3796L147.821 24.3935L147.764 24.4088L149.052 29.24ZM153.692 28.28L154.541 33.2073L154.607 33.196L154.672 33.1829L153.692 28.28ZM158.812 27.24L159.82 32.1373L164.397 31.1949L163.766 26.5644L158.812 27.24ZM158.332 24.04L153.393 24.8198L153.396 24.8409L153.4 24.862L158.332 24.04ZM158.012 21L163.005 20.7372L163.004 20.7126L163.002 20.6881L158.012 21ZM157.932 18.44L152.94 18.1464L152.932 18.2931V18.44H157.932ZM158.252 15.8L163.166 16.7214L163.171 16.6952L163.176 16.6689L158.252 15.8ZM159.452 13.56L162.83 17.2458L162.837 17.2399L162.843 17.234L159.452 13.56ZM161.852 12.52L161.589 7.52691L161.574 7.52772L161.558 7.52863L161.852 12.52ZM164.252 13.4L160.566 16.7786L160.64 16.8587L160.716 16.9355L164.252 13.4ZM165.612 15.72L160.815 17.1308L160.872 17.3255L160.945 17.5149L165.612 15.72ZM166.172 20.04L161.222 20.7471L161.239 20.8618L161.26 20.9756L166.172 20.04ZM166.892 23.48L162.016 24.5881L162.016 24.5881L166.892 23.48ZM165.598 64.5609C163.284 64.6045 161.538 64.2709 160.23 63.7342L156.434 72.9858C159.286 74.1558 162.447 74.6221 165.786 74.5591L165.598 64.5609ZM160.33 63.7765C158.849 63.1308 157.88 62.3709 157.236 61.5863L149.508 67.9337C151.317 70.1358 153.655 71.7758 156.334 72.9435L160.33 63.7765ZM157.289 61.653C156.646 60.8413 156.242 59.9105 156.089 58.7477L146.175 60.0523C146.555 62.9428 147.645 65.5853 149.454 67.867L157.289 61.653ZM156.089 58.7477C155.942 57.6272 156.064 56.2968 156.641 54.6817L147.223 51.3183C146.2 54.1832 145.789 57.1195 146.175 60.0523L156.089 58.7477ZM156.654 54.6426C156.959 53.7668 157.36 52.9248 157.863 52.1118L149.361 46.8482C148.477 48.2752 147.758 49.7798 147.209 51.3574L156.654 54.6426ZM157.863 52.1118C158.477 51.1197 159.14 50.1492 159.852 49.2L151.852 43.2C150.964 44.3842 150.133 45.6003 149.361 46.8482L157.863 52.1118ZM159.693 49.4009C160.136 48.8697 160.641 48.4376 161.224 48.0875L156.079 39.5125C154.53 40.4424 153.168 41.6103 152.011 42.9991L159.693 49.4009ZM161.377 47.9922C161.995 47.5902 162.648 47.3022 163.354 47.1181L160.83 37.4419C159.082 37.8978 157.442 38.6231 155.927 39.6078L161.377 47.9922ZM163.354 47.1181C164.096 46.9245 164.854 46.8427 165.644 46.8757L166.06 36.8843C164.29 36.8106 162.541 36.9955 160.83 37.4419L163.354 47.1181ZM165.644 46.8757C166.423 46.9081 167.089 47.0502 167.672 47.2724L171.232 37.9276C169.575 37.2964 167.841 36.9585 166.06 36.8843L165.644 46.8757ZM167.657 47.2667C169.8 48.091 171.472 49.2143 172.78 50.596L180.044 43.724C177.618 41.1591 174.65 39.2424 171.247 37.9333L167.657 47.2667ZM172.827 50.6454C173.892 51.7405 174.7 53.2571 175.087 55.464L184.937 53.736C184.257 49.8629 182.665 46.4195 179.997 43.6746L172.827 50.6454ZM175.093 55.4944C175.184 55.998 175.175 56.4902 175.056 57.0119L184.808 59.2281C185.222 57.4031 185.266 55.5486 184.931 53.7056L175.093 55.4944ZM175.013 57.2256C174.895 57.8725 174.669 58.5407 174.303 59.24L183.161 63.88C183.968 62.3393 184.542 60.7141 184.851 59.0144L175.013 57.2256ZM174.351 59.1504C174.035 59.7249 173.593 60.3049 172.979 60.8849L179.845 68.1551C181.151 66.9218 182.256 65.5284 183.113 63.9696L174.351 59.1504ZM172.979 60.8849C172.335 61.4929 171.618 62.0138 170.818 62.4505L175.606 71.2295C177.152 70.3862 178.569 69.3604 179.845 68.1551L172.979 60.8849ZM170.841 62.4376C169.742 63.0294 168.647 63.4815 167.551 63.806L170.392 73.394C172.177 72.8651 173.908 72.144 175.582 71.2424L170.841 62.4376ZM167.717 63.76C166.234 64.1444 164.97 64.5086 164.01 64.8513L167.374 74.2687C167.907 74.078 168.829 73.8022 170.227 73.44L167.717 63.76ZM167.782 65.4C167.751 65.4194 167.825 65.3717 168.067 65.2598C168.295 65.1546 168.609 65.0214 169.024 64.86L165.4 55.54C164.384 55.9348 163.326 56.3924 162.482 56.92L167.782 65.4ZM169.024 64.86C170.359 64.3408 171.639 63.6575 172.865 62.8403L167.318 54.5197C166.624 54.9825 165.985 55.3125 165.4 55.54L169.024 64.86ZM172.998 62.7487C174.442 61.7171 175.234 60.3108 175.671 59.1087L166.273 55.6913C166.283 55.6626 166.488 55.1095 167.186 54.6113L172.998 62.7487ZM175.715 58.9811C176.056 57.96 176.292 56.8314 176.292 55.64H166.292C166.292 55.574 166.298 55.5533 166.293 55.5856C166.287 55.6182 166.27 55.6947 166.228 55.8189L175.715 58.9811ZM176.292 55.64C176.292 52.9396 175.175 50.6123 173.387 48.8245L166.316 55.8955C166.417 55.9959 166.395 56.0046 166.354 55.91C166.334 55.8656 166.317 55.8133 166.306 55.758C166.294 55.7031 166.292 55.6616 166.292 55.64H176.292ZM173.482 48.9213C171.757 47.1009 169.588 45.9727 167.162 45.5236L165.341 55.3564C165.796 55.4406 166.027 55.5924 166.222 55.7987L173.482 48.9213ZM167.3 45.551C165.348 45.1327 163.21 45.1963 161.17 46.1527C159.151 47.0992 157.737 48.6807 156.777 50.3834L165.487 55.2966C165.595 55.1055 165.658 55.0451 165.647 55.0555C165.63 55.0725 165.553 55.1421 165.414 55.2073C165.348 55.2381 165.282 55.2617 165.219 55.2781C165.156 55.2944 165.107 55.3011 165.076 55.3036C165.014 55.3087 165.048 55.2955 165.204 55.329L167.3 45.551ZM157.021 49.9939C156.288 51.0519 155.703 52.1963 155.25 53.4044L164.614 56.9156C164.8 56.417 165.015 56.0147 165.243 55.6861L157.021 49.9939ZM155.344 53.172C154.097 56.0492 154.045 59.3485 156.067 62.2553L164.276 56.5447C164.301 56.5806 164.349 56.6593 164.391 56.7784C164.434 56.8993 164.457 57.0239 164.464 57.1374C164.477 57.3684 164.412 57.3958 164.52 57.148L155.344 53.172ZM156.215 62.4572C158.531 65.4533 162.14 66.16 165.132 66.16V56.16C164.307 56.16 163.896 56.0549 163.764 56.0079C163.674 55.9758 163.894 56.0401 164.128 56.3428L156.215 62.4572ZM200.07 46.6059C201.226 46.8573 202.225 47.1018 203.074 47.3376L205.75 37.7024C204.679 37.4049 203.491 37.116 202.194 36.8341L200.07 46.6059ZM203.382 47.4127C204.477 47.6434 205.574 47.8455 206.672 48.0188L208.232 38.1412C207.303 37.9945 206.373 37.8233 205.442 37.6272L203.382 47.4127ZM206.868 48.0458C207.859 48.1624 208.83 48.2509 209.78 48.3103L210.404 38.3297C209.647 38.2825 208.858 38.211 208.036 38.1142L206.868 48.0458ZM210.092 48.32C210.631 48.32 211.176 48.3703 211.73 48.4744L213.573 38.6456C212.421 38.4297 211.26 38.32 210.092 38.32V48.32ZM211.757 48.4793C211.987 48.5212 212.036 48.5748 212.076 48.6155L219.147 41.5445C217.588 39.9852 215.663 39.0255 213.546 38.6406L211.757 48.4793ZM212.2 48.7353C212.24 48.7727 212.102 48.6559 211.961 48.3544C211.806 48.0224 211.714 47.6037 211.742 47.1681L221.722 47.7919C221.894 45.047 220.585 42.8824 219.023 41.4247L212.2 48.7353ZM211.732 47.48C211.732 47.1165 211.825 46.7942 211.94 46.5639C212.043 46.3571 212.122 46.3085 212.032 46.3923L218.872 53.6877C220.424 52.232 221.732 50.1416 221.732 47.48H211.732ZM212.159 46.2771C212.148 46.287 212.197 46.2434 212.302 46.2036C212.35 46.1854 212.396 46.1735 212.434 46.1667C212.472 46.16 212.493 46.16 212.492 46.16V56.16C214.839 56.16 216.992 55.3362 218.744 53.8029L212.159 46.2771ZM212.492 46.16C210.833 46.16 209.204 46.1097 207.604 46.0097L206.98 55.9903C208.793 56.1036 210.631 56.16 212.492 56.16V46.16ZM207.604 46.0097C205.9 45.9033 204.224 45.7968 202.574 45.6904L201.93 55.6696C203.587 55.7765 205.27 55.8834 206.98 55.9903L207.604 46.0097ZM198.411 47.4791C197.516 48.5531 196.788 49.7959 196.353 51.2096L205.911 54.1504C205.902 54.1774 205.921 54.0869 206.093 53.8809L198.411 47.4791ZM196.281 51.4673C196.017 52.5236 195.892 53.5987 195.892 54.68H205.892C205.892 54.3747 205.927 54.1164 205.983 53.8927L196.281 51.4673ZM195.892 54.68C195.892 55.5992 195.969 56.5141 196.12 57.422L205.984 55.778C205.922 55.4059 205.892 55.0408 205.892 54.68H195.892ZM196.12 57.422C196.204 57.9285 196.267 58.4328 196.309 58.9352L206.275 58.1048C206.21 57.3272 206.113 56.5514 205.984 55.778L196.12 57.422ZM196.295 58.7051C196.349 60.1428 196.402 61.6072 196.455 63.0985L206.449 62.7415C206.395 61.2461 206.342 59.7772 206.288 58.3349L196.295 58.7051ZM196.466 63.2894C196.545 64.3586 196.506 65.429 196.346 66.5073L206.238 67.9727C206.505 66.171 206.572 64.3614 206.438 62.5506L196.466 63.2894ZM196.389 66.2594C196.568 65.3635 197.032 65.0101 196.889 65.1403L203.615 72.5397C204.645 71.6033 205.802 70.1831 206.195 68.2206L196.389 66.2594ZM196.889 65.1403C196.601 65.4014 196.442 65.4794 196.423 65.4882L200.561 74.5918C201.715 74.0672 202.729 73.3453 203.615 72.5397L196.889 65.1403ZM196.522 65.4443C197.3 65.1109 197.974 65.1673 198.297 65.2391L196.127 75.0009C197.41 75.286 198.937 75.2891 200.461 74.6357L196.522 65.4443ZM197.832 65.1586C198.239 65.2095 198.496 65.3466 198.582 65.4L193.282 73.88C194.221 74.4667 195.331 74.9239 196.592 75.0814L197.832 65.1586ZM198.413 65.2988C198.505 65.3518 198.575 65.4034 198.622 65.4431C198.668 65.4821 198.689 65.5067 198.688 65.506L191.096 72.014C191.736 72.7609 192.514 73.4459 193.451 73.9812L198.413 65.2988ZM198.961 65.8538C199.143 66.1098 199.317 66.4871 199.373 66.9398L189.45 68.1802C189.614 69.4863 190.107 70.6635 190.823 71.6662L198.961 65.8538ZM199.341 66.7185C198.973 64.5641 198.631 62.4374 198.317 60.3383L188.427 61.8217C188.752 63.9893 189.104 66.1825 189.483 68.4015L199.341 66.7185ZM198.317 60.3383C198.022 58.3725 197.825 56.3788 197.726 54.3564L187.738 54.8436C187.852 57.1946 188.082 59.5208 188.427 61.8217L198.317 60.3383ZM197.727 54.3828C197.571 50.7982 197.519 47.2418 197.571 43.7135L187.572 43.5665C187.518 47.2916 187.572 51.0418 187.737 54.8172L197.727 54.3828ZM197.571 43.7135C197.625 40.062 197.652 36.3842 197.652 32.68H187.652C187.652 36.3358 187.625 39.9647 187.572 43.5665L197.571 43.7135ZM197.652 32.68V30.92H187.652V32.68H197.652ZM197.628 31.4094C197.683 30.8523 197.766 30.473 197.84 30.234C197.913 29.9953 197.96 29.9528 197.914 30.019C197.857 30.1002 197.719 30.2598 197.484 30.4015C197.25 30.543 197.046 30.5896 196.952 30.6014L195.712 20.6786C193.242 20.9873 191.135 22.2556 189.71 24.301C188.416 26.1571 187.879 28.3617 187.676 30.4306L197.628 31.4094ZM197.039 30.5897C196.743 30.632 196.306 30.6068 195.861 30.4091C195.449 30.2259 195.277 30.0045 195.287 30.0182L203.136 23.8218C201.419 21.6467 198.787 20.2385 195.625 20.6902L197.039 30.5897ZM195.387 30.1407C195.387 30.1407 195.388 30.1412 195.389 30.1423C195.389 30.1434 195.391 30.1453 195.393 30.148C195.396 30.1534 195.403 30.1631 195.411 30.1782C195.428 30.2081 195.455 30.2642 195.487 30.3556C195.552 30.5425 195.63 30.8686 195.661 31.3825L205.643 30.7775C205.492 28.2972 204.779 25.7691 203.036 23.6993L195.387 30.1407ZM195.674 31.5467C195.819 33.0942 195.892 34.6717 195.892 36.28H205.892C205.892 34.3683 205.805 32.4792 205.63 30.6133L195.674 31.5467ZM195.894 36.4314C195.949 38.2387 196.031 40.0967 196.14 42.0053L206.124 41.4347C206.019 39.6099 205.941 37.8413 205.89 36.1286L195.894 36.4314ZM168.084 32.4703C169.817 32.362 171.326 32.2524 172.605 32.1412L171.739 22.1788C170.565 22.2809 169.14 22.3847 167.46 22.4897L168.084 32.4703ZM172.605 32.1412C173.55 32.059 174.453 32.0608 175.319 32.1395L176.225 22.1805C174.744 22.0459 173.247 22.0476 171.739 22.1788L172.605 32.1412ZM175.509 32.1531C176.255 32.1923 176.966 32.2896 177.647 32.4409L179.817 22.6791C178.578 22.4038 177.316 22.2343 176.035 22.1669L175.509 32.1531ZM177.952 32.4988C178.51 32.5868 179.014 32.7435 179.483 32.9641L183.741 23.9159C182.396 23.2831 180.981 22.8532 179.512 22.6212L177.952 32.4988ZM179.376 32.9121C178.522 32.4855 178.273 31.8758 178.296 31.9296L187.488 27.9904C186.871 26.5509 185.768 24.9279 183.848 23.9679L179.376 32.9121ZM178.49 32.3305C178.656 32.6401 178.68 32.7853 178.68 32.782L188.544 31.138C188.33 29.8547 187.874 28.6665 187.294 27.5895L178.49 32.3305ZM178.709 32.9406C178.666 32.7248 178.615 32.2481 178.792 31.64C178.979 30.9993 179.338 30.4961 179.707 30.1635L186.397 37.5965C188.444 35.7543 188.964 33.227 188.515 30.9794L178.709 32.9406ZM179.707 30.1635C179.707 30.1639 179.648 30.2208 179.45 30.2913L182.814 39.7087C184.109 39.2459 185.33 38.5561 186.397 37.5965L179.707 30.1635ZM179.275 30.3576C179.382 30.315 179.44 30.3063 179.43 30.308L181.074 40.172C181.703 40.067 182.349 39.8984 182.989 39.6424L179.275 30.3576ZM179.271 30.3371C179.005 30.3904 178.738 30.4438 178.471 30.4971L180.432 40.3029C180.699 40.2496 180.966 40.1962 181.232 40.1429L179.271 30.3371ZM179.211 30.4058C174.784 30.6192 170.383 30.8326 166.008 31.0459L166.495 41.0341C170.868 40.8208 175.267 40.6075 179.693 40.3942L179.211 30.4058ZM166.067 31.0434C161.769 31.2026 157.417 31.3353 153.011 31.4415L153.252 41.4385C157.7 41.3314 162.095 41.1974 166.437 41.0366L166.067 31.0434ZM152.748 31.4547C152.319 31.4877 151.847 31.4898 151.328 31.4527L150.616 41.4273C151.59 41.4969 152.558 41.4989 153.515 41.4253L152.748 31.4547ZM151.679 31.4903C151.649 31.486 151.629 31.4817 151.618 31.4789C151.607 31.4762 151.603 31.4747 151.605 31.4756C151.608 31.4765 151.615 31.4791 151.625 31.4839C151.635 31.4888 151.645 31.4948 151.656 31.5017L146.287 39.9383C147.523 40.7246 148.875 41.1912 150.265 41.3897L151.679 31.4903ZM151.366 31.3305C151.469 31.3865 151.544 31.4461 151.591 31.4902C151.635 31.5324 151.639 31.5462 151.612 31.5065L143.292 37.0535C144.099 38.2649 145.179 39.3468 146.578 40.1095L151.366 31.3305ZM151.612 31.5065C151.576 31.4529 151.552 31.4122 151.537 31.3847C151.522 31.3572 151.516 31.3444 151.517 31.3464C151.519 31.3501 151.548 31.4184 151.571 31.5456L141.733 33.3344C141.991 34.7571 142.591 36.0033 143.292 37.0535L151.612 31.5065ZM151.555 31.4594C151.59 31.6365 151.632 32.0147 151.514 32.5069C151.39 33.0218 151.139 33.4621 150.848 33.7848L143.415 27.0952C141.724 28.9747 141.328 31.3151 141.749 33.4206L151.555 31.4594ZM151.002 33.6062C150.898 33.733 150.766 33.8497 150.622 33.94C150.481 34.028 150.375 34.062 150.34 34.0712L147.764 24.4088C146.048 24.8663 144.468 25.7995 143.262 27.2738L151.002 33.6062ZM150.225 34.1004C151.666 33.7526 153.105 33.455 154.541 33.2073L152.842 23.3527C151.186 23.6383 149.531 23.9808 147.879 24.3796L150.225 34.1004ZM154.672 33.1829C156.283 32.8608 157.999 32.5123 159.82 32.1373L157.804 22.3427C155.998 22.7144 154.301 23.0592 152.711 23.3771L154.672 33.1829ZM163.766 26.5644C163.601 25.3522 163.433 24.2358 163.264 23.218L153.4 24.862C153.55 25.7642 153.703 26.7811 153.858 27.9156L163.766 26.5644ZM163.271 23.2602C163.137 22.4163 163.049 21.5755 163.005 20.7372L153.019 21.2628C153.081 22.4512 153.206 23.6371 153.393 24.8198L163.271 23.2602ZM163.002 20.6881C162.955 19.9384 162.932 19.1891 162.932 18.44H152.932C152.932 19.3976 152.962 20.3549 153.022 21.3119L163.002 20.6881ZM162.923 18.7336C162.965 18.028 163.047 17.3581 163.166 16.7214L153.338 14.8786C153.137 15.9486 153.006 17.0387 152.94 18.1464L162.923 18.7336ZM163.176 16.6689C163.172 16.692 163.15 16.7887 163.079 16.9211C163.007 17.0565 162.915 17.1683 162.83 17.2458L156.073 9.87423C154.571 11.2509 153.667 13.011 153.328 14.9311L163.176 16.6689ZM162.843 17.234C162.811 17.264 162.717 17.3399 162.56 17.4078C162.401 17.4767 162.252 17.5051 162.145 17.5114L161.558 7.52863C159.45 7.65264 157.567 8.49508 156.06 9.88599L162.843 17.234ZM162.115 17.5131C162.073 17.5153 161.834 17.5203 161.491 17.3944C161.125 17.2605 160.802 17.0364 160.566 16.7786L167.938 10.0214C166.166 8.08903 163.813 7.40985 161.589 7.52691L162.115 17.5131ZM160.716 16.9355C160.738 16.9575 160.774 16.99 160.815 17.1308L170.409 14.3092C169.917 12.6367 169.045 11.1225 167.787 9.86447L160.716 16.9355ZM160.945 17.5149C160.99 17.6324 161.012 17.7438 161.012 17.88H171.012C171.012 16.5229 170.767 15.1942 170.279 13.9251L160.945 17.5149ZM161.012 17.88C161.012 18.8295 161.085 19.7864 161.222 20.7471L171.122 19.3329C171.046 18.8002 171.012 18.3172 171.012 17.88H161.012ZM161.26 20.9756C161.485 22.1563 161.737 23.3606 162.016 24.5881L171.768 22.3719C171.513 21.2527 171.285 20.1636 171.084 19.1044L161.26 20.9756ZM162.016 24.5881C162.277 25.7368 162.566 27.0494 162.883 28.5276L172.661 26.4323C172.338 24.9239 172.04 23.5698 171.768 22.3719L162.016 24.5881ZM241.175 34.76L245.771 32.7904L245.37 31.8545L244.635 31.1501L241.175 34.76ZM236.775 32.44L235.794 37.3429L235.81 37.3459L235.825 37.3489L236.775 32.44ZM231.895 31.56L230.951 36.47L231.025 36.4842L231.099 36.4962L231.895 31.56ZM227.735 30.92L226.975 35.8619L227.068 35.8762L227.162 35.887L227.735 30.92ZM223.575 30.04L224.875 25.2119L224.856 25.2068L224.837 25.2019L223.575 30.04ZM220.695 28.12L216.535 30.8935L216.587 30.9715L216.642 31.0474L220.695 28.12ZM220.135 25.08L224.986 26.2927L225.028 26.1221L225.059 25.9489L220.135 25.08ZM221.575 22.76L224.698 26.6643L224.775 26.6029L224.85 26.5384L221.575 22.76ZM224.375 21.72L224.526 16.7223L224.451 16.72H224.375V21.72ZM234.775 22.76L233.928 27.6878L233.941 27.6899L234.775 22.76ZM244.775 25.96L242.599 30.4617L242.607 30.4654L242.614 30.4691L244.775 25.96ZM250.215 30.76L245.816 33.1376L245.841 33.1831L245.867 33.228L250.215 30.76ZM250.775 37.64L245.967 36.2664L245.958 36.3009L245.948 36.3355L250.775 37.64ZM247.255 49.32L251.992 50.9211L251.995 50.9111L251.998 50.9011L247.255 49.32ZM243.255 60.76L238.552 59.0618L238.531 59.1201L238.512 59.1789L243.255 60.76ZM241.015 63.4L243.067 67.9596L243.067 67.9596L241.015 63.4ZM237.895 63.56L239.624 58.8683L239.585 58.8542L239.547 58.8407L237.895 63.56ZM235.415 61.48L231.034 63.8896L231.06 63.9377L231.088 63.9852L235.415 61.48ZM235.015 58.12L230.215 56.72L230.203 56.7621L230.191 56.8044L235.015 58.12ZM237.415 50.52L232.713 48.8193L232.697 48.8639L232.682 48.9087L237.415 50.52ZM239.975 42.92L235.232 41.3389L235.217 41.3836L235.203 41.4286L239.975 42.92ZM240.695 41L245.31 42.9231L245.337 42.8593L245.362 42.7949L240.695 41ZM241.335 39L236.556 37.5296L236.517 37.6575L236.484 37.7873L241.335 39ZM266.535 43.32H261.535V48.32H266.535V43.32ZM266.455 35.72H261.455V35.7732L261.456 35.8264L266.455 35.72ZM266.535 28.12L261.545 27.8081L261.538 27.9119L261.536 28.0159L266.535 28.12ZM266.695 25.64L271.684 25.9726L271.685 25.9622L271.685 25.9519L266.695 25.64ZM267.175 23.16L262.432 21.5789L267.175 23.16ZM268.295 21.64L271.162 25.7362L271.162 25.7362L268.295 21.64ZM269.975 21L270.428 25.9795L270.613 25.9626L270.797 25.932L269.975 21ZM271.815 21.16L270.106 25.859L270.17 25.882L270.234 25.9034L271.815 21.16ZM273.335 22.28L269.239 25.1473L269.286 25.2144L269.335 25.28L273.335 22.28ZM274.535 24.52L269.853 26.2756L269.872 26.3265L269.893 26.3769L274.535 24.52ZM275.095 26.84L280.089 26.6044L280.087 26.544L280.082 26.4838L275.095 26.84ZM275.735 43.72L270.737 43.8628L270.737 43.8642L275.735 43.72ZM276.055 60.52L271.055 60.5672L271.056 60.5979L271.056 60.6287L276.055 60.52ZM274.855 65.88L270.878 62.8498L270.866 62.8648L270.855 62.88L274.855 65.88ZM271.575 67.32L271.002 72.287L271.097 72.298L271.192 72.3053L271.575 67.32ZM268.455 65.4L264.15 67.9436L264.177 67.988L264.204 68.0318L268.455 65.4ZM267.255 60.12L262.259 60.3085L262.259 60.3278L262.26 60.347L267.255 60.12ZM267.015 51.72L262.016 51.8161L262.016 51.8161L267.015 51.72ZM266.775 43.32L271.771 43.1315L271.59 38.32H266.775V43.32ZM244.635 31.1501C242.699 29.295 240.373 28.0437 237.725 27.5311L235.825 37.3489C236.483 37.4763 237.091 37.7716 237.715 38.3699L244.635 31.1501ZM237.756 27.5371C236.093 27.2045 234.405 26.9001 232.691 26.6238L231.099 36.4962C232.692 36.7532 234.257 37.0355 235.794 37.3429L237.756 27.5371ZM232.839 26.65C231.331 26.3599 229.821 26.1275 228.308 25.953L227.162 35.887C228.423 36.0325 229.686 36.2267 230.951 36.47L232.839 26.65ZM228.495 25.9781C227.295 25.7934 226.088 25.5386 224.875 25.2119L222.275 34.8681C223.835 35.2881 225.402 35.6199 226.975 35.8619L228.495 25.9781ZM224.837 25.2019C224.771 25.1846 224.732 25.1692 224.715 25.1618C224.699 25.1546 224.698 25.153 224.709 25.1597C224.719 25.1667 224.731 25.1764 224.742 25.187C224.753 25.1974 224.755 25.2012 224.748 25.1925L216.642 31.0474C218.065 33.0184 220.047 34.2871 222.313 34.8781L224.837 25.2019ZM224.855 25.3465C224.867 25.3635 224.949 25.4978 224.992 25.7342C225.037 25.9768 225.014 26.18 224.986 26.2927L215.284 23.8673C214.657 26.3751 215.157 28.8268 216.535 30.8935L224.855 25.3465ZM225.059 25.9489C225.03 26.1151 224.963 26.2962 224.863 26.4568C224.768 26.6102 224.688 26.6731 224.698 26.6643L218.452 18.8557C216.817 20.163 215.607 21.9699 215.211 24.2111L225.059 25.9489ZM224.85 26.5384C224.826 26.5591 224.746 26.619 224.616 26.6671C224.487 26.7151 224.393 26.72 224.375 26.72V16.72C222.115 16.72 220.017 17.4938 218.3 18.9816L224.85 26.5384ZM224.224 26.7177C227.514 26.8174 230.748 27.1413 233.928 27.6877L235.622 17.8323C231.975 17.2054 228.276 16.8359 224.526 16.7223L224.224 26.7177ZM233.941 27.6899C236.937 28.197 239.819 29.1181 242.599 30.4617L246.951 21.4583C243.331 19.7086 239.546 18.4963 235.609 17.8301L233.941 27.6899ZM242.614 30.4691C244.477 31.3614 245.371 32.3142 245.816 33.1376L254.614 28.3824C252.925 25.2592 250.193 23.0119 246.936 21.4509L242.614 30.4691ZM245.867 33.228C246.196 33.8077 246.424 34.6692 245.967 36.2664L255.583 39.0136C256.62 35.3841 256.474 31.659 254.563 28.292L245.867 33.228ZM245.948 36.3355C244.906 40.1901 243.761 43.9911 242.512 47.7389L251.998 50.9011C253.309 46.9689 254.51 42.9833 255.602 38.9445L245.948 36.3355ZM242.518 47.7189C241.25 51.4724 239.928 55.2533 238.552 59.0618L247.958 62.4582C249.356 58.5867 250.701 54.741 251.992 50.9211L242.518 47.7189ZM238.512 59.1789C238.467 59.3141 238.459 59.2668 238.562 59.1451C238.613 59.0858 238.678 59.023 238.755 58.965C238.832 58.9071 238.905 58.8666 238.963 58.8404L243.067 67.9596C245.607 66.8164 247.204 64.723 247.998 62.3411L238.512 59.1789ZM238.963 58.8404C238.927 58.8567 239.007 58.8154 239.179 58.8066C239.359 58.7973 239.52 58.8301 239.624 58.8683L236.166 68.2517C238.517 69.1175 240.915 68.9278 243.067 67.9596L238.963 58.8404ZM239.547 58.8407C239.547 58.8407 239.565 58.8471 239.594 58.8638C239.624 58.8807 239.657 58.9029 239.688 58.929C239.719 58.9551 239.74 58.9777 239.751 58.9909C239.761 59.0037 239.757 59.0009 239.742 58.9748L231.088 63.9852C232.25 65.9917 234.005 67.496 236.243 68.2793L239.547 58.8407ZM239.796 59.0704C239.789 59.0583 239.797 59.0706 239.809 59.1062C239.821 59.1426 239.833 59.1916 239.84 59.2489C239.847 59.3063 239.847 59.3569 239.844 59.3956C239.84 59.4335 239.835 59.4481 239.839 59.4356L230.191 56.8044C229.529 59.2312 229.822 61.6869 231.034 63.8896L239.796 59.0704ZM239.815 59.52C240.541 57.0304 241.319 54.5676 242.148 52.1313L232.682 48.9087C231.804 51.4858 230.982 54.0896 230.215 56.72L239.815 59.52ZM242.117 52.2207C243.049 49.6443 243.926 47.0412 244.747 44.4114L235.203 41.4286C234.424 43.9188 233.595 46.3823 232.713 48.8193L242.117 52.2207ZM244.718 44.5011C244.892 43.9798 245.089 43.4538 245.31 42.9231L236.08 39.0769C235.767 39.8262 235.484 40.5802 235.232 41.3389L244.718 44.5011ZM245.362 42.7949C245.693 41.9347 245.971 41.0731 246.186 40.2127L236.484 37.7873C236.379 38.2069 236.231 38.6786 236.028 39.2051L245.362 42.7949ZM246.114 40.4704C246.467 39.3229 246.655 38.1344 246.655 36.92H236.655C236.655 37.0922 236.63 37.2905 236.556 37.5296L246.114 40.4704ZM246.655 36.92C246.655 35.4435 246.312 34.054 245.771 32.7904L236.579 36.7296C236.629 36.8458 236.648 36.9166 236.654 36.9446C236.66 36.9711 236.655 36.9605 236.655 36.92H246.655ZM271.535 43.32C271.535 40.7253 271.508 38.1565 271.454 35.6136L261.456 35.8264C261.509 38.2968 261.535 40.7947 261.535 43.32H271.535ZM271.455 35.72C271.455 33.2488 271.481 30.7502 271.534 28.2241L261.536 28.0159C261.482 30.6098 261.455 33.1779 261.455 35.72H271.455ZM271.525 28.4319C271.578 27.585 271.631 26.7653 271.684 25.9726L261.706 25.3074C261.652 26.1147 261.598 26.9483 261.545 27.8081L271.525 28.4319ZM271.685 25.9519C271.712 25.5245 271.791 25.1248 271.918 24.7411L262.432 21.5789C262.026 22.7952 261.785 24.0488 261.705 25.3281L271.685 25.9519ZM271.918 24.7411C271.872 24.8818 271.786 25.0689 271.64 25.266C271.494 25.4647 271.325 25.6223 271.162 25.7362L265.428 17.5438C263.982 18.556 262.971 19.9605 262.432 21.5789L271.918 24.7411ZM271.162 25.7362C271.12 25.7654 271.031 25.8205 270.895 25.8724C270.756 25.9254 270.597 25.9641 270.428 25.9795L269.522 16.0205C267.979 16.1609 266.598 16.7245 265.428 17.5438L271.162 25.7362ZM270.797 25.932C270.725 25.944 270.616 25.9529 270.482 25.9412C270.347 25.9294 270.218 25.8996 270.106 25.859L273.524 16.461C272.095 15.9415 270.608 15.8256 269.153 16.068L270.797 25.932ZM270.234 25.9034C270.093 25.8565 269.906 25.7705 269.709 25.6253C269.51 25.4789 269.353 25.3099 269.239 25.1473L277.431 19.4127C276.419 17.9668 275.015 16.956 273.396 16.4166L270.234 25.9034ZM269.335 25.28C269.493 25.4911 269.678 25.8067 269.853 26.2756L279.217 22.7644C278.753 21.5267 278.137 20.3489 277.335 19.28L269.335 25.28ZM269.893 26.3769C270.049 26.7685 270.096 27.0357 270.108 27.1962L280.082 26.4838C279.987 25.151 279.661 23.8715 279.177 22.6631L269.893 26.3769ZM270.101 27.0756C270.366 32.6983 270.578 38.2941 270.737 43.8628L280.733 43.5772C280.572 37.9459 280.358 32.2883 280.089 26.6044L270.101 27.0756ZM270.737 43.8642C270.896 49.3779 271.002 54.9456 271.055 60.5672L281.055 60.4728C281.001 54.7878 280.894 49.1554 280.733 43.5758L270.737 43.8642ZM271.056 60.6287C271.077 61.5789 271.004 62.2158 270.916 62.6076C270.828 63.0001 270.757 63.0081 270.878 62.8498L278.832 68.9102C280.721 66.4317 281.115 63.2408 281.054 60.4113L271.056 60.6287ZM270.855 62.88C270.91 62.8067 271.095 62.6068 271.425 62.4618C271.746 62.3209 271.968 62.3355 271.958 62.3347L271.192 72.3053C274.194 72.5362 276.977 71.3839 278.855 68.88L270.855 62.88ZM272.148 62.353C272.077 62.3447 272.19 62.3474 272.375 62.4617C272.462 62.5152 272.54 62.5779 272.602 62.6416C272.664 62.7042 272.696 62.7522 272.706 62.7682L264.204 68.0318C265.756 70.5386 268.201 71.9639 271.002 72.287L272.148 62.353ZM272.76 62.8564C272.683 62.7259 272.343 61.936 272.25 59.893L262.26 60.347C262.381 62.9973 262.841 65.7274 264.15 67.9436L272.76 62.8564ZM272.251 59.9315C272.146 57.135 272.067 54.3658 272.014 51.6239L262.016 51.8161C262.07 54.6209 262.151 57.4517 262.259 60.3085L272.251 59.9315ZM272.014 51.6239C271.96 48.8191 271.879 45.9883 271.771 43.1315L261.779 43.5085C261.884 46.305 261.963 49.0742 262.016 51.8161L272.014 51.6239ZM266.775 38.32H266.535V48.32H266.775V38.32Z" fill="black" mask="url(#path-1-outside-1_849_61)"/>
</svg>
