<svg width="276" height="97" viewBox="0 0 276 97" fill="none" xmlns="http://www.w3.org/2000/svg">
<mask id="path-1-outside-1_849_62" maskUnits="userSpaceOnUse" x="0" y="0" width="276" height="97" fill="black">
<rect fill="white" width="276" height="97"/>
<path d="M31.24 17.28C32.7333 17.5467 34.0133 17.7333 35.08 17.84C36.1467 17.9467 37.1867 18.1333 38.2 18.4C40.76 19.0933 42.4667 20.3733 43.32 22.24C44.1733 24.0533 44.04 26.1867 42.92 28.64C42.3867 29.8133 41.7467 30.96 41 32.08C40.2533 33.2 39.48 34.4267 38.68 35.76C39.48 36.72 40.3067 37.68 41.16 38.64C42.0133 39.6 42.8133 40.5867 43.56 41.6C44.2533 42.56 44.5467 43.5733 44.44 44.64C44.3867 45.6533 44.0133 46.5333 43.32 47.28C41.8267 48.9333 39.96 49.12 37.72 47.84C36.8133 47.36 35.9333 46.8267 35.08 46.24C34.2267 45.6 33.2667 44.9333 32.2 44.24C31.2933 45.2 30.3867 46.16 29.48 47.12C28.5733 48.0267 27.64 48.9333 26.68 49.84C26.1467 50.32 25.56 50.8 24.92 51.28C24.3333 51.7067 23.6933 51.9733 23 52.08C22.4133 52.1867 21.7467 52.16 21 52C20.2533 51.7867 19.5867 51.4933 19 51.12C18.2 50.5867 17.6933 49.8933 17.48 49.04C17.2667 48.1867 17.4 47.3333 17.88 46.48C18.36 45.5733 18.92 44.7467 19.56 44C20.2533 43.2 20.92 42.4 21.56 41.6C23 39.7333 24.44 37.8667 25.88 36C27.32 34.1333 28.7333 32.2667 30.12 30.4C30.28 30.1867 30.3333 29.92 30.28 29.6C30.28 29.2267 30.3333 28.7467 30.44 28.16C28.4667 27.68 26.4933 27.5733 24.52 27.84C22.5467 28.0533 20.5733 28.2667 18.6 28.48C17.16 28.5867 15.6933 28.7733 14.2 29.04C12.76 29.2533 11.32 29.4133 9.88 29.52C8.54667 29.5733 7.42667 29.1733 6.52 28.32C5.61333 27.4667 5.13333 26.48 5.08 25.36C5.02667 24.3467 5.32 23.4133 5.96 22.56C6.6 21.7067 7.48 21.1467 8.6 20.88C10.4667 20.4533 12.3333 20.0533 14.2 19.68C16.12 19.3067 18.1733 18.9067 20.36 18.48C20.4133 17.7333 20.4667 16.96 20.52 16.16C20.6267 15.3067 20.7333 14.48 20.84 13.68C20.9467 12.7733 20.9733 11.8667 20.92 10.96C20.92 10.0533 21.1333 9.25333 21.56 8.56C21.9333 7.86666 22.4667 7.22666 23.16 6.64C23.9067 6.05333 24.6533 5.68 25.4 5.52C26.3067 5.30666 27.1067 5.49333 27.8 6.08C28.5467 6.66666 29.0533 7.41333 29.32 8.32C29.7467 9.70666 30.0667 11.1467 30.28 12.64C30.5467 14.08 30.8667 15.6267 31.24 17.28ZM50.36 57.92C51.2133 57.92 52.2533 57.8933 53.48 57.84C54.7067 57.7867 55.9867 57.8133 57.32 57.92C59.9333 58.1867 61.9867 58.9867 63.48 60.32C65.0267 61.6533 65.88 63.6 66.04 66.16C66.2 69.0933 66.2267 72.0267 66.12 74.96C66.0667 77.8933 65.8533 80.8 65.48 83.68C65.1067 86.4533 64.2 88.4 62.76 89.52C61.3733 90.64 59.2933 91.28 56.52 91.44C54.28 91.5467 52.0667 91.6267 49.88 91.68C47.7467 91.7867 45.56 91.8133 43.32 91.76C40.92 91.7067 39.1867 91.28 38.12 90.48C37.0533 89.7333 36.3867 88.1867 36.12 85.84C35.2667 78.9067 34.7867 71.8933 34.68 64.8C34.6267 62.7733 35.1867 61.2533 36.36 60.24C37.5333 59.2267 39.24 58.6133 41.48 58.4C42.8133 58.24 44.1733 58.16 45.56 58.16C46.9467 58.1067 48.5467 58.0267 50.36 57.92ZM55.64 81.92C56.28 79.2 56.68 76.72 56.84 74.48C57.0533 72.1867 56.7067 69.92 55.8 67.68C54.2 67.52 52.92 67.4133 51.96 67.36C51.0533 67.2533 50.2267 67.2533 49.48 67.36C48.7867 67.4133 48.04 67.5467 47.24 67.76C46.4933 67.9733 45.48 68.2667 44.2 68.64C44.04 69.76 43.88 70.9067 43.72 72.08C43.6133 73.2 43.5867 74.32 43.64 75.44C43.7467 76.56 43.96 77.6533 44.28 78.72C44.6 79.84 45.16 80.9067 45.96 81.92H55.64ZM64.28 27.28C65.6133 27.7067 66.8933 28.1067 68.12 28.48C69.4 28.8533 70.6533 29.2533 71.88 29.68C72.7867 30.0533 73.4533 30.64 73.88 31.44C74.3067 32.1867 74.4667 33.0133 74.36 33.92C74.2533 34.9333 73.88 35.7333 73.24 36.32C72.6533 36.9067 71.9067 37.28 71 37.44C69.9867 37.6 68.9467 37.7067 67.88 37.76C66.8133 37.8133 65.64 37.8933 64.36 38C64.0933 39.28 63.8533 40.5333 63.64 41.76C63.48 42.9867 63.2133 44.2133 62.84 45.44C62.5733 46.3467 62.0667 47.0667 61.32 47.6C60.6267 48.1333 59.8 48.4 58.84 48.4C57.88 48.4 57.0533 48.1333 56.36 47.6C55.6667 47.0667 55.16 46.3467 54.84 45.44C54.36 44 54.1467 42.5867 54.2 41.2C54.2533 37.36 54.3067 33.5467 54.36 29.76C54.4133 25.92 54.4933 22.08 54.6 18.24C54.6533 17.6533 54.7067 17.0933 54.76 16.56C54.8667 15.9733 55.0267 15.3867 55.24 14.8C55.56 13.8933 56.04 13.1733 56.68 12.64C57.32 12.1067 58.1467 11.8667 59.16 11.92C61.2933 12.0267 62.5733 13.04 63 14.96C63.2133 16.1333 63.3467 17.3067 63.4 18.48C63.4533 19.6 63.5333 20.7467 63.64 21.92C63.7467 22.8267 63.8533 23.7067 63.96 24.56C64.0667 25.4133 64.1733 26.32 64.28 27.28ZM112.502 47.2C112.395 50.6667 111.569 53.7867 110.022 56.56C108.529 59.3333 106.155 61.6267 102.902 63.44C99.7552 65.1467 96.6619 65.92 93.6219 65.76C90.5819 65.5467 87.5685 64.5067 84.5819 62.64C81.5419 60.6133 79.4619 57.8667 78.3419 54.4C77.8085 52.64 77.5685 50.72 77.6219 48.64C77.7285 46.5067 78.1019 44.4 78.7419 42.32C79.3819 40.24 80.2352 38.2933 81.3019 36.48C82.4219 34.6667 83.7019 33.2 85.1419 32.08C87.2752 30.4267 89.5419 29.4933 91.9419 29.28C94.3952 29.0667 96.8752 29.2533 99.3819 29.84C101.142 30.2667 102.795 31.0667 104.342 32.24C105.942 33.36 107.329 34.72 108.502 36.32C109.729 37.8667 110.689 39.6 111.382 41.52C112.075 43.3867 112.449 45.28 112.502 47.2ZM87.2219 47.12C87.0619 49.04 87.1952 50.6133 87.6219 51.84C88.1019 53.0667 88.9819 54.08 90.2619 54.88C92.9819 56.64 95.7019 56.6933 98.4219 55.04C99.9152 54.1333 101.035 53.0133 101.782 51.68C102.582 50.3467 102.982 48.9867 102.982 47.6C102.982 46.16 102.609 44.7733 101.862 43.44C101.169 42.0533 100.102 40.88 98.6619 39.92C96.8485 38.7467 95.0352 38.4 93.2219 38.88C91.4619 39.3067 90.0752 40.48 89.0619 42.4C88.6352 43.3067 88.2619 44.2133 87.9419 45.12C87.6752 45.9733 87.4352 46.64 87.2219 47.12ZM127.302 31.12C127.569 29.8933 127.782 28.7467 127.942 27.68C128.102 26.6133 128.395 25.6267 128.822 24.72C129.089 24.08 129.515 23.6 130.102 23.28C130.742 22.96 131.382 22.8 132.022 22.8C132.715 22.7467 133.355 22.88 133.942 23.2C134.582 23.52 135.035 24 135.302 24.64C136.262 26.6667 136.795 28.9067 136.902 31.36C137.009 34.72 137.062 38.08 137.062 41.44C137.062 44.8 137.115 48.1867 137.222 51.6C137.222 53.36 137.275 55.12 137.382 56.88C137.489 58.64 137.515 60.4 137.462 62.16C137.409 63.1733 137.275 64.1867 137.062 65.2C136.902 66.2133 136.689 67.2267 136.422 68.24C136.155 69.1467 135.649 69.84 134.902 70.32C134.209 70.8 133.355 70.9867 132.342 70.88C131.382 70.8267 130.555 70.5333 129.862 70C129.222 69.4667 128.795 68.72 128.582 67.76C128.369 66.9067 128.235 66.0533 128.182 65.2C128.182 64.3467 128.129 63.4667 128.022 62.56C127.915 61.44 127.835 60.2933 127.782 59.12C127.729 57.9467 127.649 56.6933 127.542 55.36C126.315 55.2533 125.169 55.1733 124.102 55.12C123.089 55.0667 122.075 54.9867 121.062 54.88C119.622 54.6667 118.475 54.16 117.622 53.36C116.769 52.56 116.342 51.6267 116.342 50.56C116.342 48.3733 117.915 46.9067 121.062 46.16C121.915 45.9467 122.769 45.7867 123.622 45.68C124.529 45.5733 125.382 45.3867 126.182 45.12C126.449 45.0133 126.662 44.72 126.822 44.24C127.035 43.7067 127.329 43.0667 127.702 42.32C126.155 42.2133 124.715 42.1067 123.382 42C122.102 41.8933 120.822 41.7867 119.542 41.68C118.315 41.52 117.302 41.12 116.502 40.48C115.755 39.7867 115.329 38.96 115.222 38C115.115 36.9867 115.329 36.0267 115.862 35.12C116.395 34.2133 117.195 33.5733 118.262 33.2C119.649 32.7733 121.062 32.4267 122.502 32.16C123.995 31.84 125.595 31.4933 127.302 31.12ZM159.832 76.56C157.006 76.6133 154.552 76.2133 152.472 75.36C150.392 74.4533 148.739 73.2533 147.512 71.76C146.286 70.2133 145.539 68.4267 145.272 66.4C145.006 64.3733 145.272 62.24 146.072 60C146.499 58.7733 147.059 57.6 147.752 56.48C148.446 55.36 149.192 54.2667 149.992 53.2C150.792 52.24 151.726 51.44 152.792 50.8C153.859 50.1067 155.006 49.6 156.232 49.28C157.459 48.96 158.712 48.8267 159.992 48.88C161.272 48.9333 162.472 49.1733 163.592 49.6C166.366 50.6667 168.686 52.1867 170.552 54.16C172.419 56.08 173.619 58.56 174.152 61.6C174.366 62.7733 174.339 63.9467 174.072 65.12C173.859 66.2933 173.459 67.44 172.872 68.56C172.286 69.6267 171.512 70.6133 170.552 71.52C169.592 72.4267 168.526 73.2 167.352 73.84C165.966 74.5867 164.552 75.1733 163.112 75.6C161.672 75.9733 160.579 76.2933 159.832 76.56ZM159.272 68.16C159.699 67.8933 160.392 67.5733 161.352 67.2C162.312 66.8267 163.272 66.32 164.232 65.68C164.606 65.4133 164.899 64.9867 165.112 64.4C165.326 63.76 165.432 63.1733 165.432 62.64C165.432 61.4133 164.952 60.32 163.992 59.36C163.032 58.3467 161.832 57.7067 160.392 57.44C158.152 56.96 156.446 57.76 155.272 59.84C154.792 60.5333 154.392 61.3067 154.072 62.16C153.379 63.76 153.459 65.1733 154.312 66.4C155.219 67.5733 156.872 68.16 159.272 68.16ZM195.272 48.72C196.499 48.9867 197.592 49.2533 198.552 49.52C199.566 49.7333 200.579 49.92 201.592 50.08C202.499 50.1867 203.379 50.2667 204.232 50.32C205.086 50.32 205.939 50.4 206.792 50.56C207.966 50.7733 208.952 51.28 209.752 52.08C210.552 52.8267 210.926 53.6267 210.872 54.48C210.872 55.3867 210.446 56.24 209.592 57.04C208.739 57.7867 207.752 58.16 206.632 58.16C204.872 58.16 203.139 58.1067 201.432 58C199.726 57.8933 198.046 57.7867 196.392 57.68C195.859 58.32 195.486 58.9867 195.272 59.68C195.112 60.32 195.032 60.9867 195.032 61.68C195.032 62.32 195.086 62.96 195.192 63.6C195.299 64.24 195.379 64.88 195.432 65.52C195.486 66.96 195.539 68.4267 195.592 69.92C195.699 71.36 195.646 72.8 195.432 74.24C195.326 74.7733 194.979 75.3067 194.392 75.84C193.806 76.3733 193.219 76.7733 192.632 77.04C192.259 77.2 191.832 77.2267 191.352 77.12C190.926 77.0667 190.499 76.9067 190.072 76.64C189.699 76.4267 189.352 76.1333 189.032 75.76C188.766 75.3867 188.606 74.9867 188.552 74.56C188.179 72.3733 187.832 70.2133 187.512 68.08C187.192 65.9467 186.979 63.7867 186.872 61.6C186.712 57.92 186.659 54.2667 186.712 50.64C186.766 47.0133 186.792 43.36 186.792 39.68V37.92C187.112 34.6667 188.339 32.9067 190.472 32.64C191.592 32.48 192.552 32.9067 193.352 33.92C194.206 34.9333 194.686 36.32 194.792 38.08C194.952 39.7867 195.032 41.52 195.032 43.28C195.086 45.04 195.166 46.8533 195.272 48.72ZM161.912 34.48C163.619 34.3733 165.086 34.2667 166.312 34.16C167.539 34.0533 168.739 34.0533 169.912 34.16C170.926 34.2133 171.912 34.3467 172.872 34.56C173.886 34.72 174.846 35.0133 175.752 35.44C176.286 35.7067 176.712 36.2133 177.032 36.96C177.406 37.6533 177.646 38.32 177.752 38.96C177.912 39.76 177.726 40.4 177.192 40.88C176.659 41.36 176.019 41.7333 175.272 42C175.006 42.1067 174.712 42.1867 174.392 42.24C174.126 42.2933 173.859 42.3467 173.592 42.4C169.166 42.6133 164.766 42.8267 160.392 43.04C156.072 43.2 151.699 43.3333 147.272 43.44C146.579 43.4933 145.859 43.4933 145.112 43.44C144.366 43.3333 143.699 43.0933 143.112 42.72C142.526 42.4 142.019 41.92 141.592 41.28C141.166 40.64 140.899 40.0267 140.792 39.44C140.632 38.64 140.792 37.9733 141.272 37.44C141.752 36.8533 142.392 36.4533 143.192 36.24C144.739 35.8667 146.286 35.5467 147.832 35.28C149.432 34.96 151.139 34.6133 152.952 34.24C152.792 33.0667 152.632 32 152.472 31.04C152.312 30.0267 152.206 29.0133 152.152 28C152.099 27.1467 152.072 26.2933 152.072 25.44C152.126 24.5333 152.232 23.6533 152.392 22.8C152.552 21.8933 152.952 21.1467 153.592 20.56C154.286 19.92 155.086 19.5733 155.992 19.52C157.006 19.4667 157.806 19.76 158.392 20.4C159.032 21.04 159.486 21.8133 159.752 22.72C160.019 23.4133 160.152 24.1333 160.152 24.88C160.152 25.5733 160.206 26.2933 160.312 27.04C160.526 28.16 160.766 29.3067 161.032 30.48C161.299 31.6533 161.592 32.9867 161.912 34.48ZM235.316 41.76C234.036 40.5333 232.569 39.76 230.916 39.44C229.316 39.12 227.689 38.8267 226.036 38.56C224.649 38.2933 223.262 38.08 221.876 37.92C220.489 37.7067 219.102 37.4133 217.716 37.04C216.489 36.72 215.529 36.08 214.836 35.12C214.196 34.16 214.009 33.1467 214.276 32.08C214.436 31.1733 214.916 30.4 215.716 29.76C216.516 29.0667 217.449 28.72 218.516 28.72C222.036 28.8267 225.502 29.1733 228.916 29.76C232.382 30.3467 235.716 31.4133 238.916 32.96C241.476 34.1867 243.289 35.7867 244.356 37.76C245.476 39.7333 245.662 42.0267 244.916 44.64C243.849 48.5867 242.676 52.48 241.396 56.32C240.116 60.1067 238.782 63.92 237.396 67.76C236.969 69.04 236.222 69.92 235.156 70.4C234.089 70.88 233.049 70.9333 232.036 70.56C230.969 70.1867 230.142 69.4933 229.556 68.48C228.969 67.4133 228.836 66.2933 229.156 65.12C229.902 62.56 230.702 60.0267 231.556 57.52C232.462 55.0133 233.316 52.48 234.116 49.92C234.329 49.28 234.569 48.64 234.836 48C235.102 47.3067 235.316 46.64 235.476 46C235.689 45.3067 235.796 44.6133 235.796 43.92C235.796 43.2267 235.636 42.5067 235.316 41.76ZM260.676 50.32C260.676 47.76 260.649 45.2267 260.596 42.72C260.596 40.2133 260.622 37.68 260.676 35.12C260.729 34.2667 260.782 33.44 260.836 32.64C260.889 31.7867 261.049 30.96 261.316 30.16C261.529 29.52 261.902 29.0133 262.436 28.64C262.969 28.2667 263.529 28.0533 264.116 28C264.756 27.8933 265.369 27.9467 265.956 28.16C266.596 28.3733 267.102 28.7467 267.476 29.28C267.956 29.92 268.356 30.6667 268.676 31.52C268.996 32.32 269.182 33.0933 269.236 33.84C269.502 39.4933 269.716 45.12 269.876 50.72C270.036 56.2667 270.142 61.8667 270.196 67.52C270.249 69.9733 269.849 71.76 268.996 72.88C268.196 73.9467 267.102 74.4267 265.716 74.32C264.329 74.16 263.289 73.52 262.596 72.4C261.902 71.2267 261.502 69.4667 261.396 67.12C261.289 64.2933 261.209 61.4933 261.156 58.72C261.102 55.9467 261.022 53.1467 260.916 50.32H260.676Z"/>
</mask>
<path d="M31.24 17.28C32.7333 17.5467 34.0133 17.7333 35.08 17.84C36.1467 17.9467 37.1867 18.1333 38.2 18.4C40.76 19.0933 42.4667 20.3733 43.32 22.24C44.1733 24.0533 44.04 26.1867 42.92 28.64C42.3867 29.8133 41.7467 30.96 41 32.08C40.2533 33.2 39.48 34.4267 38.68 35.76C39.48 36.72 40.3067 37.68 41.16 38.64C42.0133 39.6 42.8133 40.5867 43.56 41.6C44.2533 42.56 44.5467 43.5733 44.44 44.64C44.3867 45.6533 44.0133 46.5333 43.32 47.28C41.8267 48.9333 39.96 49.12 37.72 47.84C36.8133 47.36 35.9333 46.8267 35.08 46.24C34.2267 45.6 33.2667 44.9333 32.2 44.24C31.2933 45.2 30.3867 46.16 29.48 47.12C28.5733 48.0267 27.64 48.9333 26.68 49.84C26.1467 50.32 25.56 50.8 24.92 51.28C24.3333 51.7067 23.6933 51.9733 23 52.08C22.4133 52.1867 21.7467 52.16 21 52C20.2533 51.7867 19.5867 51.4933 19 51.12C18.2 50.5867 17.6933 49.8933 17.48 49.04C17.2667 48.1867 17.4 47.3333 17.88 46.48C18.36 45.5733 18.92 44.7467 19.56 44C20.2533 43.2 20.92 42.4 21.56 41.6C23 39.7333 24.44 37.8667 25.88 36C27.32 34.1333 28.7333 32.2667 30.12 30.4C30.28 30.1867 30.3333 29.92 30.28 29.6C30.28 29.2267 30.3333 28.7467 30.44 28.16C28.4667 27.68 26.4933 27.5733 24.52 27.84C22.5467 28.0533 20.5733 28.2667 18.6 28.48C17.16 28.5867 15.6933 28.7733 14.2 29.04C12.76 29.2533 11.32 29.4133 9.88 29.52C8.54667 29.5733 7.42667 29.1733 6.52 28.32C5.61333 27.4667 5.13333 26.48 5.08 25.36C5.02667 24.3467 5.32 23.4133 5.96 22.56C6.6 21.7067 7.48 21.1467 8.6 20.88C10.4667 20.4533 12.3333 20.0533 14.2 19.68C16.12 19.3067 18.1733 18.9067 20.36 18.48C20.4133 17.7333 20.4667 16.96 20.52 16.16C20.6267 15.3067 20.7333 14.48 20.84 13.68C20.9467 12.7733 20.9733 11.8667 20.92 10.96C20.92 10.0533 21.1333 9.25333 21.56 8.56C21.9333 7.86666 22.4667 7.22666 23.16 6.64C23.9067 6.05333 24.6533 5.68 25.4 5.52C26.3067 5.30666 27.1067 5.49333 27.8 6.08C28.5467 6.66666 29.0533 7.41333 29.32 8.32C29.7467 9.70666 30.0667 11.1467 30.28 12.64C30.5467 14.08 30.8667 15.6267 31.24 17.28ZM50.36 57.92C51.2133 57.92 52.2533 57.8933 53.48 57.84C54.7067 57.7867 55.9867 57.8133 57.32 57.92C59.9333 58.1867 61.9867 58.9867 63.48 60.32C65.0267 61.6533 65.88 63.6 66.04 66.16C66.2 69.0933 66.2267 72.0267 66.12 74.96C66.0667 77.8933 65.8533 80.8 65.48 83.68C65.1067 86.4533 64.2 88.4 62.76 89.52C61.3733 90.64 59.2933 91.28 56.52 91.44C54.28 91.5467 52.0667 91.6267 49.88 91.68C47.7467 91.7867 45.56 91.8133 43.32 91.76C40.92 91.7067 39.1867 91.28 38.12 90.48C37.0533 89.7333 36.3867 88.1867 36.12 85.84C35.2667 78.9067 34.7867 71.8933 34.68 64.8C34.6267 62.7733 35.1867 61.2533 36.36 60.24C37.5333 59.2267 39.24 58.6133 41.48 58.4C42.8133 58.24 44.1733 58.16 45.56 58.16C46.9467 58.1067 48.5467 58.0267 50.36 57.92ZM55.64 81.92C56.28 79.2 56.68 76.72 56.84 74.48C57.0533 72.1867 56.7067 69.92 55.8 67.68C54.2 67.52 52.92 67.4133 51.96 67.36C51.0533 67.2533 50.2267 67.2533 49.48 67.36C48.7867 67.4133 48.04 67.5467 47.24 67.76C46.4933 67.9733 45.48 68.2667 44.2 68.64C44.04 69.76 43.88 70.9067 43.72 72.08C43.6133 73.2 43.5867 74.32 43.64 75.44C43.7467 76.56 43.96 77.6533 44.28 78.72C44.6 79.84 45.16 80.9067 45.96 81.92H55.64ZM64.28 27.28C65.6133 27.7067 66.8933 28.1067 68.12 28.48C69.4 28.8533 70.6533 29.2533 71.88 29.68C72.7867 30.0533 73.4533 30.64 73.88 31.44C74.3067 32.1867 74.4667 33.0133 74.36 33.92C74.2533 34.9333 73.88 35.7333 73.24 36.32C72.6533 36.9067 71.9067 37.28 71 37.44C69.9867 37.6 68.9467 37.7067 67.88 37.76C66.8133 37.8133 65.64 37.8933 64.36 38C64.0933 39.28 63.8533 40.5333 63.64 41.76C63.48 42.9867 63.2133 44.2133 62.84 45.44C62.5733 46.3467 62.0667 47.0667 61.32 47.6C60.6267 48.1333 59.8 48.4 58.84 48.4C57.88 48.4 57.0533 48.1333 56.36 47.6C55.6667 47.0667 55.16 46.3467 54.84 45.44C54.36 44 54.1467 42.5867 54.2 41.2C54.2533 37.36 54.3067 33.5467 54.36 29.76C54.4133 25.92 54.4933 22.08 54.6 18.24C54.6533 17.6533 54.7067 17.0933 54.76 16.56C54.8667 15.9733 55.0267 15.3867 55.24 14.8C55.56 13.8933 56.04 13.1733 56.68 12.64C57.32 12.1067 58.1467 11.8667 59.16 11.92C61.2933 12.0267 62.5733 13.04 63 14.96C63.2133 16.1333 63.3467 17.3067 63.4 18.48C63.4533 19.6 63.5333 20.7467 63.64 21.92C63.7467 22.8267 63.8533 23.7067 63.96 24.56C64.0667 25.4133 64.1733 26.32 64.28 27.28ZM112.502 47.2C112.395 50.6667 111.569 53.7867 110.022 56.56C108.529 59.3333 106.155 61.6267 102.902 63.44C99.7552 65.1467 96.6619 65.92 93.6219 65.76C90.5819 65.5467 87.5685 64.5067 84.5819 62.64C81.5419 60.6133 79.4619 57.8667 78.3419 54.4C77.8085 52.64 77.5685 50.72 77.6219 48.64C77.7285 46.5067 78.1019 44.4 78.7419 42.32C79.3819 40.24 80.2352 38.2933 81.3019 36.48C82.4219 34.6667 83.7019 33.2 85.1419 32.08C87.2752 30.4267 89.5419 29.4933 91.9419 29.28C94.3952 29.0667 96.8752 29.2533 99.3819 29.84C101.142 30.2667 102.795 31.0667 104.342 32.24C105.942 33.36 107.329 34.72 108.502 36.32C109.729 37.8667 110.689 39.6 111.382 41.52C112.075 43.3867 112.449 45.28 112.502 47.2ZM87.2219 47.12C87.0619 49.04 87.1952 50.6133 87.6219 51.84C88.1019 53.0667 88.9819 54.08 90.2619 54.88C92.9819 56.64 95.7019 56.6933 98.4219 55.04C99.9152 54.1333 101.035 53.0133 101.782 51.68C102.582 50.3467 102.982 48.9867 102.982 47.6C102.982 46.16 102.609 44.7733 101.862 43.44C101.169 42.0533 100.102 40.88 98.6619 39.92C96.8485 38.7467 95.0352 38.4 93.2219 38.88C91.4619 39.3067 90.0752 40.48 89.0619 42.4C88.6352 43.3067 88.2619 44.2133 87.9419 45.12C87.6752 45.9733 87.4352 46.64 87.2219 47.12ZM127.302 31.12C127.569 29.8933 127.782 28.7467 127.942 27.68C128.102 26.6133 128.395 25.6267 128.822 24.72C129.089 24.08 129.515 23.6 130.102 23.28C130.742 22.96 131.382 22.8 132.022 22.8C132.715 22.7467 133.355 22.88 133.942 23.2C134.582 23.52 135.035 24 135.302 24.64C136.262 26.6667 136.795 28.9067 136.902 31.36C137.009 34.72 137.062 38.08 137.062 41.44C137.062 44.8 137.115 48.1867 137.222 51.6C137.222 53.36 137.275 55.12 137.382 56.88C137.489 58.64 137.515 60.4 137.462 62.16C137.409 63.1733 137.275 64.1867 137.062 65.2C136.902 66.2133 136.689 67.2267 136.422 68.24C136.155 69.1467 135.649 69.84 134.902 70.32C134.209 70.8 133.355 70.9867 132.342 70.88C131.382 70.8267 130.555 70.5333 129.862 70C129.222 69.4667 128.795 68.72 128.582 67.76C128.369 66.9067 128.235 66.0533 128.182 65.2C128.182 64.3467 128.129 63.4667 128.022 62.56C127.915 61.44 127.835 60.2933 127.782 59.12C127.729 57.9467 127.649 56.6933 127.542 55.36C126.315 55.2533 125.169 55.1733 124.102 55.12C123.089 55.0667 122.075 54.9867 121.062 54.88C119.622 54.6667 118.475 54.16 117.622 53.36C116.769 52.56 116.342 51.6267 116.342 50.56C116.342 48.3733 117.915 46.9067 121.062 46.16C121.915 45.9467 122.769 45.7867 123.622 45.68C124.529 45.5733 125.382 45.3867 126.182 45.12C126.449 45.0133 126.662 44.72 126.822 44.24C127.035 43.7067 127.329 43.0667 127.702 42.32C126.155 42.2133 124.715 42.1067 123.382 42C122.102 41.8933 120.822 41.7867 119.542 41.68C118.315 41.52 117.302 41.12 116.502 40.48C115.755 39.7867 115.329 38.96 115.222 38C115.115 36.9867 115.329 36.0267 115.862 35.12C116.395 34.2133 117.195 33.5733 118.262 33.2C119.649 32.7733 121.062 32.4267 122.502 32.16C123.995 31.84 125.595 31.4933 127.302 31.12ZM159.832 76.56C157.006 76.6133 154.552 76.2133 152.472 75.36C150.392 74.4533 148.739 73.2533 147.512 71.76C146.286 70.2133 145.539 68.4267 145.272 66.4C145.006 64.3733 145.272 62.24 146.072 60C146.499 58.7733 147.059 57.6 147.752 56.48C148.446 55.36 149.192 54.2667 149.992 53.2C150.792 52.24 151.726 51.44 152.792 50.8C153.859 50.1067 155.006 49.6 156.232 49.28C157.459 48.96 158.712 48.8267 159.992 48.88C161.272 48.9333 162.472 49.1733 163.592 49.6C166.366 50.6667 168.686 52.1867 170.552 54.16C172.419 56.08 173.619 58.56 174.152 61.6C174.366 62.7733 174.339 63.9467 174.072 65.12C173.859 66.2933 173.459 67.44 172.872 68.56C172.286 69.6267 171.512 70.6133 170.552 71.52C169.592 72.4267 168.526 73.2 167.352 73.84C165.966 74.5867 164.552 75.1733 163.112 75.6C161.672 75.9733 160.579 76.2933 159.832 76.56ZM159.272 68.16C159.699 67.8933 160.392 67.5733 161.352 67.2C162.312 66.8267 163.272 66.32 164.232 65.68C164.606 65.4133 164.899 64.9867 165.112 64.4C165.326 63.76 165.432 63.1733 165.432 62.64C165.432 61.4133 164.952 60.32 163.992 59.36C163.032 58.3467 161.832 57.7067 160.392 57.44C158.152 56.96 156.446 57.76 155.272 59.84C154.792 60.5333 154.392 61.3067 154.072 62.16C153.379 63.76 153.459 65.1733 154.312 66.4C155.219 67.5733 156.872 68.16 159.272 68.16ZM195.272 48.72C196.499 48.9867 197.592 49.2533 198.552 49.52C199.566 49.7333 200.579 49.92 201.592 50.08C202.499 50.1867 203.379 50.2667 204.232 50.32C205.086 50.32 205.939 50.4 206.792 50.56C207.966 50.7733 208.952 51.28 209.752 52.08C210.552 52.8267 210.926 53.6267 210.872 54.48C210.872 55.3867 210.446 56.24 209.592 57.04C208.739 57.7867 207.752 58.16 206.632 58.16C204.872 58.16 203.139 58.1067 201.432 58C199.726 57.8933 198.046 57.7867 196.392 57.68C195.859 58.32 195.486 58.9867 195.272 59.68C195.112 60.32 195.032 60.9867 195.032 61.68C195.032 62.32 195.086 62.96 195.192 63.6C195.299 64.24 195.379 64.88 195.432 65.52C195.486 66.96 195.539 68.4267 195.592 69.92C195.699 71.36 195.646 72.8 195.432 74.24C195.326 74.7733 194.979 75.3067 194.392 75.84C193.806 76.3733 193.219 76.7733 192.632 77.04C192.259 77.2 191.832 77.2267 191.352 77.12C190.926 77.0667 190.499 76.9067 190.072 76.64C189.699 76.4267 189.352 76.1333 189.032 75.76C188.766 75.3867 188.606 74.9867 188.552 74.56C188.179 72.3733 187.832 70.2133 187.512 68.08C187.192 65.9467 186.979 63.7867 186.872 61.6C186.712 57.92 186.659 54.2667 186.712 50.64C186.766 47.0133 186.792 43.36 186.792 39.68V37.92C187.112 34.6667 188.339 32.9067 190.472 32.64C191.592 32.48 192.552 32.9067 193.352 33.92C194.206 34.9333 194.686 36.32 194.792 38.08C194.952 39.7867 195.032 41.52 195.032 43.28C195.086 45.04 195.166 46.8533 195.272 48.72ZM161.912 34.48C163.619 34.3733 165.086 34.2667 166.312 34.16C167.539 34.0533 168.739 34.0533 169.912 34.16C170.926 34.2133 171.912 34.3467 172.872 34.56C173.886 34.72 174.846 35.0133 175.752 35.44C176.286 35.7067 176.712 36.2133 177.032 36.96C177.406 37.6533 177.646 38.32 177.752 38.96C177.912 39.76 177.726 40.4 177.192 40.88C176.659 41.36 176.019 41.7333 175.272 42C175.006 42.1067 174.712 42.1867 174.392 42.24C174.126 42.2933 173.859 42.3467 173.592 42.4C169.166 42.6133 164.766 42.8267 160.392 43.04C156.072 43.2 151.699 43.3333 147.272 43.44C146.579 43.4933 145.859 43.4933 145.112 43.44C144.366 43.3333 143.699 43.0933 143.112 42.72C142.526 42.4 142.019 41.92 141.592 41.28C141.166 40.64 140.899 40.0267 140.792 39.44C140.632 38.64 140.792 37.9733 141.272 37.44C141.752 36.8533 142.392 36.4533 143.192 36.24C144.739 35.8667 146.286 35.5467 147.832 35.28C149.432 34.96 151.139 34.6133 152.952 34.24C152.792 33.0667 152.632 32 152.472 31.04C152.312 30.0267 152.206 29.0133 152.152 28C152.099 27.1467 152.072 26.2933 152.072 25.44C152.126 24.5333 152.232 23.6533 152.392 22.8C152.552 21.8933 152.952 21.1467 153.592 20.56C154.286 19.92 155.086 19.5733 155.992 19.52C157.006 19.4667 157.806 19.76 158.392 20.4C159.032 21.04 159.486 21.8133 159.752 22.72C160.019 23.4133 160.152 24.1333 160.152 24.88C160.152 25.5733 160.206 26.2933 160.312 27.04C160.526 28.16 160.766 29.3067 161.032 30.48C161.299 31.6533 161.592 32.9867 161.912 34.48ZM235.316 41.76C234.036 40.5333 232.569 39.76 230.916 39.44C229.316 39.12 227.689 38.8267 226.036 38.56C224.649 38.2933 223.262 38.08 221.876 37.92C220.489 37.7067 219.102 37.4133 217.716 37.04C216.489 36.72 215.529 36.08 214.836 35.12C214.196 34.16 214.009 33.1467 214.276 32.08C214.436 31.1733 214.916 30.4 215.716 29.76C216.516 29.0667 217.449 28.72 218.516 28.72C222.036 28.8267 225.502 29.1733 228.916 29.76C232.382 30.3467 235.716 31.4133 238.916 32.96C241.476 34.1867 243.289 35.7867 244.356 37.76C245.476 39.7333 245.662 42.0267 244.916 44.64C243.849 48.5867 242.676 52.48 241.396 56.32C240.116 60.1067 238.782 63.92 237.396 67.76C236.969 69.04 236.222 69.92 235.156 70.4C234.089 70.88 233.049 70.9333 232.036 70.56C230.969 70.1867 230.142 69.4933 229.556 68.48C228.969 67.4133 228.836 66.2933 229.156 65.12C229.902 62.56 230.702 60.0267 231.556 57.52C232.462 55.0133 233.316 52.48 234.116 49.92C234.329 49.28 234.569 48.64 234.836 48C235.102 47.3067 235.316 46.64 235.476 46C235.689 45.3067 235.796 44.6133 235.796 43.92C235.796 43.2267 235.636 42.5067 235.316 41.76ZM260.676 50.32C260.676 47.76 260.649 45.2267 260.596 42.72C260.596 40.2133 260.622 37.68 260.676 35.12C260.729 34.2667 260.782 33.44 260.836 32.64C260.889 31.7867 261.049 30.96 261.316 30.16C261.529 29.52 261.902 29.0133 262.436 28.64C262.969 28.2667 263.529 28.0533 264.116 28C264.756 27.8933 265.369 27.9467 265.956 28.16C266.596 28.3733 267.102 28.7467 267.476 29.28C267.956 29.92 268.356 30.6667 268.676 31.52C268.996 32.32 269.182 33.0933 269.236 33.84C269.502 39.4933 269.716 45.12 269.876 50.72C270.036 56.2667 270.142 61.8667 270.196 67.52C270.249 69.9733 269.849 71.76 268.996 72.88C268.196 73.9467 267.102 74.4267 265.716 74.32C264.329 74.16 263.289 73.52 262.596 72.4C261.902 71.2267 261.502 69.4667 261.396 67.12C261.289 64.2933 261.209 61.4933 261.156 58.72C261.102 55.9467 261.022 53.1467 260.916 50.32H260.676Z" fill="#E5E091"/>
<path d="M31.24 17.28L26.3628 18.3813L27.0938 21.6187L30.361 22.2021L31.24 17.28ZM35.08 17.84L35.5775 12.8648L35.5775 12.8648L35.08 17.84ZM38.2 18.4L39.5071 13.5739L39.4898 13.5692L39.4725 13.5646L38.2 18.4ZM43.32 22.24L38.7726 24.3188L38.7841 24.344L38.7959 24.369L43.32 22.24ZM42.92 28.64L38.3716 26.5635L38.3682 26.571L42.92 28.64ZM41 32.08L36.8397 29.3065L36.8397 29.3065L41 32.08ZM38.68 35.76L34.3925 33.1875L32.5654 36.2327L34.8389 38.9609L38.68 35.76ZM41.16 38.64L44.897 35.3182L44.897 35.3182L41.16 38.64ZM43.56 41.6L47.6134 38.6725L47.5994 38.6532L47.5853 38.634L43.56 41.6ZM44.44 44.64L39.4648 44.1425L39.4531 44.2596L39.4469 44.3772L44.44 44.64ZM43.32 47.28L39.656 43.8777L39.6326 43.903L39.6095 43.9286L43.32 47.28ZM37.72 47.84L40.2007 43.4988L40.1307 43.4588L40.0594 43.4211L37.72 47.84ZM35.08 46.24L32.08 50.24L32.1624 50.3018L32.2474 50.3602L35.08 46.24ZM32.2 44.24L34.9249 40.0478L31.4284 37.775L28.5649 40.8069L32.2 44.24ZM29.48 47.12L33.0155 50.6555L33.066 50.605L33.1151 50.5531L29.48 47.12ZM26.68 49.84L30.0248 53.5565L30.0695 53.5163L30.1131 53.4751L26.68 49.84ZM24.92 51.28L27.8609 55.3237L27.8906 55.3021L27.92 55.28L24.92 51.28ZM23 52.08L22.2397 47.1381L22.1725 47.1485L22.1056 47.1606L23 52.08ZM21 52L19.6264 56.8076L19.788 56.8538L19.9524 56.889L21 52ZM19 51.12L16.2265 55.2803L16.2708 55.3098L16.3156 55.3383L19 51.12ZM17.48 49.04L22.3307 47.8273L22.3307 47.8273L17.48 49.04ZM17.88 46.48L22.2379 48.9313L22.2691 48.8758L22.2989 48.8194L17.88 46.48ZM19.56 44L15.7816 40.7253L15.7726 40.7357L15.7637 40.746L19.56 44ZM21.56 41.6L25.4643 44.7235L25.4919 44.689L25.5189 44.654L21.56 41.6ZM25.88 36L29.8389 39.054L29.8389 39.054L25.88 36ZM30.12 30.4L26.12 27.4L26.1131 27.4092L26.1063 27.4184L30.12 30.4ZM30.28 29.6H25.28V30.0138L25.348 30.422L30.28 29.6ZM30.44 28.16L35.3594 29.0544L36.2027 24.4159L31.6218 23.3017L30.44 28.16ZM24.52 27.84L25.0574 32.811L25.1236 32.8039L25.1896 32.795L24.52 27.84ZM18.6 28.48L18.9694 33.4663L19.0535 33.4601L19.1374 33.451L18.6 28.48ZM14.2 29.04L14.9327 33.986L15.006 33.9752L15.079 33.9621L14.2 29.04ZM9.88 29.52L10.0798 34.516L10.1647 34.5126L10.2494 34.5063L9.88 29.52ZM6.52 28.32L3.09317 31.961L3.09318 31.961L6.52 28.32ZM5.08 25.36L10.0743 25.1222L10.0737 25.1097L10.0731 25.0972L5.08 25.36ZM5.96 22.56L1.96 19.56L1.96 19.56L5.96 22.56ZM8.6 20.88L7.48587 16.0057L7.46386 16.0107L7.4419 16.016L8.6 20.88ZM14.2 19.68L13.2457 14.7719L13.2325 14.7745L13.2194 14.7771L14.2 19.68ZM20.36 18.48L21.3176 23.3874L25.0746 22.6544L25.3473 18.8362L20.36 18.48ZM20.52 16.16L15.5586 15.5398L15.5407 15.6832L15.5311 15.8274L20.52 16.16ZM20.84 13.68L25.7961 14.3408L25.8012 14.3025L25.8058 14.2642L20.84 13.68ZM20.92 10.96H15.92V11.1069L15.9286 11.2536L20.92 10.96ZM21.56 8.56L25.8183 11.1805L25.8939 11.0576L25.9624 10.9305L21.56 8.56ZM23.16 6.64L20.0709 2.7084L19.9996 2.76446L19.9303 2.82306L23.16 6.64ZM25.4 5.52L26.4477 10.409L26.4965 10.3985L26.5452 10.3871L25.4 5.52ZM27.8 6.08L24.5703 9.89692L24.6395 9.95553L24.7109 10.0116L27.8 6.08ZM29.32 8.32L24.5232 9.73083L24.532 9.76069L24.5411 9.79043L29.32 8.32ZM30.28 12.64L25.3303 13.3471L25.3448 13.4491L25.3636 13.5504L30.28 12.64ZM50.36 57.92V52.92H50.2131L50.0664 52.9286L50.36 57.92ZM57.32 57.92L57.8276 52.9458L57.7732 52.9403L57.7187 52.9359L57.32 57.92ZM63.48 60.32L60.1499 64.0497L60.1824 64.0787L60.2153 64.1071L63.48 60.32ZM66.04 66.16L71.0326 65.8877L71.0315 65.8679L71.0303 65.8481L66.04 66.16ZM66.12 74.96L61.1233 74.7783L61.1217 74.8237L61.1208 74.8691L66.12 74.96ZM65.48 83.68L70.4353 84.3471L70.4369 84.3349L70.4385 84.3228L65.48 83.68ZM62.76 89.52L59.6903 85.5732L59.654 85.6014L59.6183 85.6303L62.76 89.52ZM56.52 91.44L56.7578 96.4343L56.7829 96.4331L56.808 96.4317L56.52 91.44ZM49.88 91.68L49.7581 86.6815L49.6942 86.683L49.6303 86.6862L49.88 91.68ZM43.32 91.76L43.439 86.7614L43.4311 86.7612L43.32 91.76ZM38.12 90.48L41.12 86.48L41.0544 86.4308L40.9873 86.3838L38.12 90.48ZM36.12 85.84L41.088 85.2754L41.0854 85.2523L41.0826 85.2292L36.12 85.84ZM34.68 64.8L39.6794 64.7248L39.679 64.6966L39.6783 64.6685L34.68 64.8ZM36.36 60.24L39.6281 64.0241L39.6281 64.0241L36.36 60.24ZM41.48 58.4L41.954 63.3775L42.015 63.3717L42.0757 63.3644L41.48 58.4ZM45.56 58.16V63.16H45.6561L45.7522 63.1563L45.56 58.16ZM55.64 81.92V86.92H59.6001L60.5071 83.0652L55.64 81.92ZM56.84 74.48L51.8615 74.0169L51.8565 74.0703L51.8527 74.1238L56.84 74.48ZM55.8 67.68L60.4347 65.804L59.3019 63.0053L56.2975 62.7048L55.8 67.68ZM51.96 67.36L51.3758 72.3258L51.5288 72.3438L51.6827 72.3523L51.96 67.36ZM49.48 67.36L49.8635 72.3453L50.0259 72.3328L50.1871 72.3097L49.48 67.36ZM47.24 67.76L45.9517 62.9288L45.9089 62.9402L45.8664 62.9524L47.24 67.76ZM44.2 68.64L42.8 63.84L39.706 64.7424L39.2503 67.9329L44.2 68.64ZM43.72 72.08L38.7659 71.4044L38.7521 71.505L38.7425 71.6059L43.72 72.08ZM43.64 75.44L38.6457 75.6778L38.6513 75.7961L38.6625 75.914L43.64 75.44ZM44.28 78.72L49.0876 77.3464L49.0786 77.3148L49.0691 77.2833L44.28 78.72ZM45.96 81.92L42.0356 85.0182L43.537 86.92H45.96V81.92ZM64.28 27.28L59.3106 27.8321L59.6686 31.0541L62.7561 32.0421L64.28 27.28ZM68.12 28.48L66.6642 33.2634L66.6921 33.2718L66.72 33.28L68.12 28.48ZM71.88 29.68L73.7838 25.0566L73.6546 25.0034L73.5226 24.9575L71.88 29.68ZM73.88 31.44L69.4682 33.7929L69.5026 33.8573L69.5388 33.9207L73.88 31.44ZM74.36 33.92L69.3943 33.3358L69.3907 33.3662L69.3875 33.3966L74.36 33.92ZM73.24 36.32L69.8614 32.6342L69.7813 32.7076L69.7045 32.7845L73.24 36.32ZM71 37.44L71.7798 42.3788L71.8244 42.3718L71.8689 42.3639L71 37.44ZM67.88 37.76L68.1297 42.7538L68.1297 42.7538L67.88 37.76ZM64.36 38L63.9448 33.0173L60.2262 33.3272L59.4651 36.9802L64.36 38ZM63.64 41.76L58.7139 40.9033L58.6957 41.008L58.682 41.1133L63.64 41.76ZM62.84 45.44L58.0566 43.9842L58.0498 44.0066L58.0432 44.0292L62.84 45.44ZM61.32 47.6L58.4138 43.5313L58.3417 43.5828L58.2714 43.6369L61.32 47.6ZM54.84 45.44L50.0966 47.0211L50.1105 47.0627L50.125 47.1041L54.84 45.44ZM54.2 41.2L59.1963 41.3922L59.1987 41.3308L59.1995 41.2694L54.2 41.2ZM54.36 29.76L59.3595 29.8304L59.3595 29.8294L54.36 29.76ZM54.6 18.24L49.6205 17.7873L49.6063 17.9439L49.6019 18.1012L54.6 18.24ZM54.76 16.56L49.8407 15.6656L49.8048 15.8629L49.7848 16.0625L54.76 16.56ZM55.24 14.8L59.939 16.5087L59.9471 16.4864L59.955 16.4641L55.24 14.8ZM56.68 12.64L59.8809 16.4811L59.8809 16.4811L56.68 12.64ZM59.16 11.92L58.8972 16.9131L58.9103 16.9138L59.16 11.92ZM63 14.96L67.9194 14.0656L67.902 13.9701L67.8809 13.8753L63 14.96ZM63.4 18.48L58.4051 18.707L58.4057 18.7178L63.4 18.48ZM63.64 21.92L58.6605 22.3727L58.6665 22.4385L58.6743 22.5042L63.64 21.92ZM63.96 24.56L68.9214 23.9398L68.9214 23.9398L63.96 24.56ZM30.361 22.2021C31.9336 22.4829 33.3478 22.6917 34.5825 22.8152L35.5775 12.8648C34.6788 12.7749 33.5331 12.6104 32.119 12.3579L30.361 22.2021ZM34.5825 22.8152C35.3936 22.8963 36.1742 23.0371 36.9275 23.2354L39.4725 13.5646C38.1991 13.2295 36.8998 12.997 35.5775 12.8648L34.5825 22.8152ZM36.8929 23.2261C38.4696 23.6532 38.7085 24.1785 38.7726 24.3188L47.8674 20.1612C46.2248 16.5681 43.0504 14.5335 39.5071 13.5739L36.8929 23.2261ZM38.7959 24.369C38.8258 24.4324 39.1044 24.9583 38.3716 26.5635L47.4684 30.7165C48.9756 27.415 49.5209 23.6742 47.8441 20.111L38.7959 24.369ZM38.3682 26.571C37.951 27.4887 37.4437 28.4005 36.8397 29.3065L45.1603 34.8535C46.0496 33.5195 46.8223 32.1379 47.4718 30.709L38.3682 26.571ZM36.8397 29.3065C36.043 30.5017 35.2273 31.7963 34.3925 33.1875L42.9675 38.3325C43.7328 37.057 44.4637 35.8983 45.1603 34.8535L36.8397 29.3065ZM34.8389 38.9609C35.6739 39.9629 36.5353 40.9632 37.423 41.9618L44.897 35.3182C44.0781 34.3968 43.2861 33.4771 42.5211 32.5591L34.8389 38.9609ZM37.423 41.9618C38.1769 42.81 38.8805 43.6781 39.5347 44.566L47.5853 38.634C46.7462 37.4952 45.8498 36.39 44.897 35.3182L37.423 41.9618ZM39.5066 44.5275C39.5579 44.5985 39.5285 44.5785 39.4972 44.4703C39.4823 44.4188 39.4706 44.3596 39.465 44.2969C39.4594 44.2344 39.4609 44.1814 39.4648 44.1425L49.4152 45.1375C49.6565 42.7244 48.9415 40.5115 47.6134 38.6725L39.5066 44.5275ZM39.4469 44.3772C39.449 44.3382 39.4626 44.2358 39.5171 44.1072C39.5715 43.979 39.6342 43.9013 39.656 43.8777L46.984 50.6823C48.4708 49.081 49.3179 47.0913 49.4331 44.9028L39.4469 44.3772ZM39.6095 43.9286C39.5515 43.9928 39.5845 43.9383 39.7284 43.8595C39.8844 43.7741 40.0871 43.7064 40.3025 43.6848C40.7272 43.6423 40.7487 43.8119 40.2007 43.4988L35.2393 52.1812C36.9313 53.1481 39.0061 53.8643 41.2975 53.6352C43.6914 53.3958 45.6168 52.1966 47.0305 50.6314L39.6095 43.9286ZM40.0594 43.4211C39.3244 43.0319 38.609 42.5985 37.9126 42.1198L32.2474 50.3602C33.2577 51.0548 34.3023 51.6881 35.3806 52.2589L40.0594 43.4211ZM38.08 42.24C37.1221 41.5216 36.0682 40.7909 34.9249 40.0478L29.4751 48.4322C30.4651 49.0758 31.3312 49.6784 32.08 50.24L38.08 42.24ZM28.5649 40.8069C27.6583 41.7669 26.7516 42.7269 25.8449 43.6869L33.1151 50.5531C34.0217 49.5931 34.9284 48.6331 35.8351 47.6731L28.5649 40.8069ZM25.9445 43.5845C25.0724 44.4565 24.1733 45.33 23.2469 46.2049L30.1131 53.4751C31.1067 52.5367 32.0742 51.5968 33.0155 50.6555L25.9445 43.5845ZM23.3352 46.1235C22.9242 46.4934 22.4542 46.8793 21.92 47.28L27.92 55.28C28.6658 54.7207 29.3691 54.1466 30.0248 53.5565L23.3352 46.1235ZM21.9791 47.2363C21.987 47.2306 22.0202 47.2082 22.0769 47.1846C22.1343 47.1607 22.1918 47.1455 22.2397 47.1381L23.7603 57.0219C25.269 56.7897 26.6521 56.2028 27.8609 55.3237L21.9791 47.2363ZM22.1056 47.1606C22.2128 47.1412 22.2694 47.1444 22.2598 47.144C22.249 47.1436 22.181 47.1396 22.0476 47.111L19.9524 56.889C21.1664 57.1492 22.5118 57.2507 23.8944 56.9993L22.1056 47.1606ZM22.3736 47.1924C22.0367 47.0961 21.8205 46.9883 21.6844 46.9017L16.3156 55.3383C17.3528 55.9983 18.47 56.4772 19.6264 56.8076L22.3736 47.1924ZM21.7735 46.9597C21.8044 46.9803 21.9246 47.0688 22.057 47.2499C22.1938 47.4372 22.2847 47.6433 22.3307 47.8273L12.6293 50.2527C13.1734 52.4293 14.4961 54.1266 16.2265 55.2803L21.7735 46.9597ZM22.3307 47.8273C22.3832 48.0373 22.3986 48.2853 22.3601 48.5319C22.3231 48.7686 22.2519 48.9063 22.2379 48.9313L13.5221 44.0287C12.4927 45.8588 12.07 48.0157 12.6293 50.2527L22.3307 47.8273ZM22.2989 48.8194C22.6133 48.2256 22.9672 47.7079 23.3563 47.254L15.7637 40.746C14.8728 41.7854 14.1067 42.9211 13.4611 44.1406L22.2989 48.8194ZM23.3384 47.2746C24.0733 46.4267 24.782 45.5764 25.4643 44.7235L17.6557 38.4765C17.058 39.2236 16.4334 39.9733 15.7816 40.7253L23.3384 47.2746ZM25.5189 44.654C26.9589 42.7873 28.3989 40.9207 29.8389 39.054L21.9211 32.946C20.4811 34.8126 19.0411 36.6793 17.6011 38.546L25.5189 44.654ZM29.8389 39.054C31.2971 37.1637 32.7288 35.2729 34.1337 33.3816L26.1063 27.4184C24.7379 29.2604 23.3429 31.103 21.9211 32.946L29.8389 39.054ZM34.12 33.4C35.2727 31.8631 35.4377 30.1325 35.212 28.778L25.348 30.422C25.2938 30.0969 25.2645 29.6227 25.3771 29.0594C25.4939 28.4756 25.743 27.9027 26.12 27.4L34.12 33.4ZM35.28 29.6C35.28 29.6421 35.2776 29.6189 35.2894 29.5122C35.3008 29.4096 35.3221 29.2594 35.3594 29.0544L25.5207 27.2656C25.388 27.9951 25.28 28.8039 25.28 29.6H35.28ZM31.6218 23.3017C29.055 22.6773 26.4539 22.5332 23.8504 22.885L25.1896 32.795C26.5328 32.6134 27.8783 32.6827 29.2582 33.0183L31.6218 23.3017ZM23.9826 22.869C22.0093 23.0823 20.0359 23.2956 18.0626 23.509L19.1374 33.451C21.1107 33.2377 23.0841 33.0244 25.0574 32.811L23.9826 22.869ZM18.2306 23.4937C16.6114 23.6136 14.9746 23.8226 13.321 24.1179L15.079 33.9621C16.4121 33.7241 17.7086 33.5597 18.9694 33.4663L18.2306 23.4937ZM13.4673 24.094C12.1469 24.2896 10.8281 24.4361 9.51065 24.5337L10.2494 34.5063C11.8119 34.3906 13.3731 34.2171 14.9327 33.986L13.4673 24.094ZM9.68016 24.524C9.57546 24.5282 9.60945 24.5112 9.72168 24.5513C9.77351 24.5698 9.8246 24.5945 9.86984 24.6225C9.91455 24.6501 9.93999 24.6726 9.94682 24.679L3.09318 31.961C5.05295 33.8055 7.51157 34.6187 10.0798 34.516L9.68016 24.524ZM9.94683 24.679C9.8762 24.6125 9.91759 24.6322 9.97618 24.7527C10.0042 24.8102 10.0291 24.8767 10.0471 24.9479C10.065 25.0187 10.0723 25.079 10.0743 25.1222L0.0856595 25.5978C0.207685 28.1604 1.35624 30.3262 3.09317 31.961L9.94683 24.679ZM10.0731 25.0972C10.0766 25.164 10.0689 25.2754 10.03 25.3991C9.99217 25.5194 9.94916 25.5744 9.96 25.56L1.96 19.56C0.6558 21.2989 -0.0313531 23.3758 0.0869111 25.6228L10.0731 25.0972ZM9.96 25.56C9.9466 25.5779 9.92339 25.6054 9.88972 25.6367C9.85589 25.6681 9.8196 25.6959 9.78437 25.7183C9.70897 25.7663 9.68338 25.7618 9.7581 25.744L7.4419 16.016C5.28291 16.53 3.35812 17.6958 1.96 19.56L9.96 25.56ZM9.71413 25.7543C11.5367 25.3377 13.3588 24.9473 15.1806 24.5829L13.2194 14.7771C11.3078 15.1594 9.39666 15.569 7.48587 16.0057L9.71413 25.7543ZM15.1543 24.5881C17.0755 24.2145 19.13 23.8143 21.3176 23.3874L19.4024 13.5725C17.2167 13.999 15.1645 14.3988 13.2457 14.7719L15.1543 24.5881ZM25.3473 18.8362C25.4012 18.0812 25.4551 17.2999 25.5089 16.4926L15.5311 15.8274C15.4782 16.6201 15.4254 17.3855 15.3727 18.1238L25.3473 18.8362ZM25.4814 16.7802C25.5865 15.9395 25.6914 15.1264 25.7961 14.3408L15.8839 13.0192C15.7753 13.8336 15.6669 14.6738 15.5586 15.5398L25.4814 16.7802ZM25.8058 14.2642C25.9465 13.0678 25.982 11.8674 25.9114 10.6664L15.9286 11.2536C15.9646 11.866 15.9468 12.4789 15.8742 13.0958L25.8058 14.2642ZM25.92 10.96C25.92 10.9007 25.9266 10.9103 25.9112 10.9683C25.8948 11.0298 25.864 11.1062 25.8183 11.1805L17.3017 5.93951C16.3363 7.50831 15.92 9.23636 15.92 10.96H25.92ZM25.9624 10.9305C25.997 10.8662 26.102 10.7004 26.3897 10.4569L19.9303 2.82306C18.8314 3.75293 17.8697 4.86708 17.1576 6.1895L25.9624 10.9305ZM26.2491 10.5716C26.5395 10.3434 26.6044 10.3754 26.4477 10.409L24.3523 0.630986C22.7023 0.984579 21.2738 1.76326 20.0709 2.7084L26.2491 10.5716ZM26.5452 10.3871C26.3494 10.4331 25.9892 10.4731 25.5438 10.3692C25.0938 10.2642 24.7634 10.0603 24.5703 9.89692L31.0297 2.26308C29.0909 0.622512 26.6574 0.0876046 24.2548 0.652911L26.5452 10.3871ZM24.7109 10.0116C24.7003 10.0032 24.6535 9.96252 24.6026 9.8875C24.5516 9.81229 24.529 9.75072 24.5232 9.73083L34.1168 6.90917C33.5553 5.00005 32.449 3.37407 30.8891 2.1484L24.7109 10.0116ZM24.5411 9.79043C24.888 10.9178 25.1524 12.1021 25.3303 13.3471L35.2297 11.9329C34.9809 10.1913 34.6053 8.4955 34.0989 6.84956L24.5411 9.79043ZM25.3636 13.5504C25.6437 15.0633 25.9773 16.6742 26.3628 18.3813L36.1172 16.1787C35.756 14.5791 35.4496 13.0967 35.1964 11.7296L25.3636 13.5504ZM50.36 62.92C51.3095 62.92 52.4266 62.8905 53.6972 62.8353L53.2628 52.8447C52.0801 52.8961 51.1172 52.92 50.36 52.92V62.92ZM53.6972 62.8353C54.7013 62.7916 55.7749 62.8124 56.9213 62.9041L57.7187 52.9359C56.1985 52.8143 54.7121 52.7817 53.2628 52.8447L53.6972 62.8353ZM56.8124 62.8942C58.7028 63.0871 59.656 63.6087 60.1499 64.0497L66.8101 56.5903C64.3173 54.3647 61.1638 53.2863 57.8276 52.9458L56.8124 62.8942ZM60.2153 64.1071C60.4958 64.3488 60.9509 64.8912 61.0497 66.4719L71.0303 65.8481C70.8091 62.3088 69.5575 58.9578 66.7447 56.5329L60.2153 64.1071ZM61.0474 66.4323C61.1992 69.2146 61.2245 71.9964 61.1233 74.7783L71.1167 75.1417C71.2289 72.0569 71.2008 68.9721 71.0326 65.8877L61.0474 66.4323ZM61.1208 74.8691C61.0708 77.6198 60.8709 80.3422 60.5215 83.0372L70.4385 84.3228C70.8358 81.2578 71.0625 78.1669 71.1192 75.0509L61.1208 74.8691ZM60.5247 83.0129C60.3861 84.0423 60.1746 84.7072 59.9875 85.109C59.897 85.3032 59.8192 85.4211 59.7692 85.4865C59.7209 85.5495 59.6931 85.571 59.6903 85.5732L65.8297 93.4668C68.74 91.2032 69.9783 87.7416 70.4353 84.3471L60.5247 83.0129ZM59.6183 85.6303C59.384 85.8196 58.5048 86.3172 56.232 86.4483L56.808 96.4317C60.0819 96.2428 63.3627 95.4604 65.9017 93.4097L59.6183 85.6303ZM56.2822 86.4457C54.0798 86.5505 51.9051 86.6291 49.7581 86.6815L50.0019 96.6785C52.2282 96.6242 54.4802 96.5428 56.7578 96.4343L56.2822 86.4457ZM49.6303 86.6862C47.6256 86.7865 45.5621 86.812 43.439 86.7614L43.201 96.7586C45.558 96.8147 47.8678 96.7869 50.1297 96.6738L49.6303 86.6862ZM43.4311 86.7612C42.4802 86.7401 41.8292 86.6469 41.4151 86.5449C40.9923 86.4409 40.9663 86.3647 41.12 86.48L35.12 94.48C37.4606 96.2355 40.4962 96.6985 43.2089 96.7588L43.4311 86.7612ZM40.9873 86.3838C41.4069 86.6776 41.4837 86.948 41.4116 86.7809C41.333 86.5985 41.1864 86.1411 41.088 85.2754L31.152 86.4046C31.4583 89.1005 32.3491 92.5437 35.2527 94.5762L40.9873 86.3838ZM41.0826 85.2292C40.2514 78.4764 39.7835 71.6419 39.6794 64.7248L29.6806 64.8752C29.7899 72.1448 30.2819 79.337 31.1574 86.4508L41.0826 85.2292ZM39.6783 64.6685C39.6642 64.1353 39.7384 63.9046 39.7517 63.8685C39.7571 63.854 39.7502 63.8765 39.7215 63.9184C39.6922 63.9613 39.6578 63.9985 39.6281 64.0241L33.0919 56.4559C30.4555 58.7327 29.602 61.902 29.6817 64.9315L39.6783 64.6685ZM39.6281 64.0241C39.7345 63.9322 40.3007 63.5349 41.954 63.3775L41.006 53.4225C38.1793 53.6917 35.3321 54.5211 33.0919 56.4559L39.6281 64.0241ZM42.0757 63.3644C43.2051 63.2289 44.366 63.16 45.56 63.16V53.16C43.9807 53.16 42.4216 53.2511 40.8843 53.4356L42.0757 63.3644ZM45.7522 63.1563C47.1811 63.1013 48.8161 63.0195 50.6536 62.9114L50.0664 52.9286C48.2772 53.0339 46.7122 53.112 45.3678 53.1637L45.7522 63.1563ZM60.5071 83.0652C61.194 80.1457 61.6444 77.397 61.8273 74.8362L51.8527 74.1238C51.7156 76.043 51.366 78.2544 50.7729 80.7748L60.5071 83.0652ZM61.8185 74.9431C62.1096 71.8144 61.6261 68.7474 60.4347 65.804L51.1653 69.556C51.7872 71.0926 51.9971 72.5589 51.8615 74.0169L61.8185 74.9431ZM56.2975 62.7048C54.6658 62.5416 53.3032 62.4269 52.2374 62.3677L51.6827 72.3523C52.5368 72.3998 53.7342 72.4984 55.3025 72.6552L56.2975 62.7048ZM52.5442 62.3942C51.2949 62.2473 50.0261 62.2312 48.7729 62.4103L50.1871 72.3097C50.4273 72.2754 50.8118 72.2594 51.3758 72.3258L52.5442 62.3942ZM49.0965 62.3747C48.0463 62.4555 46.9938 62.6509 45.9517 62.9288L48.5283 72.5912C49.0862 72.4424 49.5271 72.3712 49.8635 72.3453L49.0965 62.3747ZM45.8664 62.9524C45.1069 63.1694 44.0835 63.4656 42.8 63.84L45.6 73.44C46.8765 73.0677 47.8798 72.7773 48.6136 72.5676L45.8664 62.9524ZM39.2503 67.9329C39.0887 69.0639 38.9272 70.2211 38.7659 71.4044L48.6742 72.7556C48.8328 71.5923 48.9913 70.4561 49.1497 69.3471L39.2503 67.9329ZM38.7425 71.6059C38.6134 72.9617 38.581 74.3196 38.6457 75.6778L48.6343 75.2022C48.5924 74.3204 48.6133 73.4383 48.6975 72.5541L38.7425 71.6059ZM38.6625 75.914C38.7999 77.357 39.0757 78.7729 39.4909 80.1567L49.0691 77.2833C48.8443 76.5338 48.6934 75.763 48.6175 74.966L38.6625 75.914ZM39.4724 80.0936C39.99 81.9052 40.8754 83.5486 42.0356 85.0182L49.8844 78.8218C49.4446 78.2647 49.21 77.7748 49.0876 77.3464L39.4724 80.0936ZM45.96 86.92H55.64V76.92H45.96V86.92ZM62.7561 32.0421C64.1101 32.4754 65.4128 32.8825 66.6642 33.2634L69.5758 23.6966C68.3738 23.3308 67.1166 22.9379 65.8039 22.5179L62.7561 32.0421ZM66.72 33.28C67.9206 33.6302 69.093 34.0044 70.2374 34.4025L73.5226 24.9575C72.2136 24.5022 70.8794 24.0765 69.52 23.68L66.72 33.28ZM69.9762 34.3034C69.9712 34.3013 69.8796 34.2616 69.7569 34.1536C69.6301 34.042 69.5313 33.9113 69.4682 33.7929L78.2918 29.0871C77.2723 27.1756 75.6709 25.8337 73.7838 25.0566L69.9762 34.3034ZM69.5388 33.9207C69.4862 33.8287 69.4374 33.7061 69.4111 33.5701C69.3854 33.4372 69.3925 33.3509 69.3943 33.3358L79.3258 34.5042C79.5492 32.605 79.2122 30.6936 78.2212 28.9593L69.5388 33.9207ZM69.3875 33.3966C69.3834 33.4355 69.3884 33.3385 69.4691 33.1656C69.555 32.9816 69.6897 32.7916 69.8614 32.6342L76.6186 40.0058C78.3105 38.4549 79.1216 36.4471 79.3325 34.4434L69.3875 33.3966ZM69.7045 32.7845C69.7935 32.6954 69.8996 32.62 70.0039 32.5679C70.104 32.5178 70.1577 32.5114 70.1311 32.5161L71.8689 42.3639C73.6701 42.0461 75.3846 41.2465 76.7755 39.8555L69.7045 32.7845ZM70.2202 32.5012C69.3895 32.6323 68.5267 32.7214 67.6303 32.7662L68.1297 42.7538C69.3667 42.6919 70.5839 42.5676 71.7798 42.3788L70.2202 32.5012ZM67.6303 32.7662C66.4987 32.8228 65.2693 32.9069 63.9448 33.0173L64.7752 42.9827C66.0107 42.8798 67.128 42.8038 68.1297 42.7538L67.6303 32.7662ZM59.4651 36.9802C59.1877 38.3117 58.9372 39.6195 58.7139 40.9033L68.5661 42.6167C68.7695 41.4472 68.999 40.2483 69.2549 39.0198L59.4651 36.9802ZM58.682 41.1133C58.559 42.0561 58.3524 43.0123 58.0566 43.9842L67.6234 46.8958C68.0743 45.4143 68.401 43.9172 68.598 42.4067L58.682 41.1133ZM58.0432 44.0292C58.0527 43.9968 58.0875 43.9012 58.171 43.7825C58.2555 43.6624 58.3481 43.5782 58.4138 43.5313L64.2262 51.6687C65.9114 50.4649 67.065 48.7952 67.6368 46.8508L58.0432 44.0292ZM58.2714 43.6369C58.3766 43.556 58.508 43.4857 58.645 43.4415C58.7768 43.3989 58.8533 43.4 58.84 43.4V53.4C60.7888 53.4 62.715 52.8351 64.3686 51.5631L58.2714 43.6369ZM58.84 43.4C58.8268 43.4 58.9032 43.3989 59.035 43.4415C59.172 43.4857 59.3034 43.556 59.4086 43.6369L53.3115 51.5631C54.965 52.8351 56.8912 53.4 58.84 53.4V43.4ZM59.4086 43.6369C59.4337 43.6562 59.4605 43.6799 59.4865 43.7071C59.5126 43.7343 59.5335 43.7604 59.549 43.7825C59.5818 43.8291 59.5767 43.8374 59.555 43.7759L50.125 47.1041C50.7335 48.8282 51.7769 50.3827 53.3115 51.5631L59.4086 43.6369ZM59.5834 43.8589C59.2759 42.9363 59.1682 42.1233 59.1963 41.3922L49.2037 41.0078C49.1252 43.05 49.4441 45.0637 50.0966 47.0211L59.5834 43.8589ZM59.1995 41.2694C59.2528 37.4298 59.3062 33.6168 59.3595 29.8304L49.3605 29.6896C49.3072 33.4766 49.2538 37.2902 49.2005 41.1306L59.1995 41.2694ZM59.3595 29.8294C59.4125 26.0126 59.4921 22.1957 59.5981 18.3788L49.6019 18.1012C49.4946 21.9643 49.4141 25.8274 49.3605 29.6906L59.3595 29.8294ZM59.5795 18.6927C59.6316 18.1195 59.6835 17.5745 59.7352 17.0575L49.7848 16.0625C49.7299 16.6121 49.6751 17.1871 49.6205 17.7873L59.5795 18.6927ZM59.6794 17.4544C59.7333 17.1575 59.8174 16.843 59.939 16.5087L50.541 13.0913C50.2359 13.9304 50 14.7891 49.8407 15.6656L59.6794 17.4544ZM59.955 16.4641C59.9919 16.3594 60.0144 16.3323 60.0003 16.3535C59.9934 16.3637 59.9798 16.3826 59.9583 16.4067C59.9366 16.4309 59.9106 16.4564 59.8809 16.4811L53.4791 8.79888C52.0469 9.99236 51.0977 11.5134 50.525 13.1359L59.955 16.4641ZM59.8809 16.4811C59.6536 16.6706 59.4002 16.7961 59.1741 16.8617C58.9633 16.9229 58.8521 16.9107 58.8972 16.9131L59.4228 6.92691C57.4399 6.82255 55.2887 7.29089 53.4791 8.79889L59.8809 16.4811ZM58.9103 16.9138C59.2558 16.931 59.0116 16.9931 58.6165 16.6802C58.4268 16.5301 58.2869 16.3568 58.1983 16.2045C58.1153 16.0619 58.1067 15.989 58.1191 16.0447L67.8809 13.8753C67.4714 12.0323 66.5385 10.1974 64.8235 8.83977C63.1484 7.5136 61.1975 7.01563 59.4097 6.92623L58.9103 16.9138ZM58.0807 15.8544C58.2545 16.8106 58.3622 17.761 58.4052 18.707L68.3948 18.253C68.3312 16.8523 68.1722 15.456 67.9194 14.0656L58.0807 15.8544ZM58.4057 18.7178C58.4626 19.913 58.5477 21.1314 58.6605 22.3727L68.6195 21.4673C68.519 20.3619 68.4441 19.2869 68.3943 18.2422L58.4057 18.7178ZM58.6743 22.5042C58.7822 23.4221 58.8904 24.3142 58.9986 25.1802L68.9214 23.9398C68.8163 23.0992 68.7111 22.2312 68.6058 21.3358L58.6743 22.5042ZM58.9986 25.1802C59.1021 26.0083 59.2061 26.8921 59.3106 27.8321L69.2494 26.7278C69.1405 25.7479 69.0312 24.8184 68.9214 23.9398L58.9986 25.1802ZM112.502 47.2L117.5 47.3538L117.504 47.2075L117.5 47.0612L112.502 47.2ZM110.022 56.56L105.655 54.1247L105.637 54.1569L105.62 54.1895L110.022 56.56ZM102.902 63.44L105.286 67.8352L105.311 67.8214L105.336 67.8074L102.902 63.44ZM93.6219 65.76L93.2719 70.7477L93.3154 70.7508L93.3591 70.7531L93.6219 65.76ZM84.5819 62.64L81.8084 66.8003L81.8695 66.841L81.9319 66.88L84.5819 62.64ZM78.3419 54.4L73.5568 55.85L73.57 55.8937L73.584 55.9372L78.3419 54.4ZM77.6219 48.64L72.6281 48.3903L72.6251 48.451L72.6235 48.5118L77.6219 48.64ZM78.7419 42.32L73.963 40.8496L73.963 40.8496L78.7419 42.32ZM81.3019 36.48L77.0479 33.8525L77.0195 33.8984L76.9922 33.9449L81.3019 36.48ZM85.1419 32.08L82.079 28.1279L82.0722 28.1332L85.1419 32.08ZM91.9419 29.28L91.5087 24.2988L91.4992 24.2996L91.9419 29.28ZM99.3819 29.84L100.56 24.9807L100.541 24.9761L100.521 24.9716L99.3819 29.84ZM104.342 32.24L101.32 36.2235L101.396 36.2813L101.475 36.3362L104.342 32.24ZM108.502 36.32L104.47 39.2768L104.526 39.353L104.584 39.427L108.502 36.32ZM111.382 41.52L106.679 43.2182L106.687 43.2396L106.695 43.2609L111.382 41.52ZM87.2219 47.12L82.6528 45.0893L82.3094 45.8621L82.2391 46.7048L87.2219 47.12ZM87.6219 51.84L82.8994 53.4826L82.9308 53.5729L82.9657 53.662L87.6219 51.84ZM90.2619 54.88L92.9781 50.6821L92.9452 50.6608L92.9119 50.64L90.2619 54.88ZM98.4219 55.04L95.827 50.7661L95.8248 50.7674L98.4219 55.04ZM101.782 51.68L97.4944 49.1075L97.4559 49.1717L97.4193 49.237L101.782 51.68ZM101.862 43.44L97.3897 45.6761L97.4421 45.7808L97.4993 45.883L101.862 43.44ZM98.6619 39.92L101.435 35.7597L101.407 35.7408L101.378 35.7221L98.6619 39.92ZM93.2219 38.88L94.3999 43.7392L94.4507 43.7269L94.5013 43.7135L93.2219 38.88ZM89.0619 42.4L84.6399 40.0662L84.5865 40.1674L84.5378 40.271L89.0619 42.4ZM87.9419 45.12L83.2269 43.4559L83.1966 43.5417L83.1695 43.6286L87.9419 45.12ZM127.302 31.12L128.37 36.0045L131.506 35.3186L132.188 32.1822L127.302 31.12ZM127.942 27.68L122.997 26.9383L122.997 26.9383L127.942 27.68ZM128.822 24.72L133.346 26.849L133.394 26.7471L133.437 26.6431L128.822 24.72ZM130.102 23.28L127.866 18.8079L127.786 18.8478L127.708 18.8905L130.102 23.28ZM132.022 22.8V27.8H132.214L132.405 27.7853L132.022 22.8ZM133.942 23.2L131.548 27.5895L131.626 27.6322L131.706 27.6721L133.942 23.2ZM135.302 24.64L130.686 26.5631L130.732 26.6729L130.783 26.7804L135.302 24.64ZM136.902 31.36L141.899 31.2013L141.898 31.1721L141.897 31.1428L136.902 31.36ZM137.222 51.6H142.222V51.5219L142.219 51.4438L137.222 51.6ZM137.382 56.88L142.373 56.5775L142.373 56.5775L137.382 56.88ZM137.462 62.16L142.455 62.4228L142.458 62.3671L142.46 62.3114L137.462 62.16ZM137.062 65.2L132.169 64.1699L132.143 64.2945L132.123 64.4202L137.062 65.2ZM136.422 68.24L141.219 69.6508L141.239 69.5819L141.257 69.5125L136.422 68.24ZM134.902 70.32L132.198 66.1141L132.126 66.1604L132.056 66.209L134.902 70.32ZM132.342 70.88L132.865 65.9075L132.743 65.8945L132.619 65.8877L132.342 70.88ZM129.862 70L126.661 73.8411L126.736 73.9036L126.813 73.9631L129.862 70ZM128.582 67.76L133.463 66.6753L133.449 66.6111L133.433 66.5473L128.582 67.76ZM128.182 65.2H123.182V65.3561L123.192 65.5119L128.182 65.2ZM128.022 62.56L123.044 63.034L123.05 63.0892L123.056 63.1442L128.022 62.56ZM127.542 55.36L132.526 54.9613L132.189 50.7452L127.975 50.3788L127.542 55.36ZM124.102 55.12L123.839 60.1131L123.852 60.1138L124.102 55.12ZM121.062 54.88L120.329 59.826L120.434 59.8415L120.538 59.8525L121.062 54.88ZM117.622 53.36L114.202 57.0077L114.202 57.0077L117.622 53.36ZM121.062 46.16L122.216 51.0249L122.245 51.018L122.275 51.0107L121.062 46.16ZM123.622 45.68L123.038 40.7142L123.02 40.7164L123.002 40.7186L123.622 45.68ZM126.182 45.12L127.763 49.8634L127.902 49.817L128.039 49.7624L126.182 45.12ZM126.822 44.24L122.179 42.383L122.125 42.5195L122.078 42.6589L126.822 44.24ZM127.702 42.32L132.174 44.5561L135.528 37.8479L128.046 37.3318L127.702 42.32ZM123.382 42L122.967 46.9827L122.975 46.9834L122.983 46.9841L123.382 42ZM119.542 41.68L118.895 46.638L119.011 46.6531L119.127 46.6627L119.542 41.68ZM116.502 40.48L113.1 44.144L113.235 44.2693L113.378 44.3843L116.502 40.48ZM115.222 38L110.249 38.5234L110.251 38.5378L110.252 38.5521L115.222 38ZM115.862 35.12L111.552 32.5849L111.552 32.5849L115.862 35.12ZM118.262 33.2L116.791 28.4211L116.7 28.4492L116.61 28.4807L118.262 33.2ZM122.502 32.16L123.412 37.0764L123.481 37.0637L123.55 37.049L122.502 32.16ZM107.504 47.0462C107.42 49.7881 106.777 52.1133 105.655 54.1247L114.389 58.9953C116.36 55.46 117.371 51.5452 117.5 47.3538L107.504 47.0462ZM105.62 54.1895C104.655 55.9801 103.042 57.6376 100.468 59.0726L105.336 67.8074C109.268 65.6157 112.402 62.6866 114.424 58.9305L105.62 54.1895ZM100.518 59.0448C98.0373 60.3903 95.853 60.8705 93.8847 60.7669L93.3591 70.7531C97.4708 70.9695 101.473 69.903 105.286 67.8352L100.518 59.0448ZM93.9719 60.7723C91.8671 60.6246 89.6333 59.9009 87.2319 58.4L81.9319 66.88C85.5038 69.1124 89.2966 70.4688 93.2719 70.7477L93.9719 60.7723ZM87.3554 58.4797C85.2508 57.0767 83.8719 55.253 83.0997 52.8628L73.584 55.9372C75.0518 60.4803 77.833 64.15 81.8084 66.8003L87.3554 58.4797ZM83.127 52.95C82.7675 51.7635 82.5788 50.3833 82.6202 48.7682L72.6235 48.5118C72.5583 51.0567 72.8496 53.5165 73.5568 55.85L83.127 52.95ZM82.6156 48.8897C82.7012 47.1784 83.0004 45.4815 83.5208 43.7904L73.963 40.8496C73.2033 43.3185 72.7559 45.8349 72.6281 48.3903L82.6156 48.8897ZM83.5208 43.7904C84.0503 42.0695 84.7489 40.4816 85.6115 39.0151L76.9922 33.9449C75.7215 36.105 74.7135 38.4105 73.963 40.8496L83.5208 43.7904ZM85.5559 39.1075C86.4145 37.7172 87.3136 36.7252 88.2116 36.0268L82.0722 28.1332C80.0901 29.6748 78.4292 31.6161 77.0479 33.8525L85.5559 39.1075ZM88.2047 36.0321C89.675 34.8926 91.0502 34.379 92.3846 34.2604L91.4992 24.2996C88.0336 24.6077 84.8754 25.9607 82.079 28.1279L88.2047 36.0321ZM92.375 34.2612C94.2779 34.0957 96.2272 34.2368 98.2425 34.7084L100.521 24.9716C97.5233 24.2699 94.5125 24.0376 91.5087 24.2988L92.375 34.2612ZM98.2039 34.6992C99.2484 34.9525 100.281 35.4354 101.32 36.2235L107.364 28.2565C105.309 26.6979 103.035 25.5809 100.56 24.9807L98.2039 34.6992ZM101.475 36.3362C102.619 37.1376 103.615 38.1106 104.47 39.2768L112.534 33.3632C111.042 31.3294 109.264 29.5824 107.209 28.1438L101.475 36.3362ZM104.584 39.427C105.463 40.5353 106.163 41.7897 106.679 43.2182L116.085 39.8218C115.214 37.4103 113.994 35.1981 112.419 33.213L104.584 39.427ZM106.695 43.2609C107.204 44.6333 107.466 45.9863 107.504 47.3388L117.5 47.0612C117.431 44.5737 116.946 42.1401 116.069 39.7791L106.695 43.2609ZM82.2391 46.7048C82.0467 49.014 82.1597 51.3561 82.8994 53.4826L92.3444 50.1974C92.2307 49.8706 92.077 49.066 92.2046 47.5352L82.2391 46.7048ZM82.9657 53.662C83.8928 56.0314 85.5592 57.8371 87.6119 59.12L92.9119 50.64C92.4045 50.3229 92.3109 50.1019 92.2781 50.018L82.9657 53.662ZM87.5456 59.0779C89.5362 60.3659 91.7892 61.1909 94.2439 61.239C96.7048 61.2873 98.9881 60.547 101.019 59.3126L95.8248 50.7674C95.1356 51.1863 94.6989 51.246 94.4399 51.241C94.1745 51.2358 93.7075 51.1541 92.9781 50.6821L87.5456 59.0779ZM101.017 59.3139C103.14 58.0246 104.919 56.3111 106.144 54.123L97.4193 49.237C97.1514 49.7155 96.6901 50.242 95.827 50.7661L101.017 59.3139ZM106.069 54.2525C107.278 52.2387 107.982 49.9993 107.982 47.6H97.9819C97.9819 47.974 97.8862 48.4546 97.4944 49.1075L106.069 54.2525ZM107.982 47.6C107.982 45.2519 107.363 43.0294 106.224 40.997L97.4993 45.883C97.8545 46.5172 97.9819 47.0681 97.9819 47.6H107.982ZM106.334 41.2039C105.208 38.9514 103.513 37.145 101.435 35.7597L95.8884 44.0802C96.6904 44.615 97.1293 45.1552 97.3897 45.6761L106.334 41.2039ZM101.378 35.7221C98.5791 33.911 95.3294 33.1499 91.9424 34.0465L94.5013 43.7135C94.7411 43.6501 95.1179 43.5823 95.9456 44.1178L101.378 35.7221ZM92.0439 34.0207C88.614 34.8522 86.1771 37.1536 84.6399 40.0662L93.4838 44.7338C93.9733 43.8064 94.3097 43.7611 94.3999 43.7392L92.0439 34.0207ZM84.5378 40.271C84.0427 41.323 83.605 42.3847 83.2269 43.4559L92.6568 46.7841C92.9188 46.042 93.2277 45.2903 93.586 44.529L84.5378 40.271ZM83.1695 43.6286C82.9264 44.4064 82.7527 44.8647 82.6528 45.0893L91.7909 49.1507C92.1178 48.4153 92.424 47.5402 92.7143 46.6114L83.1695 43.6286ZM132.188 32.1822C132.474 30.866 132.708 29.6115 132.887 28.4217L122.997 26.9383C122.856 27.8819 122.663 28.9206 122.416 30.0578L132.188 32.1822ZM132.887 28.4217C132.98 27.7989 133.141 27.2839 133.346 26.849L124.298 22.591C123.649 23.9695 123.224 25.4278 122.997 26.9383L132.887 28.4217ZM133.437 26.6431C133.374 26.794 133.262 26.9957 133.079 27.2018C132.894 27.4097 132.688 27.5649 132.496 27.6695L127.708 18.8905C126.082 19.7775 124.893 21.1485 124.206 22.7969L133.437 26.6431ZM132.338 27.7521C132.359 27.7416 132.337 27.7551 132.275 27.7707C132.21 27.7868 132.123 27.8 132.022 27.8V17.8C130.518 17.8 129.117 18.1821 127.866 18.8079L132.338 27.7521ZM132.405 27.7853C132.312 27.7924 132.172 27.7902 132.002 27.7549C131.831 27.7192 131.675 27.6592 131.548 27.5895L136.336 18.8105C134.865 18.0081 133.255 17.6904 131.638 17.8147L132.405 27.7853ZM131.706 27.6721C131.546 27.5923 131.334 27.453 131.127 27.2331C130.917 27.0114 130.774 26.7732 130.686 26.5631L139.917 22.7169C139.173 20.931 137.854 19.5657 136.178 18.7279L131.706 27.6721ZM130.783 26.7804C131.432 28.1491 131.826 29.7266 131.907 31.5772L141.897 31.1428C141.764 28.0867 141.092 25.1842 139.821 22.4996L130.783 26.7804ZM131.904 31.5187C132.009 34.8258 132.062 38.1329 132.062 41.44H142.062C142.062 38.0271 142.008 34.6142 141.899 31.2013L131.904 31.5187ZM132.062 41.44C132.062 44.8529 132.116 48.2916 132.224 51.7562L142.219 51.4438C142.114 48.0817 142.062 44.7471 142.062 41.44H132.062ZM132.222 51.6C132.222 53.4611 132.278 55.322 132.391 57.1825L142.373 56.5775C142.272 54.918 142.222 53.2589 142.222 51.6H132.222ZM132.391 57.1825C132.489 58.7916 132.513 60.4001 132.464 62.0086L142.46 62.3114C142.518 60.3999 142.489 58.4884 142.373 56.5775L132.391 57.1825ZM132.469 61.8972C132.429 62.6473 132.33 63.4042 132.169 64.1699L141.955 66.2301C142.22 64.9691 142.388 63.6993 142.455 62.4228L132.469 61.8972ZM132.123 64.4202C131.99 65.2642 131.811 66.1131 131.587 66.9675L141.257 69.5125C141.566 68.3402 141.814 67.1625 142.001 65.9798L132.123 64.4202ZM131.625 66.8292C131.638 66.7849 131.686 66.6532 131.805 66.4899C131.927 66.3227 132.071 66.1957 132.198 66.1141L137.606 74.5259C139.432 73.3518 140.637 71.6295 141.219 69.6508L131.625 66.8292ZM132.056 66.209C132.265 66.0644 132.486 65.9765 132.673 65.9355C132.848 65.8973 132.927 65.9139 132.865 65.9075L131.818 75.8525C133.763 76.0572 135.876 75.727 137.748 74.431L132.056 66.209ZM132.619 65.8877C132.57 65.885 132.597 65.8806 132.674 65.9079C132.755 65.9365 132.839 65.9822 132.91 66.0369L126.813 73.9631C128.384 75.1717 130.202 75.7689 132.065 75.8723L132.619 65.8877ZM133.063 66.1589C133.216 66.2864 133.33 66.4318 133.403 66.5593C133.471 66.679 133.476 66.7345 133.463 66.6753L123.701 68.8447C124.109 70.6819 125.025 72.478 126.661 73.8411L133.063 66.1589ZM133.433 66.5473C133.291 65.9809 133.206 65.4289 133.172 64.8881L123.192 65.5119C123.264 66.6777 123.446 67.8324 123.731 68.9727L133.433 66.5473ZM133.182 65.2C133.182 64.1384 133.116 63.063 132.988 61.9758L123.056 63.1442C123.142 63.8703 123.182 64.5549 123.182 65.2H133.182ZM132.999 62.086C132.901 61.0516 132.826 59.9874 132.777 58.893L122.787 59.347C122.844 60.5992 122.93 61.8284 123.044 63.034L132.999 62.086ZM132.777 58.893C132.72 57.6551 132.637 56.3441 132.526 54.9613L122.558 55.7587C122.661 57.0426 122.737 58.2382 122.787 59.347L132.777 58.893ZM127.975 50.3788C126.696 50.2676 125.488 50.1831 124.352 50.1262L123.852 60.1138C124.849 60.1636 125.934 60.2391 127.109 60.3412L127.975 50.3788ZM124.365 50.1269C123.439 50.0782 122.512 50.0051 121.585 49.9075L120.538 59.8525C121.638 59.9683 122.738 60.0552 123.839 60.1131L124.365 50.1269ZM121.795 49.934C121.449 49.8828 121.246 49.812 121.143 49.7666C121.047 49.7245 121.029 49.7004 121.042 49.7123L114.202 57.0077C115.962 58.6577 118.13 59.5003 120.329 59.826L121.795 49.934ZM121.042 49.7123C121.023 49.6953 121.117 49.7797 121.209 49.9812C121.306 50.1928 121.342 50.4049 121.342 50.56H111.342C111.342 53.1503 112.449 55.3639 114.202 57.0077L121.042 49.7123ZM121.342 50.56C121.342 50.6254 121.327 50.8051 121.229 51.0327C121.13 51.2621 121.002 51.4109 120.931 51.4773C120.873 51.5317 120.905 51.4827 121.12 51.382C121.336 51.2807 121.687 51.1505 122.216 51.0249L119.907 41.2951C117.883 41.7755 115.775 42.6133 114.112 44.1627C112.292 45.8594 111.342 48.1059 111.342 50.56H121.342ZM122.275 51.0107C122.937 50.845 123.593 50.7226 124.242 50.6414L123.002 40.7186C121.944 40.8508 120.893 41.0483 119.849 41.3093L122.275 51.0107ZM124.206 50.6458C125.424 50.5025 126.614 50.2465 127.763 49.8634L124.601 40.3766C124.15 40.5268 123.633 40.6442 123.038 40.7142L124.206 50.6458ZM128.039 49.7624C130.418 48.8108 131.276 46.6904 131.565 45.8211L122.078 42.6589C122.102 42.5892 122.21 42.2749 122.498 41.8791C122.801 41.4627 123.38 40.8554 124.325 40.4776L128.039 49.7624ZM131.464 46.097C131.609 45.7355 131.838 45.2289 132.174 44.5561L123.23 40.0839C122.819 40.9044 122.462 41.6778 122.179 42.383L131.464 46.097ZM128.046 37.3318C126.515 37.2262 125.093 37.1209 123.781 37.0159L122.983 46.9841C124.337 47.0924 125.796 47.2004 127.358 47.3081L128.046 37.3318ZM123.797 37.0173C122.517 36.9106 121.237 36.8039 119.957 36.6973L119.127 46.6627C120.407 46.7694 121.687 46.8761 122.967 46.9827L123.797 37.0173ZM120.189 36.722C119.929 36.6881 119.775 36.6396 119.698 36.6092C119.626 36.5808 119.612 36.5648 119.625 36.5757L113.378 44.3843C115.027 45.7036 116.951 46.3844 118.895 46.638L120.189 36.722ZM119.904 36.816C119.914 36.8253 119.989 36.8998 120.065 37.0468C120.143 37.1975 120.18 37.3438 120.191 37.4478L110.252 38.5521C110.499 40.773 111.527 42.6835 113.1 44.144L119.904 36.816ZM120.194 37.4766C120.195 37.4785 120.196 37.4939 120.195 37.5199C120.193 37.5461 120.189 37.5753 120.183 37.6046C120.176 37.6339 120.169 37.6553 120.164 37.6669C120.16 37.6783 120.16 37.6744 120.172 37.6551L111.552 32.5849C110.495 34.3819 110.027 36.4096 110.249 38.5234L120.194 37.4766ZM120.172 37.6551C120.157 37.679 120.134 37.7142 120.099 37.7547C120.064 37.7954 120.025 37.8327 119.985 37.8643C119.901 37.9316 119.859 37.9385 119.914 37.9193L116.61 28.4807C114.517 29.2134 112.732 30.5798 111.552 32.5849L120.172 37.6551ZM119.732 37.9789C120.933 37.6093 122.16 37.3084 123.412 37.0764L121.591 27.2436C119.964 27.545 118.364 27.9373 116.791 28.4211L119.732 37.9789ZM123.55 37.049C125.051 36.7273 126.658 36.3791 128.37 36.0045L126.233 26.2355C124.533 26.6075 122.94 26.9527 121.454 27.271L123.55 37.049ZM159.832 76.56L159.927 81.5591L160.744 81.5437L161.514 81.2687L159.832 76.56ZM152.472 75.36L150.475 79.9435L150.524 79.9652L150.575 79.9858L152.472 75.36ZM147.512 71.76L143.595 74.867L143.622 74.9006L143.649 74.9337L147.512 71.76ZM145.272 66.4L150.23 65.7477L150.23 65.7477L145.272 66.4ZM146.072 60L150.781 61.6817L150.788 61.6622L150.795 61.6426L146.072 60ZM147.752 56.48L152.004 59.1118L152.004 59.1118L147.752 56.48ZM149.992 53.2L146.151 49.9991L146.069 50.0975L145.992 50.2L149.992 53.2ZM152.792 50.8L155.365 55.0875L155.442 55.0412L155.517 54.9922L152.792 50.8ZM156.232 49.28L154.97 44.4419L154.97 44.4419L156.232 49.28ZM159.992 48.88L159.784 53.8757L159.784 53.8757L159.992 48.88ZM163.592 49.6L165.387 44.9333L165.38 44.9304L165.372 44.9276L163.592 49.6ZM170.552 54.16L166.92 57.596L166.944 57.6209L166.968 57.6454L170.552 54.16ZM174.152 61.6L169.228 62.464L169.23 62.4792L169.233 62.4944L174.152 61.6ZM174.072 65.12L169.197 64.0119L169.173 64.1183L169.153 64.2256L174.072 65.12ZM172.872 68.56L177.254 70.9696L177.278 70.9251L177.302 70.88L172.872 68.56ZM170.552 71.52L167.119 67.8849L167.119 67.8849L170.552 71.52ZM167.352 73.84L169.723 78.2424L169.735 78.2359L169.747 78.2295L167.352 73.84ZM163.112 75.6L164.367 80.44L164.451 80.4184L164.533 80.394L163.112 75.6ZM159.272 68.16V73.16H160.706L161.922 72.4L159.272 68.16ZM161.352 67.2L163.165 71.86L163.165 71.86L161.352 67.2ZM164.232 65.68L167.006 69.8403L167.073 69.7955L167.139 69.7487L164.232 65.68ZM165.112 64.4L169.811 66.1087L169.835 66.0452L169.856 65.9811L165.112 64.4ZM163.992 59.36L160.363 62.7987L160.409 62.8478L160.457 62.8955L163.992 59.36ZM160.392 57.44L159.345 62.329L159.413 62.3437L159.482 62.3564L160.392 57.44ZM155.272 59.84L159.383 62.6861L159.514 62.4969L159.627 62.2966L155.272 59.84ZM154.072 62.16L158.66 64.148L158.71 64.033L158.754 63.9156L154.072 62.16ZM154.312 66.4L150.208 69.2553L150.279 69.3581L150.356 69.4572L154.312 66.4ZM195.272 48.72L190.281 49.0053L190.497 52.7987L194.21 53.6059L195.272 48.72ZM198.552 49.52L197.214 54.3376L197.367 54.3801L197.522 54.4127L198.552 49.52ZM201.592 50.08L200.813 55.0188L200.91 55.0342L201.008 55.0458L201.592 50.08ZM204.232 50.32L203.921 55.3103L204.076 55.32H204.232V50.32ZM206.792 50.56L205.871 55.4744L205.885 55.4769L205.898 55.4793L206.792 50.56ZM209.752 52.08L206.217 55.6155L206.278 55.6765L206.341 55.7353L209.752 52.08ZM210.872 54.48L205.882 54.1681L205.872 54.3239V54.48H210.872ZM209.592 57.04L212.885 60.8029L212.95 60.7464L213.012 60.6877L209.592 57.04ZM196.392 57.68L196.714 52.6904L194.178 52.5268L192.551 54.4791L196.392 57.68ZM195.272 59.68L190.494 58.2096L190.454 58.3375L190.422 58.4673L195.272 59.68ZM195.192 63.6L190.261 64.422L190.261 64.422L195.192 63.6ZM195.432 65.52L200.429 65.3349L200.425 65.2197L200.415 65.1048L195.432 65.52ZM195.592 69.92L190.596 70.0985L190.599 70.194L190.606 70.2894L195.592 69.92ZM195.432 74.24L200.335 75.2206L200.36 75.0972L200.379 74.9727L195.432 74.24ZM194.392 75.84L191.029 72.1403L191.029 72.1403L194.392 75.84ZM192.632 77.04L194.602 81.6357L194.652 81.6143L194.702 81.5918L192.632 77.04ZM191.352 77.12L192.437 72.2391L192.207 72.1879L191.973 72.1586L191.352 77.12ZM190.072 76.64L192.723 72.4L192.639 72.3477L192.553 72.2988L190.072 76.64ZM189.032 75.76L184.964 78.6662L185.092 78.8461L185.236 79.014L189.032 75.76ZM188.552 74.56L193.514 73.9398L193.5 73.8288L193.481 73.7185L188.552 74.56ZM187.512 68.08L192.457 67.3383L192.457 67.3383L187.512 68.08ZM186.872 61.6L181.877 61.8172L181.878 61.8304L181.878 61.8436L186.872 61.6ZM186.712 50.64L181.713 50.5665L181.713 50.5665L186.712 50.64ZM186.792 37.92L181.817 37.4306L181.792 37.6747V37.92H186.792ZM190.472 32.64L191.093 37.6014L191.136 37.5959L191.18 37.5897L190.472 32.64ZM193.352 33.92L189.428 37.0182L189.477 37.0802L189.528 37.1407L193.352 33.92ZM194.792 38.08L189.802 38.3825L189.807 38.4647L189.814 38.5467L194.792 38.08ZM195.032 43.28H190.032V43.3557L190.035 43.4314L195.032 43.28ZM161.912 34.48L157.023 35.5276L157.926 39.7389L162.224 39.4703L161.912 34.48ZM166.312 34.16L166.746 39.1412L166.746 39.1412L166.312 34.16ZM169.912 34.16L169.46 39.1395L169.555 39.1481L169.65 39.1531L169.912 34.16ZM172.872 34.56L171.788 39.4409L171.939 39.4746L172.093 39.4988L172.872 34.56ZM175.752 35.44L177.989 30.9679L177.935 30.9412L177.881 30.9159L175.752 35.44ZM177.032 36.96L172.437 38.9296L172.525 39.1344L172.63 39.3305L177.032 36.96ZM177.752 38.96L172.821 39.782L172.834 39.8615L172.85 39.9406L177.752 38.96ZM177.192 40.88L180.537 44.5965L180.537 44.5965L177.192 40.88ZM175.272 42L173.591 37.2913L173.503 37.3228L173.416 37.3576L175.272 42ZM174.392 42.24L173.571 37.308L173.491 37.3213L173.412 37.3371L174.392 42.24ZM173.592 42.4L173.833 47.3942L174.207 47.3762L174.573 47.3029L173.592 42.4ZM160.392 43.04L160.578 48.0366L160.607 48.0355L160.636 48.0341L160.392 43.04ZM147.272 43.44L147.152 38.4415L147.02 38.4446L146.889 38.4547L147.272 43.44ZM145.112 43.44L144.405 48.3897L144.58 48.4147L144.756 48.4273L145.112 43.44ZM143.112 42.72L145.797 38.5017L145.655 38.4112L145.507 38.3305L143.112 42.72ZM140.792 39.44L145.712 38.5456L145.704 38.5024L145.695 38.4594L140.792 39.44ZM141.272 37.44L144.989 40.7848L145.068 40.6973L145.142 40.6062L141.272 37.44ZM143.192 36.24L142.019 31.3796L141.962 31.3935L141.904 31.4088L143.192 36.24ZM147.832 35.28L148.682 40.2073L148.748 40.196L148.813 40.1829L147.832 35.28ZM152.952 34.24L153.961 39.1373L158.538 38.1949L157.907 33.5644L152.952 34.24ZM152.472 31.04L147.534 31.8198L147.537 31.8409L147.541 31.862L152.472 31.04ZM152.152 28L157.146 27.7372L157.144 27.7126L157.143 27.6881L152.152 28ZM152.072 25.44L147.081 25.1464L147.072 25.2931V25.44H152.072ZM152.392 22.8L157.307 23.7214L157.312 23.6952L157.316 23.6689L152.392 22.8ZM153.592 20.56L156.971 24.2458L156.978 24.2399L156.984 24.234L153.592 20.56ZM155.992 19.52L155.73 14.5269L155.714 14.5277L155.699 14.5286L155.992 19.52ZM158.392 20.4L154.707 23.7786L154.78 23.8587L154.857 23.9355L158.392 20.4ZM159.752 22.72L154.956 24.1308L155.013 24.3255L155.086 24.5149L159.752 22.72ZM160.312 27.04L155.363 27.7471L155.379 27.8618L155.401 27.9756L160.312 27.04ZM161.032 30.48L156.157 31.5881L156.157 31.5881L161.032 30.48ZM159.738 71.5609C157.424 71.6045 155.679 71.2709 154.37 70.7342L150.575 79.9858C153.426 81.1558 156.587 81.6221 159.927 81.5591L159.738 71.5609ZM154.47 70.7765C152.989 70.1308 152.021 69.3709 151.376 68.5863L143.649 74.9337C145.458 77.1358 147.796 78.7758 150.475 79.9435L154.47 70.7765ZM151.43 68.653C150.786 67.8413 150.383 66.9105 150.23 65.7477L140.315 67.0523C140.696 69.9428 141.785 72.5853 143.595 74.867L151.43 68.653ZM150.23 65.7477C150.082 64.6272 150.204 63.2968 150.781 61.6817L141.364 58.3183C140.341 61.1832 139.929 64.1195 140.315 67.0523L150.23 65.7477ZM150.795 61.6426C151.1 60.7668 151.501 59.9248 152.004 59.1118L143.501 53.8482C142.618 55.2752 141.899 56.7798 141.35 58.3574L150.795 61.6426ZM152.004 59.1118C152.618 58.1197 153.281 57.1492 153.992 56.2L145.992 50.2C145.104 51.3842 144.274 52.6003 143.501 53.8482L152.004 59.1118ZM153.834 56.4009C154.276 55.8697 154.781 55.4376 155.365 55.0875L150.22 46.5125C148.67 47.4424 147.309 48.6103 146.151 49.9991L153.834 56.4009ZM155.517 54.9922C156.136 54.5902 156.789 54.3022 157.495 54.1181L154.97 44.4419C153.223 44.8978 151.582 45.6231 150.068 46.6078L155.517 54.9922ZM157.495 54.1181C158.237 53.9245 158.994 53.8427 159.784 53.8757L160.201 43.8843C158.431 43.8106 156.682 43.9955 154.97 44.4419L157.495 54.1181ZM159.784 53.8757C160.564 53.9081 161.229 54.0502 161.813 54.2724L165.372 44.9276C163.716 44.2964 161.981 43.9585 160.201 43.8843L159.784 53.8757ZM161.798 54.2667C163.941 55.091 165.613 56.2143 166.92 57.596L174.185 50.724C171.759 48.1591 168.791 46.2424 165.387 44.9333L161.798 54.2667ZM166.968 57.6454C168.032 58.7405 168.841 60.2571 169.228 62.464L179.077 60.736C178.398 56.8629 176.806 53.4195 174.137 50.6746L166.968 57.6454ZM169.233 62.4944C169.325 62.998 169.315 63.4902 169.197 64.0119L178.948 66.2281C179.363 64.4031 179.407 62.5486 179.072 60.7056L169.233 62.4944ZM169.153 64.2256C169.036 64.8725 168.81 65.5407 168.443 66.24L177.302 70.88C178.109 69.3393 178.683 67.7141 178.992 66.0144L169.153 64.2256ZM168.491 66.1504C168.175 66.7249 167.734 67.3049 167.119 67.8849L173.986 75.1551C175.291 73.9218 176.396 72.5284 177.254 70.9696L168.491 66.1504ZM167.119 67.8849C166.476 68.4929 165.759 69.0138 164.958 69.4505L169.747 78.2295C171.293 77.3862 172.709 76.3604 173.986 75.1551L167.119 67.8849ZM164.982 69.4376C163.883 70.0294 162.787 70.4815 161.692 70.806L164.533 80.394C166.318 79.8651 168.049 79.144 169.723 78.2424L164.982 69.4376ZM161.858 70.76C160.375 71.1444 159.11 71.5086 158.151 71.8513L161.514 81.2687C162.048 81.078 162.97 80.8022 164.367 80.44L161.858 70.76ZM161.922 72.4C161.891 72.4194 161.965 72.3717 162.208 72.2598C162.436 72.1546 162.75 72.0214 163.165 71.86L159.54 62.54C158.525 62.9348 157.467 63.3924 156.623 63.92L161.922 72.4ZM163.165 71.86C164.5 71.3408 165.78 70.6575 167.006 69.8403L161.459 61.5197C160.765 61.9825 160.125 62.3125 159.54 62.54L163.165 71.86ZM167.139 69.7487C168.583 68.7171 169.374 67.3108 169.811 66.1087L160.414 62.6913C160.424 62.6626 160.629 62.1095 161.326 61.6113L167.139 69.7487ZM169.856 65.9811C170.196 64.96 170.432 63.8314 170.432 62.64H160.432C160.432 62.574 160.439 62.5533 160.433 62.5856C160.427 62.6182 160.41 62.6947 160.369 62.8189L169.856 65.9811ZM170.432 62.64C170.432 59.9396 169.316 57.6123 167.528 55.8245L160.457 62.8955C160.557 62.9959 160.536 63.0046 160.494 62.91C160.475 62.8656 160.458 62.8133 160.446 62.758C160.435 62.7031 160.432 62.6616 160.432 62.64H170.432ZM167.622 55.9213C165.898 54.1009 163.728 52.9727 161.303 52.5236L159.482 62.3564C159.937 62.4406 160.167 62.5924 160.363 62.7987L167.622 55.9213ZM161.44 52.551C159.488 52.1327 157.351 52.1963 155.31 53.1527C153.291 54.0992 151.878 55.6807 150.918 57.3834L159.627 62.2966C159.735 62.1055 159.798 62.0451 159.788 62.0555C159.771 62.0725 159.694 62.1421 159.555 62.2073C159.489 62.2381 159.423 62.2617 159.36 62.2781C159.297 62.2944 159.248 62.3011 159.217 62.3036C159.155 62.3087 159.188 62.2955 159.345 62.329L161.44 52.551ZM151.162 56.9939C150.429 58.0519 149.844 59.1963 149.391 60.4044L158.754 63.9156C158.941 63.417 159.156 63.0147 159.383 62.6861L151.162 56.9939ZM149.485 60.172C148.238 63.0492 148.186 66.3485 150.208 69.2553L158.417 63.5447C158.442 63.5806 158.489 63.6593 158.532 63.7784C158.574 63.8993 158.598 64.0239 158.605 64.1374C158.618 64.3684 158.553 64.3958 158.66 64.148L149.485 60.172ZM150.356 69.4572C152.671 72.4533 156.28 73.16 159.272 73.16V63.16C158.447 63.16 158.037 63.0549 157.905 63.0079C157.814 62.9758 158.035 63.0401 158.269 63.3428L150.356 69.4572ZM194.21 53.6059C195.367 53.8573 196.365 54.1018 197.214 54.3376L199.891 44.7024C198.82 44.4049 197.631 44.116 196.335 43.8341L194.21 53.6059ZM197.522 54.4127C198.618 54.6434 199.715 54.8455 200.813 55.0188L202.372 45.1412C201.444 44.9945 200.514 44.8233 199.583 44.6272L197.522 54.4127ZM201.008 55.0458C201.999 55.1624 202.97 55.2509 203.921 55.3103L204.544 45.3297C203.788 45.2825 202.999 45.211 202.177 45.1142L201.008 55.0458ZM204.232 55.32C204.771 55.32 205.316 55.3703 205.871 55.4744L207.714 45.6456C206.562 45.4297 205.4 45.32 204.232 45.32V55.32ZM205.898 55.4793C206.128 55.5212 206.176 55.5748 206.217 55.6155L213.288 48.5445C211.729 46.9852 209.804 46.0255 207.687 45.6406L205.898 55.4793ZM206.341 55.7353C206.381 55.7727 206.242 55.6559 206.102 55.3544C205.947 55.0224 205.855 54.6037 205.882 54.1681L215.863 54.7919C216.034 52.047 214.726 49.8824 213.164 48.4247L206.341 55.7353ZM205.872 54.48C205.872 54.1165 205.965 53.7942 206.08 53.5639C206.184 53.3571 206.262 53.3085 206.173 53.3923L213.012 60.6877C214.565 59.232 215.872 57.1416 215.872 54.48H205.872ZM206.3 53.2771C206.289 53.287 206.338 53.2434 206.443 53.2036C206.491 53.1854 206.537 53.1735 206.575 53.1667C206.613 53.16 206.634 53.16 206.632 53.16V63.16C208.98 63.16 211.133 62.3362 212.885 60.8029L206.3 53.2771ZM206.632 53.16C204.974 53.16 203.344 53.1097 201.744 53.0097L201.121 62.9903C202.934 63.1036 204.771 63.16 206.632 63.16V53.16ZM201.744 53.0097C200.041 52.9033 198.364 52.7968 196.714 52.6904L196.071 62.6696C197.727 62.7765 199.411 62.8834 201.121 62.9903L201.744 53.0097ZM192.551 54.4791C191.656 55.5531 190.929 56.7959 190.494 58.2096L200.051 61.1504C200.043 61.1774 200.062 61.0869 200.234 60.8809L192.551 54.4791ZM190.422 58.4673C190.158 59.5236 190.032 60.5987 190.032 61.68H200.032C200.032 61.3747 200.067 61.1164 200.123 60.8927L190.422 58.4673ZM190.032 61.68C190.032 62.5992 190.109 63.5141 190.261 64.422L200.124 62.778C200.062 62.4059 200.032 62.0408 200.032 61.68H190.032ZM190.261 64.422C190.345 64.9285 190.408 65.4328 190.45 65.9352L200.415 65.1048C200.35 64.3272 200.253 63.5514 200.124 62.778L190.261 64.422ZM190.436 65.7051C190.489 67.1428 190.542 68.6072 190.596 70.0985L200.589 69.7415C200.536 68.2461 200.482 66.7772 200.429 65.3349L190.436 65.7051ZM190.606 70.2894C190.685 71.3586 190.646 72.429 190.486 73.5073L200.379 74.9727C200.645 73.171 200.713 71.3614 200.579 69.5506L190.606 70.2894ZM190.53 73.2594C190.709 72.3635 191.172 72.0101 191.029 72.1403L197.756 79.5397C198.786 78.6033 199.943 77.1831 200.335 75.2206L190.53 73.2594ZM191.029 72.1403C190.742 72.4014 190.583 72.4794 190.563 72.4882L194.702 81.5918C195.856 81.0672 196.87 80.3453 197.756 79.5397L191.029 72.1403ZM190.663 72.4443C191.441 72.1109 192.114 72.1673 192.437 72.2391L190.268 82.0009C191.551 82.286 193.078 82.2891 194.602 81.6357L190.663 72.4443ZM191.973 72.1586C192.38 72.2095 192.637 72.3466 192.723 72.4L187.422 80.88C188.361 81.4667 189.472 81.9239 190.732 82.0814L191.973 72.1586ZM192.553 72.2988C192.646 72.3518 192.715 72.4034 192.762 72.4431C192.808 72.4821 192.829 72.5067 192.829 72.506L185.236 79.014C185.876 79.7609 186.655 80.4459 187.592 80.9812L192.553 72.2988ZM193.101 72.8538C193.284 73.1098 193.457 73.4871 193.514 73.9398L183.591 75.1802C183.754 76.4863 184.248 77.6635 184.964 78.6662L193.101 72.8538ZM193.481 73.7185C193.113 71.5641 192.772 69.4374 192.457 67.3383L182.568 68.8217C182.893 70.9893 183.245 73.1825 183.624 75.4015L193.481 73.7185ZM192.457 67.3383C192.162 65.3725 191.965 63.3788 191.867 61.3564L181.878 61.8436C181.993 64.1946 182.223 66.5208 182.568 68.8217L192.457 67.3383ZM191.868 61.3828C191.712 57.7982 191.66 54.2418 191.712 50.7135L181.713 50.5665C181.658 54.2916 181.713 58.0418 181.877 61.8172L191.868 61.3828ZM191.712 50.7135C191.766 47.062 191.792 43.3842 191.792 39.68H181.792C181.792 43.3358 181.766 46.9647 181.713 50.5665L191.712 50.7135ZM191.792 39.68V37.92H181.792V39.68H191.792ZM191.768 38.4094C191.823 37.8523 191.907 37.473 191.98 37.234C192.054 36.9953 192.101 36.9528 192.054 37.019C191.998 37.1002 191.86 37.2598 191.625 37.4015C191.39 37.543 191.187 37.5896 191.093 37.6014L189.852 27.6786C187.383 27.9873 185.276 29.2556 183.851 31.301C182.557 33.1571 182.02 35.3617 181.817 37.4306L191.768 38.4094ZM191.18 37.5897C190.884 37.632 190.447 37.6068 190.002 37.4091C189.59 37.2259 189.417 37.0045 189.428 37.0182L197.277 30.8218C195.56 28.6467 192.928 27.2385 189.765 27.6902L191.18 37.5897ZM189.528 37.1407C189.528 37.1407 189.528 37.1412 189.529 37.1423C189.53 37.1434 189.531 37.1453 189.533 37.148C189.537 37.1534 189.543 37.1631 189.552 37.1782C189.568 37.2081 189.596 37.2642 189.628 37.3556C189.692 37.5425 189.771 37.8686 189.802 38.3825L199.783 37.7775C199.633 35.2972 198.92 32.7691 197.177 30.6993L189.528 37.1407ZM189.814 38.5467C189.959 40.0942 190.032 41.6717 190.032 43.28H200.032C200.032 41.3683 199.946 39.4792 199.771 37.6133L189.814 38.5467ZM190.035 43.4314C190.09 45.2387 190.172 47.0967 190.281 49.0053L200.264 48.4347C200.16 46.6099 200.082 44.8413 200.03 43.1286L190.035 43.4314ZM162.224 39.4703C163.957 39.362 165.467 39.2524 166.746 39.1412L165.879 29.1788C164.705 29.2809 163.281 29.3847 161.601 29.4897L162.224 39.4703ZM166.746 39.1412C167.691 39.059 168.594 39.0608 169.46 39.1395L170.365 29.1805C168.884 29.0459 167.388 29.0476 165.879 29.1788L166.746 39.1412ZM169.65 39.1531C170.395 39.1923 171.107 39.2896 171.788 39.4409L173.957 29.6791C172.718 29.4038 171.456 29.2343 170.175 29.1669L169.65 39.1531ZM172.093 39.4988C172.65 39.5868 173.155 39.7435 173.624 39.9641L177.881 30.9159C176.537 30.2831 175.121 29.8532 173.652 29.6212L172.093 39.4988ZM173.516 39.9121C172.663 39.4855 172.414 38.8758 172.437 38.9296L181.628 34.9904C181.011 33.5509 179.909 31.9279 177.989 30.9679L173.516 39.9121ZM172.63 39.3305C172.797 39.6401 172.821 39.7853 172.821 39.782L182.684 38.138C182.471 36.8547 182.015 35.6665 181.435 34.5895L172.63 39.3305ZM172.85 39.9406C172.806 39.7248 172.755 39.2481 172.932 38.64C173.119 37.9993 173.478 37.4961 173.848 37.1635L180.537 44.5965C182.584 42.7543 183.105 40.227 182.655 37.9794L172.85 39.9406ZM173.848 37.1635C173.847 37.1639 173.788 37.2208 173.591 37.2913L176.954 46.7087C178.25 46.2459 179.471 45.5561 180.537 44.5965L173.848 37.1635ZM173.416 37.3576C173.522 37.315 173.581 37.3063 173.571 37.308L175.214 47.172C175.844 47.067 176.49 46.8984 177.129 46.6424L173.416 37.3576ZM173.412 37.3371C173.145 37.3904 172.879 37.4438 172.612 37.4971L174.573 47.3029C174.84 47.2496 175.106 47.1962 175.373 47.1429L173.412 37.3371ZM173.352 37.4058C168.924 37.6192 164.523 37.8326 160.149 38.0459L160.636 48.0341C165.008 47.8208 169.407 47.6075 173.833 47.3942L173.352 37.4058ZM160.207 38.0434C155.909 38.2026 151.558 38.3353 147.152 38.4415L147.393 48.4385C151.841 48.3314 156.236 48.1974 160.578 48.0366L160.207 38.0434ZM146.889 38.4547C146.46 38.4877 145.988 38.4898 145.469 38.4527L144.756 48.4273C145.731 48.4969 146.699 48.4989 147.656 48.4253L146.889 38.4547ZM145.82 38.4903C145.79 38.486 145.77 38.4817 145.759 38.4789C145.747 38.4762 145.744 38.4747 145.746 38.4756C145.749 38.4765 145.755 38.4791 145.765 38.4839C145.775 38.4888 145.786 38.4948 145.797 38.5017L140.428 46.9383C141.664 47.7246 143.015 48.1912 144.405 48.3897L145.82 38.4903ZM145.507 38.3305C145.609 38.3865 145.685 38.4461 145.731 38.4902C145.776 38.5324 145.779 38.5462 145.753 38.5065L137.432 44.0535C138.24 45.2649 139.32 46.3468 140.718 47.1095L145.507 38.3305ZM145.753 38.5065C145.717 38.4529 145.693 38.4122 145.678 38.3847C145.662 38.3572 145.657 38.3444 145.658 38.3464C145.659 38.3501 145.689 38.4184 145.712 38.5456L135.873 40.3344C136.132 41.7571 136.732 43.0033 137.432 44.0535L145.753 38.5065ZM145.695 38.4594C145.731 38.6365 145.773 39.0147 145.654 39.5069C145.531 40.0218 145.279 40.4621 144.989 40.7848L137.556 34.0952C135.864 35.9747 135.468 38.3151 135.89 40.4206L145.695 38.4594ZM145.142 40.6062C145.038 40.733 144.907 40.8497 144.762 40.94C144.622 41.028 144.515 41.062 144.481 41.0712L141.904 31.4088C140.189 31.8663 138.609 32.7995 137.403 34.2738L145.142 40.6062ZM144.366 41.1004C145.807 40.7526 147.245 40.455 148.682 40.2073L146.983 30.3527C145.326 30.6383 143.672 30.9808 142.019 31.3796L144.366 41.1004ZM148.813 40.1829C150.423 39.8608 152.139 39.5123 153.961 39.1373L151.944 29.3427C150.139 29.7144 148.442 30.0592 146.852 30.3771L148.813 40.1829ZM157.907 33.5644C157.741 32.3522 157.574 31.2358 157.404 30.218L147.541 31.862C147.691 32.7642 147.844 33.7811 147.998 34.9156L157.907 33.5644ZM157.411 30.2602C157.278 29.4163 157.19 28.5755 157.146 27.7372L147.159 28.2628C147.222 29.4512 147.347 30.6371 147.534 31.8198L157.411 30.2602ZM157.143 27.6881C157.096 26.9384 157.072 26.1891 157.072 25.44H147.072C147.072 26.3976 147.102 27.3549 147.162 28.3119L157.143 27.6881ZM157.064 25.7336C157.105 25.028 157.187 24.3581 157.307 23.7214L147.478 21.8786C147.277 22.9486 147.146 24.0387 147.081 25.1464L157.064 25.7336ZM157.316 23.6689C157.312 23.692 157.291 23.7887 157.22 23.9211C157.147 24.0565 157.056 24.1683 156.971 24.2458L150.214 16.8742C148.712 18.2509 147.807 20.011 147.469 21.9311L157.316 23.6689ZM156.984 24.234C156.951 24.264 156.857 24.3399 156.701 24.4078C156.541 24.4767 156.392 24.5051 156.286 24.5114L155.699 14.5286C153.591 14.6526 151.708 15.4951 150.201 16.886L156.984 24.234ZM156.255 24.5131C156.214 24.5153 155.975 24.5203 155.631 24.3944C155.266 24.2605 154.943 24.0364 154.707 23.7786L162.078 17.0214C160.307 15.089 157.954 14.4099 155.73 14.5269L156.255 24.5131ZM154.857 23.9355C154.879 23.9575 154.914 23.99 154.956 24.1308L164.549 21.3092C164.057 19.6367 163.186 18.1225 161.928 16.8645L154.857 23.9355ZM155.086 24.5149C155.131 24.6324 155.152 24.7438 155.152 24.88H165.152C165.152 23.5229 164.907 22.1942 164.419 20.9251L155.086 24.5149ZM155.152 24.88C155.152 25.8295 155.226 26.7864 155.363 27.7471L165.262 26.3329C165.186 25.8002 165.152 25.3172 165.152 24.88H155.152ZM155.401 27.9756C155.626 29.1563 155.878 30.3606 156.157 31.5881L165.908 29.3719C165.654 28.2527 165.426 27.1636 165.224 26.1044L155.401 27.9756ZM156.157 31.5881C156.418 32.7368 156.707 34.0494 157.023 35.5276L166.802 33.4323C166.478 31.9239 166.18 30.5698 165.908 29.3719L156.157 31.5881ZM235.316 41.76L239.911 39.7904L239.51 38.8545L238.775 38.1501L235.316 41.76ZM230.916 39.44L229.935 44.3429L229.95 44.3459L229.966 44.3489L230.916 39.44ZM226.036 38.56L225.091 43.47L225.165 43.4842L225.239 43.4962L226.036 38.56ZM221.876 37.92L221.115 42.8619L221.209 42.8762L221.303 42.887L221.876 37.92ZM217.716 37.04L219.015 32.2119L218.997 32.2068L218.978 32.2019L217.716 37.04ZM214.836 35.12L210.675 37.8935L210.727 37.9715L210.782 38.0474L214.836 35.12ZM214.276 32.08L219.126 33.2927L219.169 33.1221L219.2 32.9489L214.276 32.08ZM215.716 29.76L218.839 33.6643L218.916 33.6029L218.99 33.5384L215.716 29.76ZM218.516 28.72L218.667 23.7223L218.591 23.72H218.516V28.72ZM228.916 29.76L228.069 34.6878L228.081 34.6899L228.916 29.76ZM238.916 32.96L236.74 37.4617L236.747 37.4654L236.755 37.4691L238.916 32.96ZM244.356 37.76L239.957 40.1376L239.982 40.1831L240.007 40.228L244.356 37.76ZM244.916 44.64L240.108 43.2664L240.098 43.3009L240.089 43.3355L244.916 44.64ZM241.396 56.32L246.132 57.9211L246.136 57.9111L246.139 57.9011L241.396 56.32ZM237.396 67.76L232.693 66.0618L232.672 66.1201L232.652 66.1789L237.396 67.76ZM235.156 70.4L237.207 74.9596L237.207 74.9596L235.156 70.4ZM232.036 70.56L233.764 65.8683L233.726 65.8542L233.687 65.8407L232.036 70.56ZM229.556 68.48L225.175 70.8896L225.201 70.9377L225.229 70.9852L229.556 68.48ZM229.156 65.12L224.356 63.72L224.343 63.7621L224.332 63.8044L229.156 65.12ZM231.556 57.52L226.854 55.8193L226.838 55.8639L226.822 55.9087L231.556 57.52ZM234.116 49.92L229.372 48.3389L229.357 48.3836L229.343 48.4286L234.116 49.92ZM234.836 48L239.451 49.9231L239.478 49.8593L239.502 49.7949L234.836 48ZM235.476 46L230.697 44.5296L230.657 44.6575L230.625 44.7873L235.476 46ZM260.676 50.32H255.676V55.32H260.676V50.32ZM260.596 42.72H255.596V42.7732L255.597 42.8264L260.596 42.72ZM260.676 35.12L255.685 34.8081L255.679 34.9119L255.677 35.0159L260.676 35.12ZM260.836 32.64L265.825 32.9726L265.825 32.9622L265.826 32.9519L260.836 32.64ZM261.316 30.16L256.572 28.5789L261.316 30.16ZM262.436 28.64L265.303 32.7362L265.303 32.7362L262.436 28.64ZM264.116 28L264.568 32.9795L264.754 32.9626L264.938 32.932L264.116 28ZM265.956 28.16L264.247 32.859L264.31 32.882L264.374 32.9034L265.956 28.16ZM267.476 29.28L263.379 32.1473L263.426 32.2144L263.476 32.28L267.476 29.28ZM268.676 31.52L263.994 33.2756L264.013 33.3265L264.033 33.3769L268.676 31.52ZM269.236 33.84L274.23 33.6044L274.227 33.544L274.223 33.4838L269.236 33.84ZM269.876 50.72L264.878 50.8628L264.878 50.8642L269.876 50.72ZM270.196 67.52L265.196 67.5672L265.196 67.5979L265.197 67.6287L270.196 67.52ZM268.996 72.88L265.018 69.8498L265.007 69.8648L264.996 69.88L268.996 72.88ZM265.716 74.32L265.143 79.287L265.237 79.298L265.332 79.3053L265.716 74.32ZM262.596 72.4L258.291 74.9436L258.317 74.988L258.344 75.0318L262.596 72.4ZM261.396 67.12L256.399 67.3085L256.4 67.3278L256.401 67.347L261.396 67.12ZM261.156 58.72L256.157 58.8161L256.157 58.8161L261.156 58.72ZM260.916 50.32L265.912 50.1315L265.731 45.32H260.916V50.32ZM238.775 38.1501C236.839 36.295 234.514 35.0437 231.866 34.5311L229.966 44.3489C230.624 44.4763 231.232 44.7716 231.856 45.3699L238.775 38.1501ZM231.896 34.5371C230.233 34.2045 228.545 33.9001 226.832 33.6238L225.239 43.4962C226.833 43.7532 228.398 44.0355 229.935 44.3429L231.896 34.5371ZM226.98 33.65C225.472 33.3599 223.961 33.1275 222.449 32.953L221.303 42.887C222.563 43.0325 223.826 43.2267 225.091 43.47L226.98 33.65ZM222.636 32.9781C221.435 32.7934 220.229 32.5386 219.015 32.2119L216.416 41.8681C217.976 42.2881 219.543 42.6199 221.115 42.8619L222.636 32.9781ZM218.978 32.2019C218.911 32.1846 218.873 32.1692 218.856 32.1618C218.839 32.1546 218.839 32.153 218.849 32.1597C218.86 32.1667 218.872 32.1764 218.883 32.187C218.893 32.1974 218.895 32.2012 218.889 32.1925L210.782 38.0474C212.206 40.0184 214.188 41.2871 216.454 41.8781L218.978 32.2019ZM218.996 32.3465C219.007 32.3635 219.089 32.4978 219.133 32.7342C219.178 32.9768 219.155 33.18 219.126 33.2927L209.425 30.8673C208.798 33.3751 209.298 35.8268 210.675 37.8935L218.996 32.3465ZM219.2 32.9489C219.17 33.1151 219.104 33.2962 219.004 33.4568C218.909 33.6102 218.828 33.6731 218.839 33.6643L212.592 25.8557C210.958 27.163 209.747 28.9699 209.352 31.2111L219.2 32.9489ZM218.99 33.5384C218.966 33.5591 218.886 33.619 218.757 33.6671C218.627 33.7151 218.534 33.72 218.516 33.72V23.72C216.256 23.72 214.158 24.4938 212.441 25.9816L218.99 33.5384ZM218.364 33.7177C221.655 33.8174 224.889 34.1413 228.069 34.6877L229.763 24.8323C226.116 24.2054 222.416 23.8359 218.667 23.7223L218.364 33.7177ZM228.081 34.6899C231.078 35.197 233.96 36.1181 236.74 37.4617L241.091 28.4583C237.471 26.7086 233.687 25.4963 229.75 24.8301L228.081 34.6899ZM236.755 37.4691C238.617 38.3614 239.512 39.3142 239.957 40.1376L248.754 35.3824C247.066 32.2592 244.334 30.0119 241.076 28.4509L236.755 37.4691ZM240.007 40.228C240.336 40.8077 240.564 41.6692 240.108 43.2664L249.723 46.0136C250.76 42.3841 250.615 38.659 248.704 35.292L240.007 40.228ZM240.089 43.3355C239.047 47.1901 237.901 50.9911 236.652 54.7389L246.139 57.9011C247.45 53.9689 248.651 49.9833 249.742 45.9445L240.089 43.3355ZM236.659 54.7189C235.39 58.4724 234.068 62.2533 232.693 66.0618L242.098 69.4582C243.496 65.5867 244.841 61.741 246.132 57.9211L236.659 54.7189ZM232.652 66.1789C232.607 66.3141 232.6 66.2668 232.703 66.1451C232.753 66.0858 232.818 66.023 232.896 65.965C232.973 65.9071 233.046 65.8666 233.104 65.8404L237.207 74.9596C239.748 73.8164 241.345 71.723 242.139 69.3411L232.652 66.1789ZM233.104 65.8404C233.067 65.8567 233.147 65.8154 233.32 65.8066C233.5 65.7973 233.66 65.8301 233.764 65.8683L230.307 75.2517C232.657 76.1175 235.056 75.9278 237.207 74.9596L233.104 65.8404ZM233.687 65.8407C233.687 65.8407 233.705 65.8471 233.735 65.8638C233.765 65.8807 233.797 65.9029 233.829 65.929C233.86 65.9551 233.881 65.9777 233.892 65.9909C233.902 66.0037 233.898 66.0009 233.883 65.9748L225.229 70.9852C226.39 72.9917 228.146 74.496 230.384 75.2793L233.687 65.8407ZM233.937 66.0704C233.93 66.0583 233.938 66.0706 233.95 66.1062C233.962 66.1426 233.974 66.1916 233.981 66.2489C233.987 66.3063 233.987 66.3569 233.984 66.3956C233.981 66.4335 233.976 66.4481 233.979 66.4356L224.332 63.8044C223.67 66.2312 223.963 68.6869 225.175 70.8896L233.937 66.0704ZM233.956 66.52C234.682 64.0304 235.46 61.5676 236.289 59.1313L226.822 55.9087C225.945 58.4858 225.123 61.0896 224.356 63.72L233.956 66.52ZM236.258 59.2207C237.189 56.6443 238.066 54.0412 238.888 51.4114L229.343 48.4286C228.565 50.9188 227.735 53.3823 226.854 55.8193L236.258 59.2207ZM238.859 51.5011C239.033 50.9798 239.23 50.4538 239.451 49.9231L230.22 46.0769C229.908 46.8262 229.625 47.5802 229.372 48.3389L238.859 51.5011ZM239.502 49.7949C239.833 48.9347 240.111 48.0731 240.326 47.2127L230.625 44.7873C230.52 45.2069 230.371 45.6786 230.169 46.2051L239.502 49.7949ZM240.255 47.4704C240.608 46.3229 240.796 45.1344 240.796 43.92H230.796C230.796 44.0922 230.77 44.2905 230.697 44.5296L240.255 47.4704ZM240.796 43.92C240.796 42.4435 240.453 41.054 239.911 39.7904L230.72 43.7296C230.77 43.8458 230.788 43.9166 230.795 43.9446C230.801 43.9711 230.796 43.9605 230.796 43.92H240.796ZM265.676 50.32C265.676 47.7253 265.649 45.1565 265.595 42.6136L255.597 42.8264C255.649 45.2968 255.676 47.7947 255.676 50.32H265.676ZM265.596 42.72C265.596 40.2488 265.622 37.7502 265.675 35.2241L255.677 35.0159C255.623 37.6098 255.596 40.1779 255.596 42.72H265.596ZM265.666 35.4319C265.719 34.585 265.772 33.7653 265.825 32.9726L255.847 32.3074C255.793 33.1147 255.739 33.9483 255.685 34.8081L265.666 35.4319ZM265.826 32.9519C265.853 32.5245 265.931 32.1248 266.059 31.7411L256.572 28.5789C256.167 29.7952 255.925 31.0488 255.845 32.3281L265.826 32.9519ZM266.059 31.7411C266.012 31.8818 265.926 32.0689 265.781 32.266C265.634 32.4647 265.466 32.6223 265.303 32.7362L259.568 24.5438C258.122 25.556 257.112 26.9605 256.572 28.5789L266.059 31.7411ZM265.303 32.7362C265.261 32.7654 265.172 32.8205 265.036 32.8724C264.897 32.9254 264.737 32.9641 264.568 32.9795L263.663 23.0205C262.119 23.1609 260.739 23.7245 259.568 24.5438L265.303 32.7362ZM264.938 32.932C264.865 32.944 264.757 32.9529 264.622 32.9412C264.487 32.9294 264.359 32.8996 264.247 32.859L267.664 23.461C266.236 22.9415 264.748 22.8256 263.294 23.068L264.938 32.932ZM264.374 32.9034C264.234 32.8565 264.047 32.7705 263.85 32.6253C263.651 32.4789 263.493 32.3099 263.379 32.1473L271.572 26.4127C270.56 24.9668 269.155 23.956 267.537 23.4166L264.374 32.9034ZM263.476 32.28C263.634 32.4911 263.818 32.8067 263.994 33.2756L273.357 29.7644C272.893 28.5267 272.277 27.3489 271.476 26.28L263.476 32.28ZM264.033 33.3769C264.19 33.7685 264.237 34.0357 264.248 34.1962L274.223 33.4838C274.128 32.151 273.801 30.8715 273.318 29.6631L264.033 33.3769ZM264.241 34.0756C264.506 39.6983 264.719 45.2941 264.878 50.8628L274.874 50.5772C274.713 44.9459 274.498 39.2883 274.23 33.6044L264.241 34.0756ZM264.878 50.8642C265.037 56.3779 265.143 61.9456 265.196 67.5672L275.195 67.4728C275.142 61.7878 275.035 56.1554 274.874 50.5758L264.878 50.8642ZM265.197 67.6287C265.217 68.5789 265.144 69.2158 265.056 69.6076C264.969 70.0001 264.898 70.0081 265.018 69.8498L272.973 75.9102C274.861 73.4317 275.256 70.2408 275.194 67.4113L265.197 67.6287ZM264.996 69.88C265.051 69.8067 265.235 69.6068 265.566 69.4618C265.887 69.3209 266.109 69.3355 266.099 69.3347L265.332 79.3053C268.335 79.5362 271.118 78.3839 272.996 75.88L264.996 69.88ZM266.289 69.353C266.218 69.3447 266.33 69.3474 266.516 69.4617C266.603 69.5152 266.68 69.5779 266.743 69.6416C266.805 69.7042 266.837 69.7522 266.847 69.7682L258.344 75.0318C259.896 77.5386 262.342 78.9639 265.143 79.287L266.289 69.353ZM266.9 69.8564C266.823 69.7259 266.483 68.936 266.39 66.893L256.401 67.347C256.521 69.9973 256.981 72.7274 258.291 74.9436L266.9 69.8564ZM266.392 66.9315C266.287 64.135 266.207 61.3658 266.155 58.6239L256.157 58.8161C256.21 61.6209 256.291 64.4517 256.399 67.3085L266.392 66.9315ZM266.155 58.6239C266.101 55.8191 266.02 52.9883 265.912 50.1315L255.919 50.5085C256.025 53.305 256.104 56.0742 256.157 58.8161L266.155 58.6239ZM260.916 45.32H260.676V55.32H260.916V45.32Z" fill="black" mask="url(#path-1-outside-1_849_62)"/>
</svg>
