<svg width="164" height="48" viewBox="0 0 164 48" fill="none" xmlns="http://www.w3.org/2000/svg">
<path d="M144 4H128C126.939 4 125.922 4.42143 125.172 5.17157C124.421 5.92172 124 6.93913 124 8V40C124 41.0609 124.421 42.0783 125.172 42.8284C125.922 43.5786 126.939 44 128 44H152C153.061 44 154.078 43.5786 154.828 42.8284C155.579 42.0783 156 41.0609 156 40V16M144 4L156 16M144 4V16H156M148 26H132M148 34H132M136 18H132" stroke="#1E1E1E" stroke-width="4" stroke-linecap="round" stroke-linejoin="round"/>
<path d="M10 42H38C40.2091 42 42 40.2091 42 38V10C42 7.79086 40.2091 6 38 6H10C7.79086 6 6 7.79086 6 10V38C6 40.2091 7.79086 42 10 42ZM10 42L32 20L42 30M20 17C20 18.6569 18.6569 20 17 20C15.3431 20 14 18.6569 14 17C14 15.3431 15.3431 14 17 14C18.6569 14 20 15.3431 20 17Z" stroke="#1E1E1E" stroke-width="4" stroke-linecap="round" stroke-linejoin="round"/>
<path d="M68 24H96M96 24L82 10M96 24L82 38" stroke="#1E1E1E" stroke-width="4" stroke-linecap="round" stroke-linejoin="round"/>
</svg>
