<?xml version="1.0" encoding="UTF-8"?>
<svg id="_레이어_1" data-name="레이어_1" xmlns="http://www.w3.org/2000/svg" version="1.1" viewBox="0 0 300 400.17">
  <!-- Generator: Adobe Illustrator 29.2.1, SVG Export Plug-In . SVG Version: 2.1.0 Build 116)  -->
  <defs>
    <style>
      .st0 {
        fill: #f5f3f2;
      }

      .st1 {
        fill: #e6dece;
      }

      .st2 {
        fill: #c0b2a0;
      }

      .st3 {
        fill: #edae44;
      }

      .st4 {
        fill: #633b22;
      }

      .st5 {
        display: none;
      }

      .st6 {
        fill: #815534;
      }

      .st7 {
        fill: #22abc8;
      }

      .st8 {
        fill: #fbcd72;
      }

      .st9 {
        fill: #70c9e8;
      }
    </style>
  </defs>
  <g id="beige">
    <g>
      <path class="st1" d="M280.97,0H19.03C8.54,0,.04,8.1.04,18.1v363.98c0,9.99,8.5,18.1,18.99,18.1h261.94c10.49,0,18.99-8.1,18.99-18.1V18.1c0-9.99-8.5-18.1-18.99-18.1Z"/>
      <path class="st2" d="M280.97,0H19.03C8.54,0,.04,8.1.04,18.1v363.98c0,4.89,2.05,9.33,5.36,12.58L293.11,4.18c-3.29-2.61-7.52-4.18-12.14-4.18Z"/>
      <path class="st0" d="M19.02,369.66l-.11-339.04c0-6.92,5.88-12.53,13.15-12.53l235.76-.1c7.26,0,13.16,5.61,13.16,12.53l.12,351.56-.12.11H32.18c-7.26,0-13.15-5.61-13.15-12.53Z"/>
    </g>
  </g>
  <g id="yellow" class="st5">
    <g>
      <path class="st8" d="M281,0H19C8.51,0,0,10.12,0,22.61v454.78c0,12.49,8.51,22.61,19,22.61h262.01c10.49,0,19-10.12,19-22.61V22.61c0-12.49-8.51-22.61-19-22.61Z"/>
      <path class="st3" d="M281,0H19C8.51,0,0,10.12,0,22.61v454.78c0,6.11,2.05,11.65,5.36,15.72L293.15,5.23c-3.29-3.26-7.52-5.23-12.14-5.23Z"/>
      <path class="st0" d="M18.99,461.88l-.11-423.62c0-8.65,5.88-15.66,13.15-15.66l235.81-.13c7.27,0,13.16,7,13.16,15.65l.12,439.26-.12.14H32.15c-7.26,0-13.15-7.01-13.16-15.65Z"/>
    </g>
  </g>
  <g id="brown" class="st5">
    <g>
      <path class="st6" d="M281,0H19C8.51,0,0,10.12,0,22.61v454.78c0,12.49,8.51,22.61,19,22.61h262.01c10.49,0,19-10.12,19-22.61V22.61c0-12.49-8.51-22.61-19-22.61Z"/>
      <path class="st4" d="M281,0H19C8.51,0,0,10.12,0,22.61v454.78c0,6.11,2.05,11.65,5.36,15.72L293.15,5.23c-3.29-3.26-7.52-5.23-12.14-5.23Z"/>
      <path class="st0" d="M18.99,461.88l-.11-423.62c0-8.65,5.88-15.66,13.15-15.66l235.81-.13c7.27,0,13.16,7,13.16,15.65l.12,439.26-.12.14H32.15c-7.26,0-13.15-7.01-13.16-15.65Z"/>
    </g>
  </g>
  <g id="blue" class="st5">
    <g>
      <path class="st9" d="M281,0H19C8.51,0,0,8.1,0,18.1v363.98c0,9.99,8.51,18.1,19,18.1h262.01c10.49,0,19-8.1,19-18.1V18.1c0-9.99-8.51-18.1-19-18.1Z"/>
      <path class="st7" d="M281,0H19C8.51,0,0,8.1,0,18.1v363.98c0,4.89,2.05,9.33,5.36,12.58L293.15,4.18c-3.29-2.61-7.52-4.18-12.14-4.18Z"/>
      <path class="st0" d="M18.99,369.66l-.11-339.04c0-6.92,5.88-12.53,13.15-12.53l235.81-.1c7.27,0,13.16,5.61,13.16,12.53l.12,351.56-.12.11H32.15c-7.26,0-13.15-5.61-13.16-12.53Z"/>
    </g>
  </g>
</svg>