<svg width="36" height="36" viewBox="0 0 36 36" fill="none" xmlns="http://www.w3.org/2000/svg">
<path d="M27.4906 10.929H15.4246C15.0441 10.9299 14.6674 11.0059 14.3163 11.1526C13.9651 11.2993 13.6463 11.5138 13.3782 11.7838C13.11 12.0538 12.8976 12.374 12.7533 12.7261C12.609 13.0783 12.5356 13.4554 12.5371 13.836V28.968C12.5371 30.573 13.8301 31.875 15.4246 31.875H27.4906C27.8712 31.874 28.2478 31.798 28.599 31.6513C28.9501 31.5046 29.2689 31.2901 29.5371 31.0201C29.8053 30.7501 30.0176 30.4299 30.1619 30.0778C30.3062 29.7256 30.3797 29.3485 30.3781 28.968V13.836C30.3781 12.231 29.0851 10.929 27.4906 10.929Z" stroke="white" stroke-width="3" stroke-linecap="round" stroke-linejoin="round"/>
<path d="M23.4631 10.929V7.032C23.4631 6.261 23.1586 5.5215 22.6171 4.977C22.3497 4.70744 22.0317 4.49339 21.6814 4.34717C21.331 4.20095 20.9552 4.12545 20.5756 4.125H8.50957C7.74457 4.125 7.00957 4.431 6.46957 4.977C5.92765 5.52378 5.62313 6.26216 5.62207 7.032V22.164C5.62207 22.935 5.92657 23.6745 6.46807 24.219C7.00957 24.7635 7.74307 25.071 8.50957 25.071H12.5371" stroke="white" stroke-width="3" stroke-linecap="round" stroke-linejoin="round"/>
</svg>
