<?xml version="1.0" encoding="UTF-8"?>
<svg xmlns="http://www.w3.org/2000/svg" version="1.1" viewBox="0 0 260 215">
  <!-- Generator: Adobe Illustrator 29.2.1, SVG Export Plug-In . SVG Version: 2.1.0 Build 116)  -->
  <defs>
    <style>
      .st0 {
        fill: none;
      }

      .st1, .st2, .st3 {
        mix-blend-mode: soft-light;
      }

      .st1, .st3 {
        fill: #221f20;
      }

      .st4 {
        isolation: isolate;
      }

      .st5 {
        fill: #b4222c;
      }

      .st2 {
        fill: #fff;
      }

      .st6 {
        fill: #d4ebef;
      }

      .st3 {
        opacity: .5;
      }
    </style>
  </defs>
  <g class="st4">
    <g id="_레이어_1" data-name="레이어_1">
      <g>
        <g>
          <path class="st6" d="M159.17,130.29c-7.69,3.41-16.87,7.83-16.87,7.83,0,0-21.24,9.64-30.12,41.96,0,0-5.42,15.66-3.81,27.51,0,0-7.03,9.04-20.88,6.42,0,0-24.5-24.09-8.03-69.07,0,0-38.75,2.81-62.44-4.02,0,0-8.29-3.77-8.03-15.56.1-4.37.4-10.44,5.42-16.77,0,0-11.73-2.51-11.78-21.82-.04-17.8,13.19-22.15,13.19-22.15,0,0-7.67-4.61-5.97-18.37,1.54-12.43,11.39-14.56,11.39-14.56,0,0-4.15-20.01,12.45-26.9,0,0,42.25-6.67,79.69-3.36,7.56.67,35.46,2.63,47,13.2,4.67,4.29,5.83,8.91,5.85,12.45.02,3.67,0,91.05,0,91.05,0,0,.12,8.96-7.05,12.15Z"/>
          <path class="st5" d="M190.93,4.53h53.01c8.86,0,16.06,7.2,16.06,16.06v102.8c0,8.87-7.2,16.06-16.06,16.06h-53c-8.87,0-16.06-7.2-16.06-16.06V20.6c0-8.87,7.2-16.06,16.06-16.06Z"/>
        </g>
        <path class="st2" d="M256.59,55.23V20.04s.71-12.68-13.33-12.68h-52.46s-13.33-.71-13.33,15.96c0,12.68,0,34.97,0,34.97,0,0,2.46-16.07,17.32-17.16,14.86-1.09,39.68-1.26,48.86,1.15,10,2.62,11.64,10.33,12.95,12.95Z"/>
        <path class="st1" d="M256.59,88.43v35.19s.71,12.68-13.33,12.68c-11.37,0-52.46,0-52.46,0,0,0-13.33.71-13.33-15.96,0-12.68,0-34.97,0-34.97,0,0,2.46,16.07,17.32,17.16,14.86,1.09,39.68,1.26,48.86-1.15,10-2.62,11.64-10.33,12.95-12.95Z"/>
        <path class="st2" d="M250.19,11.62s4.26,1.97,4.43,7.87v26.89s-1.8-6.56-12.62-8.03c-10.82-1.47-23.44-.82-23.44-.82,0,0,19.4-4.87,32.02-1.75,0,0,1.86-16.61-.38-24.15Z"/>
        <line class="st0" x1="245.77" y1="30.42" x2="245.77" y2="30.31"/>
        <path class="st1" d="M87.83,208.9s-12.24-40.66,7.65-66.89c0,0-11.14.44-14.21,3.5,0,0-13.99,38.47,6.56,63.39Z"/>
        <path class="st3" d="M87.83,208.9s-12.24-40.66,7.65-66.89c0,0-11.14.44-14.21,3.5,0,0-13.99,38.47,6.56,63.39Z"/>
        <path class="st2" d="M163.14,55.88v-31.59S155.92,3.09,88.71,3.09c-46.11,0-65.61,2.88-64.27,28.36,0,0,34.36-16.1,75.72-9.94,41.37,6.16,59.88,28.24,62.97,34.36Z"/>
        <path class="st2" d="M160.68,44.08v-18.1s-11.02-20.56-69.92-21.22c0,0,42.61.99,65.31,23.2l4.61,16.12Z"/>
        <path class="st1" d="M253.2,121.13s.22,2.19-.55,4.04c-.76,1.86-2.19,7.65-10.82,7.65h-51.37s-10.6.33-10.6-11.7c0,0,.66,5.85,8.09,5.85h54.21s8.2.49,11.04-5.85Z"/>
      </g>
    </g>
  </g>
</svg>