<svg width="19" height="21" viewBox="0 0 19 21" fill="none" xmlns="http://www.w3.org/2000/svg">
<path d="M13.5 8V9M6.49999 8V9M10.0114 18.5H7.37112C7.12613 18.5 6.88356 18.5485 6.6574 18.6427L2.58117 20.3412C2.1075 20.5385 1.66552 20.0017 1.95016 19.5747C1.98313 19.5253 2.00736 19.4705 2.02178 19.4128L2.2094 18.6624C2.40041 17.8983 2.40766 17.0999 2.23058 16.3325L1.26716 12.1578C-0.213548 5.74131 5.79594 0.0915923 12.1561 1.79798C15.8659 2.79329 18.5 6.1704 18.5 10.0114C18.5 14.6995 14.6995 18.5 10.0114 18.5Z" stroke="black" stroke-linecap="round" stroke-linejoin="round"/>
<path d="M13.5 12.5C13.5 12.5 12.5 14.5 10 14.5C7.5 14.5 6.5 12.5 6.5 12.5" stroke="black" stroke-linecap="round" stroke-linejoin="round"/>
</svg>
