<?xml version="1.0" encoding="UTF-8"?>
<svg id="_레이어_1" data-name="레이어 1" xmlns="http://www.w3.org/2000/svg" xmlns:xlink="http://www.w3.org/1999/xlink" viewBox="0 0 210.02 254.67">
  <defs>
    <style>
      .cls-1 {
        fill: #5e4186;
      }

      .cls-2 {
        stroke: url(#_무제_그라디언트_67);
        stroke-miterlimit: 10;
        stroke-width: 16px;
      }

      .cls-2, .cls-3 {
        fill: #fff;
      }

      .cls-4 {
        fill: url(#linear-gradient-2);
      }

      .cls-5 {
        mask: url(#mask-1);
      }

      .cls-6 {
        mask: url(#mask);
      }

      .cls-7 {
        fill: #eb647b;
      }

      .cls-8 {
        fill: url(#linear-gradient-4);
      }

      .cls-9 {
        fill: url(#linear-gradient-3);
      }

      .cls-10 {
        fill: #ef90b0;
      }

      .cls-11 {
        opacity: .15;
      }

      .cls-12 {
        fill: #f7f7f7;
      }

      .cls-13 {
        fill: #f7fbfc;
      }

      .cls-14 {
        fill: #f9e1ed;
      }

      .cls-15 {
        fill: #4d2856;
      }

      .cls-16 {
        fill: #00afcc;
      }

      .cls-17 {
        fill: url(#linear-gradient-5);
        mix-blend-mode: multiply;
      }

      .cls-18 {
        fill: url(#linear-gradient-7);
      }

      .cls-19 {
        fill: url(#linear-gradient-6);
      }

      .cls-20 {
        fill: #ec696b;
      }

      .cls-21 {
        fill: #4c4b4b;
      }

      .cls-22 {
        fill: #f3d67c;
      }

      .cls-23 {
        fill: url(#linear-gradient);
      }

      .cls-24 {
        filter: url(#luminosity-noclip);
      }
    </style>
    <linearGradient id="_무제_그라디언트_67" data-name="무제 그라디언트 67" x1="0" y1="127.34" x2="210.02" y2="127.34" gradientUnits="userSpaceOnUse">
      <stop offset="0" stop-color="#9974b2"/>
      <stop offset=".5" stop-color="#ec7dae"/>
      <stop offset="1" stop-color="#c7acd1"/>
    </linearGradient>
    <linearGradient id="linear-gradient" x1="44.72" y1="1537.15" x2="74.19" y2="1537.15" gradientTransform="translate(69.66 -1478.66) rotate(176.6) scale(1 -1)" gradientUnits="userSpaceOnUse">
      <stop offset="0" stop-color="#f3b0bb"/>
      <stop offset=".66" stop-color="#f094a3"/>
      <stop offset="1" stop-color="#ec748b"/>
    </linearGradient>
    <linearGradient id="linear-gradient-2" x1="51.67" y1="1521.21" x2="76.05" y2="1521.21" gradientTransform="translate(69.66 -1478.66) rotate(176.6) scale(1 -1)" gradientUnits="userSpaceOnUse">
      <stop offset="0" stop-color="#ffdf54"/>
      <stop offset="1" stop-color="#f6b15d"/>
    </linearGradient>
    <linearGradient id="linear-gradient-3" x1="61.68" y1="1505.29" x2="77.22" y2="1505.29" gradientTransform="translate(69.66 -1478.66) rotate(176.6) scale(1 -1)" gradientUnits="userSpaceOnUse">
      <stop offset="0" stop-color="#f1c0d8"/>
      <stop offset="1" stop-color="#9a77b3"/>
    </linearGradient>
    <linearGradient id="linear-gradient-4" x1="68.92" y1="1491.42" x2="78.35" y2="1491.42" gradientTransform="translate(69.66 -1478.66) rotate(176.6) scale(1 -1)" gradientUnits="userSpaceOnUse">
      <stop offset="0" stop-color="#5cbead"/>
      <stop offset=".08" stop-color="#53bdb0"/>
      <stop offset=".38" stop-color="#39babd"/>
      <stop offset=".56" stop-color="#2fb9c2"/>
      <stop offset="1" stop-color="#00b8d6"/>
    </linearGradient>
    <filter id="luminosity-noclip" x="52.53" y="114.84" width="87.85" height="38.81" color-interpolation-filters="sRGB" filterUnits="userSpaceOnUse">
      <feFlood flood-color="#fff" result="bg"/>
      <feBlend in="SourceGraphic" in2="bg"/>
    </filter>
    <filter id="luminosity-noclip-2" x="52.53" y="-8319.34" width="87.85" height="32766" color-interpolation-filters="sRGB" filterUnits="userSpaceOnUse">
      <feFlood flood-color="#fff" result="bg"/>
      <feBlend in="SourceGraphic" in2="bg"/>
    </filter>
    <mask id="mask-1" x="52.53" y="-8319.34" width="87.85" height="32766" maskUnits="userSpaceOnUse"/>
    <linearGradient id="linear-gradient-5" x1="355.87" y1="868.87" x2="435.37" y2="868.87" gradientTransform="translate(834.59 -465.81) rotate(-153.89) scale(1 -1)" gradientUnits="userSpaceOnUse">
      <stop offset="0" stop-color="#000"/>
      <stop offset=".19" stop-color="#1d1d1d"/>
      <stop offset=".56" stop-color="#525252"/>
      <stop offset=".85" stop-color="#737373"/>
      <stop offset="1" stop-color="gray"/>
    </linearGradient>
    <mask id="mask" x="52.53" y="114.84" width="87.85" height="38.81" maskUnits="userSpaceOnUse">
      <g class="cls-24">
        <g class="cls-5">
          <path class="cls-17" d="M52.53,142.95l11.51-25.66c32.96-11.83,76.34,22.98,76.34,22.98l-1.54,5.05c-29.05,10.8-60.83,12.19-86.31-2.37Z"/>
        </g>
      </g>
    </mask>
    <linearGradient id="linear-gradient-6" x1="355.87" y1="868.87" x2="435.37" y2="868.87" gradientTransform="translate(834.59 -465.81) rotate(-153.89) scale(1 -1)" gradientUnits="userSpaceOnUse">
      <stop offset="0" stop-color="#f4aeb7"/>
      <stop offset=".58" stop-color="#ef95a3"/>
      <stop offset="1" stop-color="#ed899a"/>
    </linearGradient>
    <linearGradient id="linear-gradient-7" x1="423.13" y1="-54.27" x2="423.13" y2="-24.5" gradientTransform="translate(498.84 263.7) rotate(-155.99) scale(1 -1)" xlink:href="#linear-gradient"/>
  </defs>
  <path class="cls-2" d="M200.44,145.47c.15-4.39-1.07-8.2-3.13-11.65,1.74-.17,4.68-.7,4.19.12,3.63-6.08-12.71-14.76-15.79-24.21-3.63-11.13-7.77-22.24-14.25-31.99-.13-.19-.25-.38-.38-.57-8.24-12.14-18.58-20.08-32.9-21.04.29-2.52.46-4.88.58-6.86.26-4.46-1.32-5.33-5.11-3.66-2.78,1.23-5.74,2.79-8.58,4.65-6.01-4.75-15.15-6.86-23.35-7.47l-4-7.28-8.14-14.81-6.42-11.68c-.67-1.22-2.1-1.25-2.96-.56,0,0,0,0-.01.01-.16.13-.3.28-.41.46-.04.07-.06.15-.09.22-.06.13-.13.25-.16.39-.05.23-.05.48,0,.74l1.73,10.22,1.8,10.68,2.06,12.18c-2.14.19-4.1,2.1-6.04,3.02-7.07,3.38-12.54,2.91-17.51-3.59-.6,9.1.29,6.89,6.53,13.86-4.79-.56-9.59-.85-14.38-.76-.01-.02-.02-.04-.03-.06-.69.01-1.37.07-2.06.1-.57.02-1.14.04-1.72.08-1.9.12-3.8.29-5.7.56-1.95.28-3.91.66-5.85,1.16-1.94.5-3.87,1.11-5.75,1.82-1.25.47-2.47,1.01-3.67,1.58-9.69,4.57-17.7,12.14-20.11,22.38-.19.8-.34,1.61-.46,2.41-.36,2.41-.43,4.81-.23,7.19,1.22,14.76,12.46,28.47,24.19,36.03,6.74,4.34,14.21,7.39,21.95,9.55-9.28,20.06-18.68,40.09-26.85,60.57-.47,1.18-.93,2.52-.43,3.69.32.74.97,1.27,1.59,1.77,14.66,11.75,29.05,19.6,47.95,21.45,11,1.08,22.37,2.05,33.19.42-.48,5.57-2.89,11.24-7.9,13.47,3.49,3.43,8.45,4.89,13.26,5.8,7.54,1.42,16.26,1.44,21.79-3.88,1.32-1.27,2.33-2.77,3.08-4.4.95.95,2.05,1.71,3.38,2.16,3.98,1.34,8.28-.68,11.72-3.08,5.44-3.79,10.27-9.05,11.7-15.49.62.13,1.47.18,2.71.16,3.52-.05,7.53-3.35,10.07-5.48,4.45-3.73,9.19-7.95,10.12-13.67.73-4.49-1.16-8.97-4.12-12.51,9.79-4.33,15.46-22.25,7.12-29.19-.11-.09-.24-.16-.36-.24,4.62-1.43,7.84-5.79,8.15-14.77Z"/>
  <g>
    <path class="cls-3" d="M87.8,46.7c1.72-3.19,3.95-6.12,6.12-8.51,2.15-2.37,3.54-2.25,4.75.98,2.47,6.55,6.5,18.84,2.02,25.22-1.55,2.22-4.05,3.75-6.73,4.13-1.63.23-3.35.04-4.76-.8-1.29-.77-2.23-2.02-2.92-3.36-2.98-5.71-1.49-12.09,1.52-17.67Z"/>
    <path class="cls-7" d="M90.28,42.86c-3.86.37-7.73.92-11.6.68-8.16-.5-16.03-4.69-21-11.19-.8,12.14,7.93,22.74,17,30.85,6.28,5.61,13.12,10.81,21,13.77,11.2,4.2,38.23,1.91,35.79-15.95-2.31-16.95-28.59-19.37-41.18-18.15Z"/>
    <path class="cls-12" d="M64.04,117.29c-12.24,27.29-25.56,54.21-36.64,81.97-.47,1.18-.94,2.52-.43,3.69.32.74.97,1.27,1.59,1.77,14.66,11.75,29.04,19.6,47.95,21.45,15.47,1.52,31.68,2.93,46.05-3.01,1.6-.66,3.21-1.44,4.42-2.69,2.71-2.82,2.72-7.18,2.7-11.09-.09-14.33,2.74-27.72,4.64-41.79.49-3.64,7.85-25.91,6.07-27.33,0,0-43.39-34.81-76.34-22.98Z"/>
    <g>
      <path class="cls-23" d="M116.74,70.18l-28.19-6.37-2.62-15.54c6.73,4.57,14.24,7.57,23.01,7.69l7.81,14.21Z"/>
      <path class="cls-4" d="M108.94,55.97c-8.76-.12-16.28-3.12-23.01-7.69l-2.88-17.08c4.64,2.16,9.51,3.68,14.66,4.32l11.23,20.44Z"/>
      <path class="cls-9" d="M89.57,20.71l8.14,14.81c-5.16-.64-10.02-2.16-14.66-4.32l-1.8-10.68c2.71.29,5.49.36,8.33.19Z"/>
      <path class="cls-8" d="M79.51,10.3c-.37-2.17,2.58-3.2,3.64-1.27l6.42,11.68c-2.84.16-5.62.1-8.33-.19l-1.73-10.22Z"/>
      <g class="cls-11">
        <path class="cls-15" d="M80.74,8.16l18.87,59.49-11.06-3.84-2.62-15.54-2.88-17.08-1.8-10.68-1.73-10.22c-.18-1.06.43-1.84,1.23-2.14Z"/>
      </g>
    </g>
    <g class="cls-6">
      <path class="cls-19" d="M52.53,142.95l11.51-25.66c32.96-11.83,76.34,22.98,76.34,22.98l-1.54,5.05c-29.05,10.8-60.83,12.19-86.31-2.37Z"/>
    </g>
    <g>
      <path class="cls-12" d="M8.11,93.12c-.26-3.17-.06-6.38.69-9.6,3.61-15.35,19.78-24.73,35.39-26.94,16.8-2.38,33.79,1.38,50.4,4.85,9.19,1.92,18.47,3.77,27.06,7.55,17.14,7.54,27.92,26.11,18.74,43.98-7.03,13.67-21.29,23.16-35.81,27.11-13,3.54-26.81,3.32-40.07.96-11.34-2.02-22.53-5.65-32.22-11.89-11.73-7.55-22.97-21.27-24.19-36.03Z"/>
      <path class="cls-14" d="M39.53,123.49c-2.09,2.23-4.28,4.23-6.52,6.08-.24-.15-.48-.28-.71-.43-11.73-7.55-22.97-21.27-24.19-36.03-.26-3.17-.06-6.38.69-9.6,3.61-15.35,19.78-24.73,35.39-26.94,3.15-.45,6.31-.68,9.48-.73,11.25,20.6,1.92,50.7-14.14,67.64Z"/>
      <path class="cls-20" d="M78.66,114.32c1.25,5.98,7.11,9.81,13.09,8.56,5.98-1.25,9.81-7.11,8.56-13.09-1.25-5.98-7.11-9.81-13.09-8.56-5.98,1.25-9.81,7.11-8.56,13.09Z"/>
      <path class="cls-20" d="M30.98,66.48c1.38-.36,2.29,1.77,1,2.27-4.76,1.83-6.2,5.55-8.7,9.28-.88,1.32-3.49.53-3.45-1.16.13-5.64,5.88-9.02,11.15-10.39Z"/>
      <path class="cls-21" d="M91.46,76.82c-1.37,2.79-.21,6.16,2.58,7.52,2.79,1.37,6.16.21,7.52-2.58,1.37-2.79.21-6.16-2.58-7.52-2.79-1.37-6.16-.21-7.52,2.58Z"/>
    </g>
    <path class="cls-10" d="M129.56,205.49c4.51,5.19,8.96,10.71,11.02,17.27,2.06,6.56,1.24,14.46-3.72,19.23-5.53,5.32-14.25,5.3-21.79,3.88-4.81-.91-9.77-2.37-13.26-5.8,5.67-2.53,8.02-9.46,8-15.67-.03-6.21-1.78-12.34-1.58-18.54.12-3.74,2.61-18.02,7.86-17.47,3,.31,11.26,14.54,13.49,17.11Z"/>
    <path class="cls-22" d="M192.64,160.49c-1.14-.95-2.62-1.34-4.04-1.75-14.27-4.16-26.82-13.11-36.94-23.99-5.53-5.94-29.79-32.2-24.76-41.48-9.23,17.04-4.74,38.89,6.1,54.95,7.06,10.45,16.45,19,26.35,26.7,5.21,4.05,14.82,15.46,21.42,15.72,12.48.5,21.49-22.15,11.87-30.15Z"/>
    <path class="cls-16" d="M179.52,215.87c4.45-3.72,9.19-7.95,10.12-13.67.92-5.67-2.29-11.32-6.61-15.1-4.32-3.78-9.67-6.12-14.72-8.85-20.36-11.02-36.64-29.38-45.14-50.92-.41,3.09-.83,6.18-1.05,9.29-1.7,23.82,8.7,48.19,27.07,63.43,6.04,5.01,10.62,9.22,14.48,16.02,2.27,3.99.01,5.35,5.78,5.28,3.52-.05,7.53-3.35,10.07-5.48Z"/>
    <path class="cls-7" d="M154.52,142.22c9.53,10.58,44.84,34.16,45.92,3.26.72-20.66-27.9-29.14-39.99-41.73-3.36-3.5-6.03-7.63-9.38-11.15-10.71-11.23-28.19-16.13-34.61-30.34-1.36,8.97-.29,18.26,3.05,26.6,2.57,6.42,6.43,12.21,10.26,17.95,4.35,6.53,8.71,13.05,13.06,19.58,3.65,5.47,7.31,10.95,11.7,15.83Z"/>
    <path class="cls-10" d="M171.46,77.75c6.48,9.74,10.62,20.85,14.25,31.99,3.08,9.45,6.75,20.09,15.79,24.21-2.03-.92-7.75.83-10.69-.08-3.64-1.12-7.26-3.58-10.33-5.78-7.47-5.35-13.15-12.65-18.16-20.26-5.89-8.95-13.88-16.37-22.56-22.57-5.92-4.23-19.58-8.25-23.15-14.72-7.81-14.13,10.95-14.83,20.01-14.55,15.15.46,25.9,8.6,34.44,21.19.13.19.26.38.38.57Z"/>
    <path class="cls-1" d="M144,184.75c5.38,5.14,11.43,9.6,16.16,15.34,4.73,5.74,8.08,13.21,6.72,20.52-1.25,6.72-6.24,12.18-11.85,16.08-3.44,2.4-7.75,4.42-11.72,3.08-5.06-1.71-6.91-7.71-8.72-12.73-6.35-17.6-20.16-33.28-20.45-52.82-.04-2.83.19-5.67.84-8.43,1.37-5.88,4.47-11.81,8.05-16.62,3.22,15.04,9.45,24.6,20.98,35.59Z"/>
    <path class="cls-13" d="M121.94,52.48c3.72-2.87,7.88-5.17,11.7-6.86,3.79-1.68,5.37-.8,5.11,3.66-.52,9.05-2.19,25.69-10.83,30.9-3,1.81-6.76,2.31-10.13,1.36-2.05-.58-3.99-1.71-5.22-3.45-1.12-1.59-1.57-3.56-1.7-5.5-.53-8.32,4.58-15.09,11.06-20.11Z"/>
    <path class="cls-18" d="M133.74,50.59s.6,15.46-9.81,22.03c0,0-3.33-7.01-5.63-8.03-2.31-1.03,15.44-13.99,15.44-13.99Z"/>
  </g>
</svg>