<svg width="31" height="31" viewBox="0 0 31 31" fill="none" xmlns="http://www.w3.org/2000/svg">
<g clip-path="url(#clip0_426_633)">
<path d="M13.328 19.2471C13.121 19.2486 12.9157 19.2085 12.7243 19.1293C12.533 19.0501 12.3594 18.9334 12.214 18.786C10.8321 17.3988 10.0562 15.5205 10.0562 13.5625C10.0562 11.6044 10.8321 9.72618 12.214 8.33899L18.0265 2.52649C19.4215 1.13149 21.2776 0.362305 23.25 0.362305C25.2223 0.362305 27.0785 1.13149 28.4735 2.52649C29.8554 3.91368 30.6313 5.79194 30.6313 7.74999C30.6313 9.70804 29.8554 11.5863 28.4735 12.9735L25.8172 15.6298C25.5185 15.9076 25.1237 16.0587 24.7159 16.0513C24.3081 16.0439 23.919 15.8786 23.6306 15.5902C23.3422 15.3017 23.1769 14.9127 23.1695 14.5049C23.1621 14.0971 23.3132 13.7023 23.591 13.4036L26.2473 10.7473C26.8382 10.1537 27.2401 9.39855 27.4026 8.57691C27.5651 7.75528 27.4807 6.90395 27.1602 6.13016C26.8397 5.35637 26.2974 4.69474 25.6016 4.2286C24.9057 3.76247 24.0875 3.5127 23.25 3.51074C22.1185 3.51074 21.0528 3.95249 20.2527 4.75268L14.4402 10.5652C13.6463 11.3607 13.2004 12.4386 13.2004 13.5625C13.2004 14.6864 13.6463 15.7643 14.4402 16.5598C14.6599 16.7802 14.8094 17.0607 14.8698 17.366C14.9303 17.6713 14.8989 17.9877 14.7797 18.2752C14.6606 18.5627 14.4589 18.8084 14.2002 18.9814C13.9415 19.1544 13.6373 19.2468 13.3261 19.2471H13.328Z" fill="white"/>
<path d="M7.74997 30.6376C6.77964 30.6389 5.81863 30.4484 4.92219 30.077C4.02576 29.7056 3.21158 29.1606 2.52647 28.4735C1.14456 27.0863 0.368652 25.208 0.368652 23.25C0.368652 21.2919 1.14456 19.4136 2.52647 18.0265L5.18279 15.3701C5.48147 15.0924 5.87625 14.9413 6.28406 14.9487C6.69187 14.9561 7.08092 15.1214 7.36933 15.4098C7.65774 15.6982 7.82304 16.0872 7.83043 16.4951C7.83783 16.9029 7.68674 17.2977 7.40897 17.5963L4.75266 20.2526C4.16179 20.8462 3.75981 21.6014 3.59735 22.423C3.43489 23.2447 3.51922 24.096 3.83971 24.8698C4.16021 25.6436 4.70254 26.3052 5.39838 26.7713C6.09421 27.2375 6.91244 27.4873 7.74997 27.4892C8.88341 27.4892 9.9471 27.0475 10.7473 26.2473L16.5598 20.4348C17.3537 19.6393 17.7995 18.5613 17.7995 17.4375C17.7995 16.3136 17.3537 15.2356 16.5598 14.4401C16.282 14.1415 16.1309 13.7467 16.1383 13.3389C16.1457 12.9311 16.311 12.542 16.5994 12.2536C16.8878 11.9652 17.2769 11.7999 17.6847 11.7925C18.0925 11.7851 18.4873 11.9362 18.786 12.214C20.1679 13.6011 20.9438 15.4794 20.9438 17.4375C20.9438 19.3955 20.1679 21.2738 18.786 22.661L12.9735 28.4735C12.2884 29.1606 11.4742 29.7056 10.5778 30.077C9.68132 30.4484 8.72031 30.6389 7.74997 30.6376Z" fill="white"/>
</g>
<defs>
<clipPath id="clip0_426_633">
<rect width="31" height="31" fill="white"/>
</clipPath>
</defs>
</svg>
