<svg width="33" height="31" viewBox="0 0 33 31" fill="none" xmlns="http://www.w3.org/2000/svg">
<path d="M26.95 26.5627L18.2875 18.7069C17.6 19.2057 16.8094 19.6005 15.9156 19.8915C15.0219 20.1824 14.0708 20.3279 13.0625 20.3279C10.5646 20.3279 8.45052 19.5434 6.72031 17.9743C4.9901 16.4052 4.125 14.488 4.125 12.2227C4.125 9.95735 4.9901 8.04014 6.72031 6.47104C8.45052 4.90195 10.5646 4.1174 13.0625 4.1174C15.5604 4.1174 17.6745 4.90195 19.4047 6.47104C21.1349 8.04014 22 9.95735 22 12.2227C22 13.1371 21.8396 13.9996 21.5188 14.8101C21.1979 15.6206 20.7625 16.3376 20.2125 16.9611L28.875 24.817L26.95 26.5627ZM13.0625 17.834C14.7812 17.834 16.2422 17.2885 17.4453 16.1974C18.6484 15.1063 19.25 13.7814 19.25 12.2227C19.25 10.664 18.6484 9.33906 17.4453 8.24797C16.2422 7.15687 14.7812 6.61133 13.0625 6.61133C11.3438 6.61133 9.88281 7.15687 8.67969 8.24797C7.47656 9.33906 6.875 10.664 6.875 12.2227C6.875 13.7814 7.47656 15.1063 8.67969 16.1974C9.88281 17.2885 11.3438 17.834 13.0625 17.834Z" fill="#1D1B20"/>
</svg>
