<svg width="26" height="24" viewBox="0 0 24 26" fill="none" xmlns="http://www.w3.org/2000/svg">
<path fill-rule="evenodd" clip-rule="evenodd" d="M1.2672 1.94159C1.30658 1.61046 1.42267 1.29308 1.60623 1.01469C1.7898 0.736298 2.03578 0.504568 2.32461 0.337921C2.61345 0.171274 2.93718 0.0743054 3.27006 0.0547247C3.60295 0.0351439 3.93582 0.0934908 4.2422 0.225127C5.79095 0.88721 9.26178 2.46075 13.6659 5.00263C18.0716 7.54596 21.1705 9.767 22.5166 10.7747C23.6657 11.6366 23.6687 13.3458 22.518 14.2105C21.1851 15.2124 18.1241 17.4043 13.6659 19.9797C9.20345 22.5551 5.77345 24.1097 4.23928 24.763C2.91803 25.3274 1.43928 24.4714 1.2672 23.0466C1.06595 21.3812 0.689697 17.5997 0.689697 12.4926C0.689697 7.38846 1.06449 3.60846 1.2672 1.94159Z" fill="black"/>
</svg>
