<svg width="29" height="29" viewBox="0 0 29 29" fill="none" xmlns="http://www.w3.org/2000/svg">
<path d="M24.6228 4.37643C23.2966 3.04153 21.7194 1.98224 19.982 1.25962C18.2447 0.537 16.3815 0.165326 14.4998 0.166017C10.6984 0.166017 7.05266 1.67613 4.36464 4.36415C1.67662 7.05217 0.166504 10.6979 0.166504 14.4994C0.166504 18.3008 1.67662 21.9465 4.36464 24.6345C7.05266 27.3226 10.6984 28.8327 14.4998 28.8327C21.1828 28.8327 26.7548 24.2639 28.3494 18.0827H24.6228C23.8847 20.1781 22.5146 21.9928 20.7014 23.2764C18.8882 24.5601 16.7214 25.2494 14.4998 25.2493C11.6488 25.2493 8.91446 24.1168 6.89844 22.1007C4.88242 20.0847 3.74984 17.3504 3.74984 14.4994C3.74984 11.6483 4.88242 8.91397 6.89844 6.89795C8.91446 4.88194 11.6488 3.74935 14.4998 3.74935C17.474 3.74935 20.1257 4.9856 22.0607 6.93852L16.2915 12.7077H28.8332V0.166017L24.6228 4.37643Z" fill="url(#paint0_linear_708_907)"/>
<defs>
<linearGradient id="paint0_linear_708_907" x1="14.4998" y1="0.166016" x2="14.4998" y2="28.8327" gradientUnits="userSpaceOnUse">
<stop stop-color="#F9ED46"/>
<stop offset="0.605" stop-color="#E4D02A"/>
<stop offset="1" stop-color="#C3A201"/>
</linearGradient>
</defs>
</svg>
