<svg width="21" height="18" viewBox="0 0 21 18" fill="none" xmlns="http://www.w3.org/2000/svg">
<path d="M9.06077 8.5119L1.16675 6.69436V1.50782C1.16675 1.26222 1.25349 1.10979 1.44784 0.988054C1.65282 0.859654 1.84801 0.839856 2.08451 0.932442L19.7965 8.39126C19.9548 8.46509 20.0457 8.54961 20.0996 8.63289C20.154 8.71683 20.1928 8.83302 20.1928 9.00482C20.1928 9.17611 20.1541 9.29008 20.101 9.37116C20.048 9.45194 19.9583 9.53443 19.7995 9.6058L2.08204 17.0649C1.84579 17.1588 1.65165 17.1394 1.44725 17.0108C1.25215 16.888 1.16619 16.7355 1.16675 16.4916V16.4905V11.3039L9.06077 9.4864V8.5119ZM0.666752 16.4905V10.906V16.4905Z" fill="black" stroke="black"/>
</svg>
