<?xml version="1.0" encoding="UTF-8"?>
<svg id="_레이어_1" data-name="레이어_1" xmlns="http://www.w3.org/2000/svg" version="1.1" viewBox="0 0 38 49">
  <!-- Generator: Adobe Illustrator 29.2.1, SVG Export Plug-In . SVG Version: 2.1.0 Build 116)  -->
  <defs>
    <style>
      .st0 {
        fill: #231815;
      }

      .st0, .st1 {
        stroke: #1c1d1b;
        stroke-miterlimit: 10;
        stroke-width: 2px;
      }

      .st1 {
        fill: #040000;
      }
    </style>
  </defs>
  <path class="st0" d="M13.41,43.18s-.02,0-.03,0c-.19,0-.36-.44-.4-1.03l-1.42-23.37c-.04-.62.09-1.18.29-1.23.2-.06.39.4.43,1.03l1.42,23.37c.04.62-.09,1.18-.29,1.23Z"/>
  <path class="st0" d="M19.5,41.93c0,.63-.17,1.14-.38,1.14s-.38-.51-.38-1.14v-23.41c0-.63.17-1.14.38-1.14s.38.51.38,1.14v23.41Z"/>
  <path class="st0" d="M26.87,18.78l-1.46,23.37c-.04.59-.22,1.04-.42,1.03-.01,0-.02,0-.03,0-.21-.06-.35-.61-.31-1.24l1.46-23.37c.04-.62.24-1.08.45-1.03.21.06.35.61.31,1.24Z"/>
  <path class="st1" d="M35.82,5.27h-7.28l-1.09-2.55c-.3-.72-1-1.18-1.78-1.18h-13.1c-.78,0-1.48.46-1.78,1.18l-1.09,2.55H2.42c-.73,0-1.32.59-1.32,1.32v4.56c0,.73.59,1.32,1.32,1.32h.45l2.15,33.05c.06.86.77,1.53,1.63,1.53h24.95c.86,0,1.57-.67,1.63-1.53l2.15-33.05h.45c.73,0,1.32-.59,1.32-1.32v-4.56c0-.73-.59-1.32-1.32-1.32ZM11.41,2.98c.2-.47.66-.77,1.17-.77h13.1c.51,0,.97.3,1.17.77l.97,2.29H10.43l.97-2.29ZM32.55,45.49c-.03.5-.45.9-.96.9H6.65c-.5,0-.92-.39-.96-.9L3.54,12.48h31.16l-2.15,33.01ZM36.47,11.15c0,.36-.29.65-.65.65H2.42c-.36,0-.65-.29-.65-.65v-4.56c0-.36.29-.65.65-.65h7.5s0,0,0,0h18.39s0,0,0,0c0,0,0,0,0,0h7.5c.36,0,.65.29.65.65v4.56Z"/>
</svg>