<?xml version="1.0" encoding="UTF-8"?>
<svg xmlns="http://www.w3.org/2000/svg" version="1.1" viewBox="0 0 260 215">
  <!-- Generator: Adobe Illustrator 29.2.1, SVG Export Plug-In . SVG Version: 2.1.0 Build 116)  -->
  <defs>
    <style>
      .st0 {
        fill: #198ec4;
      }

      .st1 {
        fill: none;
      }

      .st2 {
        fill: #221f20;
      }

      .st2, .st3 {
        mix-blend-mode: soft-light;
      }

      .st4 {
        isolation: isolate;
      }

      .st3 {
        fill: #fff;
      }

      .st5 {
        fill: #d4ebef;
      }
    </style>
  </defs>
  <g class="st4">
    <g id="_레이어_1" data-name="레이어_1">
      <g>
        <g>
          <path class="st5" d="M100.83,84.71c7.69-3.41,16.87-7.83,16.87-7.83,0,0,21.24-9.64,30.12-41.96,0,0,5.42-15.66,3.81-27.51,0,0,7.03-9.04,20.88-6.42,0,0,24.5,24.09,8.03,69.07,0,0,38.75-2.81,62.44,4.02,0,0,8.29,3.76,8.03,15.56-.1,4.37-.4,10.44-5.42,16.77,0,0,11.74,2.51,11.78,21.82.04,17.8-13.19,22.15-13.19,22.15,0,0,7.67,4.61,5.97,18.37-1.54,12.42-11.39,14.56-11.39,14.56,0,0,4.15,20.01-12.45,26.9,0,0-42.25,6.67-79.69,3.36-7.56-.67-35.46-2.63-47-13.2-4.68-4.29-5.83-8.91-5.85-12.45-.02-3.67,0-91.05,0-91.05,0,0-.12-8.96,7.05-12.15Z"/>
          <rect class="st0" y="75.54" width="85.13" height="134.92" rx="16.06" ry="16.06"/>
        </g>
        <path class="st2" d="M3.41,159.77v35.19s-.71,12.68,13.33,12.68h52.46s13.33.71,13.33-15.96v-34.98s-2.46,16.07-17.32,17.16c-14.87,1.09-39.68,1.26-48.86-1.15-10-2.62-11.64-10.33-12.95-12.95Z"/>
        <path class="st3" d="M3.41,126.57v-35.19s-.71-12.68,13.33-12.68h52.46s13.33-.71,13.33,15.96v34.98s-2.46-16.07-17.32-17.16c-14.87-1.09-39.68-1.26-48.86,1.15-10,2.62-11.64,10.33-12.95,12.95Z"/>
        <path class="st2" d="M9.81,203.38s-4.26-1.97-4.43-7.87v-26.89s1.8,6.56,12.62,8.03c10.82,1.48,23.44.82,23.44.82,0,0-19.4,4.86-32.02,1.75,0,0-1.86,16.61.38,24.15Z"/>
        <line class="st1" x1="14.23" y1="184.58" x2="14.23" y2="184.69"/>
        <path class="st2" d="M172.17,6.1s12.24,40.66-7.65,66.89c0,0,11.14-.44,14.21-3.5,0,0,13.99-38.47-6.56-63.39Z"/>
        <path class="st2" d="M96.86,159.12v31.59s7.21,21.2,74.43,21.2c46.1,0,65.61-2.88,64.27-28.36,0,0-34.36,16.1-75.72,9.93-41.37-6.16-59.88-28.24-62.97-34.36Z"/>
        <path class="st2" d="M99.32,170.92v18.1s11.02,20.56,69.92,21.22c0,0-42.61-.99-65.31-23.2l-4.61-16.12Z"/>
        <path class="st3" d="M6.8,93.87s-.22-2.19.55-4.04c.76-1.86,2.19-7.65,10.82-7.65h51.37s10.6-.33,10.6,11.69c0,0-.66-5.85-8.09-5.85H17.84s-8.2-.49-11.04,5.85Z"/>
      </g>
    </g>
  </g>
</svg>