<svg width="388" height="89" viewBox="0 0 388 89" fill="none" xmlns="http://www.w3.org/2000/svg">
<path d="M40.472 13.784C40.472 16.024 40.44 18.232 40.376 20.408C40.376 22.52 40.376 24.632 40.376 26.744C43 26.616 45.336 26.616 47.384 26.744C47.384 23.48 47.384 20.28 47.384 17.144C47.448 13.944 47.512 10.712 47.576 7.44799C47.576 5.72 48.056 4.344 49.016 3.32C49.976 2.296 51.864 1.752 54.68 1.68799C57.496 1.62399 59.448 2.072 60.536 3.032C61.624 3.992 62.168 5.272 62.168 6.872C62.168 12.568 62.168 18.008 62.168 23.192C62.232 28.376 62.232 33.496 62.168 38.552C62.104 43.608 61.976 48.76 61.784 54.008C61.592 59.192 61.336 64.664 61.016 70.424C60.888 72.344 60.152 73.848 58.808 74.936C57.528 76.024 55.832 76.504 53.72 76.376C51.736 76.248 50.328 75.64 49.496 74.552C48.664 73.464 48.216 71.864 48.152 69.752C47.96 64.888 47.8 60.024 47.672 55.16C47.608 50.232 47.544 45.272 47.48 40.28C46.392 40.344 45.176 40.376 43.832 40.376C42.552 40.376 41.272 40.376 39.992 40.376C39.8 44.216 39.576 47.96 39.32 51.608C39.128 55.192 38.872 58.648 38.552 61.976C38.36 64.216 37.752 65.912 36.728 67.064C35.768 68.152 33.848 68.696 30.968 68.696C29.624 68.696 28.536 68.568 27.704 68.312C26.936 68.056 26.328 67.64 25.88 67.064C25.496 66.488 25.24 65.784 25.112 64.952C24.984 64.12 24.92 63.128 24.92 61.976C24.856 58.072 24.792 54.392 24.728 50.936C24.664 47.416 24.632 43.96 24.632 40.568C24.632 37.176 24.632 33.752 24.632 30.296C24.696 26.84 24.76 23.192 24.824 19.352C22.072 19.352 18.936 19.352 15.416 19.352C11.96 19.288 8.696 19.192 5.624 19.064C4.536 19 3.48 18.456 2.456 17.432C1.432 16.344 0.952 14.52 1.016 11.96C1.08 9.848 1.464 8.28 2.168 7.256C2.872 6.168 4.152 5.56 6.008 5.432C7.992 5.304 10.136 5.20799 12.44 5.144C14.808 5.016 17.144 4.92 19.448 4.856C21.816 4.728 24.12 4.632 26.36 4.568C28.6 4.504 30.616 4.472 32.408 4.472C33.816 4.472 35.032 4.504 36.056 4.568C37.08 4.568 37.912 4.728 38.552 5.048C39.192 5.304 39.672 5.72 39.992 6.296C40.312 6.872 40.472 7.704 40.472 8.792V13.784ZM80.12 3.128C81.208 4.216 81.72 5.49599 81.656 6.96799C81.656 12.664 81.624 18.2 81.56 23.576C81.496 28.888 81.368 34.168 81.176 39.416C80.984 44.664 80.696 49.976 80.312 55.352C79.992 60.728 79.544 66.328 78.968 72.152C78.84 74.008 78.136 75.48 76.856 76.568C75.64 77.656 73.976 78.136 71.864 78.008C69.944 77.88 68.568 77.272 67.736 76.184C66.904 75.16 66.456 73.592 66.392 71.48C66.264 65.272 66.2 59.544 66.2 54.296C66.264 49.048 66.328 43.928 66.392 38.936C66.456 33.88 66.52 28.792 66.584 23.672C66.712 18.488 66.84 12.92 66.968 6.96799C66.968 5.304 67.448 3.992 68.408 3.032C69.368 2.008 71.224 1.496 73.976 1.496C76.984 1.496 79.032 2.04 80.12 3.128ZM148.03 25.976C147.966 19.832 147.998 13.56 148.126 7.16C148.126 4.728 149.118 3.128 151.102 2.36C152.638 1.784 154.398 1.528 156.382 1.592C158.366 1.592 160.094 1.88 161.566 2.456C162.59 2.84 163.262 3.384 163.582 4.088C163.966 4.792 164.158 5.784 164.158 7.064C164.222 10.072 164.254 13.144 164.254 16.28C164.254 19.416 164.222 22.552 164.158 25.688C164.158 28.76 164.094 31.768 163.966 34.712C163.902 37.656 163.774 40.408 163.582 42.968C163.454 44.376 163.07 45.496 162.43 46.328C161.854 47.096 160.926 47.736 159.646 48.248C159.262 48.376 158.718 48.504 158.014 48.632C157.31 48.696 156.542 48.76 155.71 48.824C154.878 48.824 154.078 48.792 153.31 48.728C152.542 48.6 151.934 48.44 151.486 48.248C150.654 47.864 149.918 47.288 149.278 46.52C148.702 45.688 148.414 44.632 148.414 43.352C148.286 37.912 148.158 32.12 148.03 25.976ZM160.99 81.752C160.798 83.096 160.35 84.056 159.646 84.632C159.006 85.208 158.142 85.56 157.054 85.688C154.622 85.88 151.518 86.04 147.742 86.168C144.03 86.36 140.158 86.488 136.125 86.552C132.094 86.68 128.158 86.776 124.318 86.84C120.478 86.904 117.246 86.936 114.622 86.936C112.254 86.936 110.558 86.456 109.534 85.496C108.51 84.6 107.87 83.032 107.614 80.792C107.486 79.704 107.358 78.136 107.23 76.088C107.166 74.04 107.07 71.864 106.942 69.56C106.814 67.256 106.686 64.984 106.558 62.744C106.494 60.44 106.462 58.552 106.462 57.08C106.462 55.608 106.814 54.52 107.518 53.816C108.286 53.048 109.31 52.632 110.59 52.568C111.742 52.504 113.566 52.44 116.062 52.376C118.622 52.248 121.502 52.12 124.702 51.992C127.902 51.864 131.262 51.736 134.781 51.608C138.366 51.48 141.758 51.384 144.958 51.32C148.222 51.192 151.134 51.096 153.694 51.032C156.254 50.968 158.174 50.936 159.454 50.936C160.35 50.936 160.99 51.192 161.374 51.704C161.822 52.216 162.046 52.92 162.046 53.816C162.11 55.544 162.11 57.752 162.046 60.44C161.982 63.064 161.886 65.752 161.758 68.504C161.63 71.256 161.502 73.816 161.374 76.184C161.246 78.616 161.118 80.472 160.99 81.752ZM147.262 73.4C147.326 71.928 147.326 70.264 147.262 68.408C147.262 66.552 147.23 64.696 147.166 62.84C145.758 62.904 143.87 63 141.502 63.128C139.198 63.192 136.766 63.288 134.206 63.416C131.646 63.48 129.182 63.576 126.814 63.704C124.446 63.832 122.526 63.928 121.054 63.992C121.182 66.104 121.31 68.056 121.438 69.848C121.566 71.576 121.694 73.464 121.822 75.512C123.102 75.512 124.798 75.48 126.91 75.416C129.086 75.416 131.326 75.384 133.63 75.32C135.934 75.32 138.142 75.288 140.254 75.224C142.43 75.224 144.158 75.192 145.438 75.128C146.142 75.064 146.622 74.936 146.878 74.744C147.134 74.552 147.262 74.136 147.262 73.496V73.4ZM139.774 34.424C138.558 37.304 136.798 39.8 134.494 41.912C132.19 44.024 129.406 45.688 126.142 46.904C122.942 48.056 119.358 48.632 115.39 48.632C110.974 48.632 107.134 48.088 103.87 47C100.606 45.848 97.8855 44.248 95.7095 42.2C93.5335 40.152 91.9015 37.656 90.8135 34.712C89.7895 31.768 89.2775 28.504 89.2775 24.92C89.2775 21.464 89.8855 18.264 91.1015 15.32C92.3815 12.312 94.2055 9.688 96.5735 7.44799C98.9415 5.208 101.854 3.448 105.31 2.168C108.83 0.887997 112.798 0.247995 117.214 0.247995C121.31 0.247995 124.894 0.919996 127.966 2.264C131.038 3.544 133.598 5.304 135.646 7.544C137.694 9.72 139.198 12.312 140.158 15.32C141.182 18.328 141.694 21.496 141.694 24.824C141.694 28.28 141.054 31.48 139.774 34.424ZM123.358 32.792C125.406 30.872 126.43 28.088 126.43 24.44C126.43 20.792 125.47 18.04 123.55 16.184C121.63 14.264 119.134 13.304 116.062 13.304C112.414 13.304 109.566 14.328 107.518 16.376C105.534 18.36 104.542 21.176 104.542 24.824C104.542 28.408 105.534 31.096 107.518 32.888C109.502 34.68 112.03 35.576 115.102 35.576C118.558 35.576 121.31 34.648 123.358 32.792ZM271.921 72.344C271.793 73.752 271.281 74.872 270.385 75.704C269.553 76.6 268.593 77.24 267.505 77.624C266.801 77.88 265.809 77.976 264.529 77.912C263.249 77.848 262.161 77.656 261.265 77.336C260.433 77.016 259.697 76.472 259.057 75.704C258.481 75 258.193 74.008 258.193 72.728C258.129 67.16 258.097 61.72 258.097 56.408C258.097 51.096 258.097 45.816 258.097 40.568C258.161 35.256 258.225 29.912 258.289 24.536C258.417 19.096 258.545 13.464 258.673 7.64C258.737 5.08 259.729 3.384 261.649 2.55199C263.185 1.848 264.945 1.528 266.929 1.592C268.913 1.592 270.641 1.944 272.113 2.648C273.137 3.16 273.809 3.8 274.129 4.568C274.513 5.272 274.705 6.264 274.705 7.544C274.833 18.232 274.673 29.048 274.225 39.992C273.777 50.872 273.009 61.656 271.921 72.344ZM228.625 53.24C227.089 52.024 225.649 50.84 224.305 49.688C221.617 53.016 219.025 55.992 216.529 58.616C214.033 61.176 211.441 63.576 208.753 65.816C207.409 66.904 205.809 67.288 203.953 66.968C202.033 66.648 200.433 65.944 199.153 64.856C197.873 63.768 197.073 62.392 196.753 60.728C196.497 59.384 196.849 58.072 197.809 56.792C199.729 54.296 202.161 51.288 205.105 47.768C208.113 44.248 211.153 40.568 214.225 36.728C213.905 32.44 213.617 28.024 213.361 23.48C213.169 18.936 212.977 14.392 212.785 9.848C212.657 7.672 213.297 6.008 214.705 4.856C216.177 3.704 218.673 3.032 222.193 2.84C225.905 2.64799 228.433 3.064 229.777 4.088C231.185 5.112 231.889 6.456 231.889 8.12C231.889 9.848 231.889 11.992 231.889 14.552C231.889 17.112 231.857 19.736 231.793 22.424C231.793 25.048 231.761 27.544 231.697 29.912C231.697 32.28 231.665 34.104 231.601 35.384C233.009 36.472 234.577 37.72 236.305 39.128C238.097 40.472 239.857 41.88 241.585 43.352C243.377 44.76 245.073 46.168 246.673 47.576C248.337 48.984 249.777 50.2 250.993 51.224C251.377 51.544 251.665 51.896 251.857 52.28C252.049 52.664 252.113 53.176 252.049 53.816C251.921 55.8 251.217 57.656 249.937 59.384C248.657 61.048 247.089 62.136 245.233 62.648C244.465 62.84 243.601 62.744 242.641 62.36C241.297 61.656 239.825 60.824 238.225 59.864C236.689 58.904 235.089 57.88 233.425 56.792C231.825 55.64 230.225 54.456 228.625 53.24ZM316.453 26.264C319.333 27.8 322.373 29.432 325.573 31.16C328.773 32.824 331.845 34.584 334.789 36.44C335.685 37.016 336.133 38.072 336.133 39.608C336.069 41.208 335.557 42.84 334.597 44.504C333.701 46.168 332.453 47.352 330.853 48.056C330.277 48.312 329.669 48.408 329.029 48.344C328.453 48.28 327.909 48.152 327.397 47.96C326.117 47.512 324.709 46.968 323.173 46.328C321.701 45.624 320.165 44.92 318.565 44.216C316.965 43.512 315.365 42.776 313.765 42.008C312.165 41.24 310.661 40.472 309.253 39.704C307.909 41.048 306.693 42.296 305.605 43.448C304.517 44.536 303.461 45.592 302.437 46.616C301.413 47.64 300.357 48.632 299.269 49.592C298.181 50.552 296.965 51.512 295.621 52.472C294.917 52.984 294.277 53.368 293.701 53.624C293.125 53.816 292.389 53.848 291.493 53.72C289.637 53.528 287.941 52.824 286.405 51.608C284.933 50.328 284.069 48.76 283.813 46.904C283.621 45.304 284.005 43.96 284.965 42.872C287.077 40.632 289.317 38.232 291.685 35.672C294.117 33.048 296.773 30.296 299.653 27.416C299.525 25.56 299.429 23.64 299.365 21.656C299.301 19.608 299.237 17.592 299.173 15.608C296.805 15.736 294.501 15.832 292.261 15.896C290.021 15.896 287.941 15.896 286.021 15.896C284.549 15.896 283.397 15.448 282.565 14.552C281.733 13.592 281.285 11.896 281.221 9.464C281.157 7.288 281.477 5.592 282.181 4.376C282.885 3.096 284.069 2.392 285.733 2.264C292.645 1.88 300.069 1.56 308.005 1.304C316.005 0.983999 323.973 0.695999 331.909 0.439999C334.853 0.375996 336.421 2.39199 336.613 6.488C336.741 8.856 336.357 10.552 335.461 11.576C334.629 12.536 333.477 13.08 332.005 13.208C330.341 13.4 328.165 13.624 325.477 13.88C322.789 14.072 319.781 14.296 316.453 14.552V26.264ZM353.221 69.752C352.965 74.168 352.645 78.264 352.261 82.04C352.005 83.96 351.397 85.368 350.437 86.264C349.477 87.16 347.813 87.704 345.445 87.896C343.077 88.088 341.349 87.768 340.261 86.936C339.237 86.168 338.661 85.144 338.533 83.864C338.405 81.624 338.309 78.904 338.245 75.704C338.245 72.504 338.213 69.496 338.149 66.68C335.781 66.744 332.965 66.84 329.701 66.968C326.437 67.032 323.045 67.128 319.525 67.256C316.069 67.32 312.677 67.384 309.349 67.448C306.021 67.448 303.109 67.416 300.613 67.352C298.757 67.224 297.509 66.2 296.869 64.28C296.549 63.384 296.421 62.264 296.485 60.92C296.613 59.576 296.901 58.424 297.349 57.464C297.669 56.824 298.117 56.312 298.693 55.928C299.269 55.48 300.005 55.224 300.901 55.16C303.013 55.032 305.413 54.904 308.101 54.776C310.853 54.648 313.733 54.552 316.741 54.488C319.749 54.36 322.821 54.232 325.957 54.104C329.093 53.976 332.133 53.88 335.077 53.816C338.085 53.752 340.901 53.688 343.525 53.624C346.149 53.56 348.453 53.528 350.437 53.528C351.717 53.528 352.581 53.816 353.029 54.392C353.477 54.968 353.701 55.896 353.701 57.176C353.701 61.08 353.541 65.272 353.221 69.752ZM355.621 12.92C355.685 14.904 355.717 16.952 355.717 19.064C356.613 19.064 357.445 19.064 358.213 19.064C359.045 19.064 359.749 19.096 360.325 19.16C362.181 19.352 363.461 19.992 364.165 21.08C364.933 22.104 365.317 23.608 365.317 25.592C365.317 27.96 364.869 29.624 363.973 30.584C363.141 31.48 361.957 32.056 360.421 32.312C359.845 32.44 359.109 32.536 358.213 32.6C357.381 32.664 356.485 32.696 355.525 32.696C355.461 35.064 355.397 37.336 355.333 39.512C355.269 41.624 355.173 43.608 355.045 45.464C354.917 46.872 354.533 47.992 353.893 48.824C353.317 49.592 352.389 50.232 351.109 50.744C350.725 50.872 350.181 51 349.477 51.128C348.773 51.192 348.005 51.256 347.173 51.32C346.341 51.32 345.541 51.288 344.773 51.224C344.005 51.096 343.397 50.936 342.949 50.744C342.117 50.36 341.381 49.784 340.741 49.016C340.165 48.184 339.877 47.128 339.877 45.848C339.813 43.16 339.749 40.248 339.685 37.112C339.685 33.912 339.653 30.616 339.589 27.224C339.525 23.832 339.493 20.44 339.493 17.048C339.493 13.656 339.525 10.36 339.589 7.16C339.589 4.728 340.581 3.128 342.565 2.36C344.101 1.784 345.861 1.528 347.845 1.592C349.829 1.592 351.557 1.88 353.029 2.456C354.053 2.84 354.725 3.384 355.045 4.088C355.429 4.792 355.621 5.784 355.621 7.064C355.621 8.92 355.621 10.872 355.621 12.92ZM384.41 48.92C384.282 50.968 383.61 52.568 382.394 53.72C381.178 54.872 379.226 55.384 376.538 55.256C374.042 55.128 372.442 54.488 371.738 53.336C371.098 52.12 370.746 50.392 370.682 48.152C370.554 44.12 370.458 40.536 370.394 37.4C370.33 34.264 370.266 31.224 370.202 28.28C370.202 25.272 370.17 22.2 370.106 19.064C370.106 15.928 370.106 12.344 370.106 8.31199C370.106 7.41599 370.202 6.616 370.394 5.912C370.586 5.144 370.97 4.504 371.546 3.992C372.122 3.48 372.922 3.096 373.946 2.84C374.97 2.52 376.314 2.36 377.978 2.36C379.77 2.36 381.178 2.52 382.202 2.84C383.226 3.16 383.994 3.576 384.506 4.088C385.082 4.6 385.434 5.24 385.562 6.008C385.754 6.712 385.85 7.448 385.85 8.216C385.786 13.016 385.69 17.24 385.562 20.888C385.498 24.472 385.402 27.8 385.274 30.872C385.21 33.944 385.082 36.92 384.89 39.8C384.762 42.616 384.602 45.656 384.41 48.92ZM387.482 70.52C387.482 73.144 386.586 75.32 384.794 77.048C383.066 78.84 380.89 79.736 378.266 79.736C375.642 79.736 373.434 78.84 371.642 77.048C369.914 75.32 369.05 73.144 369.05 70.52C369.05 67.832 369.914 65.624 371.642 63.896C373.37 62.168 375.578 61.304 378.266 61.304C380.89 61.304 383.066 62.2 384.794 63.992C386.586 65.72 387.482 67.896 387.482 70.52Z" fill="#FF9D00"/>
</svg>
