<svg width="230" height="131" viewBox="0 0 230 131" fill="none" xmlns="http://www.w3.org/2000/svg">
<path d="M171.787 10.9595L147.06 21.7253C145.402 22.4613 144.1 23.8191 143.433 25.5061C142.767 27.1932 142.79 29.0744 143.498 30.7446L160.513 71.8815C160.852 72.7168 161.355 73.4761 161.991 74.1148C162.627 74.7535 163.385 75.2588 164.219 75.6011C165.053 75.9435 165.947 76.116 166.849 76.1085C167.75 76.101 168.642 75.9138 169.47 75.5577L194.169 64.8022C195.833 64.0701 197.142 62.7121 197.813 61.0223C198.483 59.3324 198.461 57.4465 197.752 55.7725L180.737 14.6391C180.398 13.8043 179.896 13.0455 179.26 12.407C178.624 11.7685 177.868 11.2632 177.034 10.9206C176.201 10.578 175.308 10.4049 174.407 10.4116C173.506 10.4183 172.615 10.6045 171.787 10.9595ZM191.333 10.375C193.078 10.3744 194.759 11.0335 196.039 12.22C197.318 13.4065 198.102 15.0328 198.233 16.7729L198.25 17.2917V29.3958C198.249 30.2773 197.912 31.1251 197.306 31.7661C196.701 32.407 195.874 32.7927 194.994 32.8444C194.114 32.896 193.248 32.6098 192.572 32.044C191.896 31.4783 191.462 30.6757 191.358 29.8005L191.333 29.3958V17.2917H187.875C186.994 17.2907 186.146 16.9532 185.505 16.3481C184.864 15.743 184.478 14.916 184.427 14.036C184.375 13.1561 184.661 12.2896 185.227 11.6137C185.793 10.9377 186.595 10.5033 187.47 10.3992L187.875 10.375H191.333ZM201.985 19.4012C202.343 18.5579 203.022 17.8912 203.871 17.5475C204.721 17.2038 205.672 17.2113 206.516 17.5683C207.404 17.9418 208.262 18.2946 209.175 18.6543C210.779 19.3352 212.067 20.5965 212.781 22.1859C213.495 23.7754 213.583 25.5759 213.028 27.2275L212.834 27.7324L204.887 46.3175C204.537 47.1241 203.893 47.7673 203.086 48.1162C202.279 48.4651 201.37 48.4936 200.542 48.1958C199.715 47.898 199.032 47.2964 198.633 46.5132C198.233 45.73 198.147 44.8241 198.392 43.9796L198.53 43.5992L206.471 25.0245L205.205 24.5127L203.815 23.9351C203.396 23.7578 203.017 23.4997 202.698 23.1756C202.379 22.8515 202.128 22.4678 201.958 22.0464C201.787 21.625 201.702 21.1742 201.706 20.7197C201.71 20.2652 201.804 19.816 201.982 19.3978L201.985 19.4012Z" fill="black"/>
<g clip-path="url(#clip0_435_992)">
<path fill-rule="evenodd" clip-rule="evenodd" d="M39.4566 13.8586C42.8675 12.0492 46.8908 11.8259 50.9908 13.2972C54.7281 14.6384 58.0853 17.8364 59.52 22.2509C63.4171 19.7534 68.0268 19.4107 71.7962 20.7634C75.8866 22.2313 78.8457 24.9531 80.3366 28.5143C81.8099 32.0438 81.7234 36.1226 80.2739 40.1616C77.7783 47.116 72.1965 51.4299 66.1114 54.1569C60.0427 56.879 53.1879 58.1556 47.6184 58.9005C47.2105 58.955 46.7954 58.9103 46.4085 58.7701C46.0216 58.63 45.6741 58.3986 45.3957 58.0956C41.5799 53.9537 37.0916 48.6356 34.1303 42.6984C31.163 36.7373 29.6005 29.8814 32.1123 22.882C33.5583 18.8526 36.0785 15.6472 39.4566 13.8586ZM41.8535 18.3792C39.8166 19.4603 38.0344 21.528 36.9283 24.6103C35.0572 29.8245 36.0963 35.1698 38.712 40.4139C41.1263 45.2597 44.7727 49.7829 48.2615 53.6443C53.3659 52.9028 59.0675 51.7089 64.021 49.489C69.3911 47.078 73.6052 43.5961 75.4567 38.4365C76.5663 35.3446 76.5023 32.6144 75.6143 30.4837C74.7393 28.3975 72.9564 26.6196 70.0667 25.5827C66.9331 24.4581 62.6232 25.1875 59.7065 28.932C59.3756 29.3584 58.9184 29.6692 58.4001 29.82C57.8819 29.9707 57.3292 29.9538 56.8212 29.7715C56.3132 29.5892 55.8759 29.2509 55.5718 28.805C55.2677 28.3591 55.1124 27.8284 55.1281 27.2889C55.2587 22.5519 52.3597 19.2284 49.2614 18.1165C46.3621 17.0761 43.8588 17.3157 41.8535 18.3792Z" fill="black"/>
</g>
<g clip-path="url(#clip1_435_992)">
<path fill-rule="evenodd" clip-rule="evenodd" d="M16.9785 30.7832C12.7354 31.7841 9.48589 34.1594 7.61148 37.5351C5.75327 40.8755 5.38639 44.9366 6.36929 49.1033C8.07664 56.3412 13.1224 61.2389 18.8618 64.6201C24.5767 67.9861 31.2412 69.9995 36.6944 71.3944C37.093 71.4968 37.5104 71.5015 37.9112 71.4082C38.3121 71.3148 38.6845 71.1262 38.9968 70.8583C43.2613 67.1991 48.3138 62.3937 51.9198 56.8045C55.5399 51.2015 57.8668 44.5436 56.1712 37.3555C55.1844 33.1722 53.0354 29.7081 49.8769 27.5511C46.6897 25.3763 42.722 24.7071 38.4921 25.7048C34.9197 26.5475 32.2773 28.5693 30.6185 31.5963C30.0543 32.6427 29.6136 33.7511 29.3052 34.8992C28.5162 34.01 27.6266 33.2154 26.6543 32.5314C23.8176 30.5649 20.551 29.9405 16.9785 30.7832Z" fill="black"/>
</g>
<path d="M44.132 109.08C43.508 109.08 42.896 109.092 42.296 109.116C41.72 109.116 41.144 109.104 40.568 109.08C39.944 109.08 39.308 109.092 38.66 109.116C38.036 109.116 37.412 109.068 36.788 108.972C35.78 108.852 35.012 108.492 34.484 107.892C33.956 107.268 33.74 106.452 33.836 105.444C33.884 104.628 34.004 103.824 34.196 103.032C34.388 102.216 34.616 101.424 34.88 100.656C35.216 99.648 35.588 98.664 35.996 97.704C36.404 96.72 36.824 95.736 37.256 94.752C37.616 93.936 38.12 93.18 38.768 92.484C39.176 92.052 39.62 91.8 40.1 91.728C40.604 91.656 41.06 91.752 41.468 92.016C41.876 92.28 42.116 92.64 42.188 93.096C42.284 93.552 42.212 94.08 41.972 94.68C41.492 95.832 41 96.96 40.496 98.064C40.016 99.168 39.548 100.296 39.092 101.448C38.9 101.952 38.696 102.468 38.48 102.996C38.264 103.524 38.216 104.1 38.336 104.724H44.276C44.3 104.292 44.324 103.896 44.348 103.536C44.372 103.176 44.396 102.828 44.42 102.492C44.444 101.916 44.444 101.352 44.42 100.8C44.42 100.224 44.444 99.66 44.492 99.108C44.564 98.532 44.78 98.076 45.14 97.74C45.524 97.404 45.956 97.224 46.436 97.2C46.916 97.2 47.336 97.368 47.696 97.704C48.056 98.016 48.284 98.484 48.38 99.108C48.452 99.588 48.5 100.08 48.524 100.584C48.548 101.064 48.572 101.556 48.596 102.06C48.62 102.42 48.62 102.792 48.596 103.176C48.596 103.536 48.596 103.92 48.596 104.328C48.932 104.4 49.22 104.46 49.46 104.508C49.724 104.556 49.988 104.616 50.252 104.688C51.356 105 51.932 105.624 51.98 106.56C52.028 107.52 51.5 108.192 50.396 108.576C49.916 108.744 49.544 108.888 49.28 109.008C49.04 109.104 48.86 109.236 48.74 109.404C48.644 109.548 48.584 109.752 48.56 110.016C48.536 110.28 48.524 110.64 48.524 111.096C48.5 111.648 48.488 112.188 48.488 112.716C48.488 113.22 48.464 113.736 48.416 114.264C48.344 114.864 48.128 115.332 47.768 115.668C47.408 115.98 46.976 116.148 46.472 116.172C45.968 116.172 45.536 116.016 45.176 115.704C44.84 115.368 44.612 114.9 44.492 114.3C44.444 113.916 44.42 113.532 44.42 113.148C44.42 112.74 44.408 112.332 44.384 111.924C44.36 111.564 44.348 111.204 44.348 110.844C44.348 110.484 44.348 110.124 44.348 109.764C44.348 109.692 44.324 109.62 44.276 109.548C44.252 109.452 44.204 109.296 44.132 109.08Z" fill="black"/>
<path d="M138.132 110.08C137.508 110.08 136.896 110.092 136.296 110.116C135.72 110.116 135.144 110.104 134.568 110.08C133.944 110.08 133.308 110.092 132.66 110.116C132.036 110.116 131.412 110.068 130.788 109.972C129.78 109.852 129.012 109.492 128.484 108.892C127.956 108.268 127.74 107.452 127.836 106.444C127.884 105.628 128.004 104.824 128.196 104.032C128.388 103.216 128.616 102.424 128.88 101.656C129.216 100.648 129.588 99.664 129.996 98.704C130.404 97.72 130.824 96.736 131.256 95.752C131.616 94.936 132.12 94.18 132.768 93.484C133.176 93.052 133.62 92.8 134.1 92.728C134.604 92.656 135.06 92.752 135.468 93.016C135.876 93.28 136.116 93.64 136.188 94.096C136.284 94.552 136.212 95.08 135.972 95.68C135.492 96.832 135 97.96 134.496 99.064C134.016 100.168 133.548 101.296 133.092 102.448C132.9 102.952 132.696 103.468 132.48 103.996C132.264 104.524 132.216 105.1 132.336 105.724H138.276C138.3 105.292 138.324 104.896 138.348 104.536C138.372 104.176 138.396 103.828 138.42 103.492C138.444 102.916 138.444 102.352 138.42 101.8C138.42 101.224 138.444 100.66 138.492 100.108C138.564 99.532 138.78 99.076 139.14 98.74C139.524 98.404 139.956 98.224 140.436 98.2C140.916 98.2 141.336 98.368 141.696 98.704C142.056 99.016 142.284 99.484 142.38 100.108C142.452 100.588 142.5 101.08 142.524 101.584C142.548 102.064 142.572 102.556 142.596 103.06C142.62 103.42 142.62 103.792 142.596 104.176C142.596 104.536 142.596 104.92 142.596 105.328C142.932 105.4 143.22 105.46 143.46 105.508C143.724 105.556 143.988 105.616 144.252 105.688C145.356 106 145.932 106.624 145.98 107.56C146.028 108.52 145.5 109.192 144.396 109.576C143.916 109.744 143.544 109.888 143.28 110.008C143.04 110.104 142.86 110.236 142.74 110.404C142.644 110.548 142.584 110.752 142.56 111.016C142.536 111.28 142.524 111.64 142.524 112.096C142.5 112.648 142.488 113.188 142.488 113.716C142.488 114.22 142.464 114.736 142.416 115.264C142.344 115.864 142.128 116.332 141.768 116.668C141.408 116.98 140.976 117.148 140.472 117.172C139.968 117.172 139.536 117.016 139.176 116.704C138.84 116.368 138.612 115.9 138.492 115.3C138.444 114.916 138.42 114.532 138.42 114.148C138.42 113.74 138.408 113.332 138.384 112.924C138.36 112.564 138.348 112.204 138.348 111.844C138.348 111.484 138.348 111.124 138.348 110.764C138.348 110.692 138.324 110.62 138.276 110.548C138.252 110.452 138.204 110.296 138.132 110.08ZM174.423 97.732C174.879 97.9 175.395 98.068 175.971 98.236C176.571 98.38 177.123 98.62 177.627 98.956C178.707 99.676 179.775 100.432 180.831 101.224C181.887 102.016 182.919 102.844 183.927 103.708C184.671 104.356 185.283 104.836 185.763 105.148C186.243 105.46 186.651 105.58 186.987 105.508C187.347 105.436 187.671 105.172 187.959 104.716C188.247 104.236 188.571 103.54 188.931 102.628C189.123 102.148 189.303 101.68 189.471 101.224C189.663 100.768 189.867 100.324 190.083 99.892C190.419 99.22 190.839 98.632 191.343 98.128C191.727 97.768 192.147 97.576 192.603 97.552C193.083 97.528 193.515 97.648 193.899 97.912C194.691 98.56 194.907 99.328 194.547 100.216C194.067 101.416 193.575 102.616 193.071 103.816C192.591 104.992 192.063 106.156 191.487 107.308C190.911 108.46 190.131 109.228 189.147 109.612C188.187 109.972 187.059 110.008 185.763 109.72C184.923 109.528 184.155 109.216 183.459 108.784C182.787 108.328 182.139 107.824 181.515 107.272C180.723 106.576 179.919 105.892 179.103 105.22C178.287 104.524 177.459 103.876 176.619 103.276C175.323 102.364 174.039 102.028 172.767 102.268C171.519 102.508 170.463 103.288 169.599 104.608C169.239 105.184 168.939 105.808 168.699 106.48C168.459 107.128 168.207 107.764 167.943 108.388C167.895 108.508 167.871 108.64 167.871 108.784C167.871 108.904 167.859 109.036 167.835 109.18C167.523 110.596 166.875 111.304 165.891 111.304C165.363 111.304 164.895 111.1 164.487 110.692C164.103 110.284 163.851 109.744 163.731 109.072C163.683 108.904 163.659 108.748 163.659 108.604C163.659 108.436 163.659 108.268 163.659 108.1C163.731 107.044 163.995 106 164.451 104.968C164.907 103.912 165.483 102.94 166.179 102.052C166.899 101.14 167.715 100.348 168.627 99.676C169.563 99.004 170.535 98.524 171.543 98.236C171.951 98.116 172.383 98.032 172.839 97.984C173.295 97.936 173.823 97.852 174.423 97.732ZM217.355 102.484C218.147 102.532 218.903 102.556 219.623 102.556C220.367 102.556 221.087 102.616 221.783 102.736C223.007 102.928 224.087 103.324 225.023 103.924C225.983 104.5 226.667 105.412 227.075 106.66C227.483 107.884 227.519 109.06 227.183 110.188C226.847 111.292 226.271 112.324 225.455 113.284C224.807 114.028 224.063 114.604 223.223 115.012C222.383 115.396 221.507 115.624 220.595 115.696C219.707 115.744 218.807 115.624 217.895 115.336C217.007 115.048 216.203 114.58 215.483 113.932C214.571 113.116 213.851 112.204 213.323 111.196C212.795 110.188 212.495 109.084 212.423 107.884C212.255 105.652 212.459 103.54 213.035 101.548C213.611 99.532 214.763 97.732 216.491 96.148C216.851 95.812 217.247 95.524 217.679 95.284C218.111 95.044 218.531 94.792 218.939 94.528C219.131 94.408 219.347 94.336 219.587 94.312C219.827 94.264 220.055 94.228 220.271 94.204C220.895 94.156 221.411 94.252 221.819 94.492C222.251 94.732 222.527 95.092 222.647 95.572C222.767 96.004 222.719 96.412 222.503 96.796C222.311 97.18 221.939 97.504 221.387 97.768C220.451 98.176 219.671 98.728 219.047 99.424C218.447 100.12 217.931 100.912 217.499 101.8C217.451 101.896 217.427 102.004 217.427 102.124C217.427 102.22 217.403 102.34 217.355 102.484ZM220.055 111.412C220.847 111.412 221.519 111.172 222.071 110.692C222.647 110.188 222.947 109.552 222.971 108.784C222.971 108.568 222.911 108.316 222.791 108.028C222.695 107.716 222.563 107.536 222.395 107.488C221.891 107.296 221.363 107.128 220.811 106.984C220.283 106.84 219.755 106.78 219.227 106.804C218.939 106.804 218.651 106.9 218.363 107.092C218.099 107.26 217.871 107.476 217.679 107.74C217.511 107.98 217.379 108.244 217.283 108.532C217.187 108.82 217.175 109.072 217.247 109.288C217.391 109.84 217.751 110.332 218.327 110.764C218.903 111.172 219.479 111.388 220.055 111.412Z" fill="black"/>
<defs>
<clipPath id="clip0_435_992">
<rect width="54.5789" height="54.5789" fill="white" transform="translate(37.4351 3) rotate(19.7409)"/>
</clipPath>
<clipPath id="clip1_435_992">
<rect width="54.58" height="54.58" fill="white" transform="translate(0 29.531) rotate(-13.2729)"/>
</clipPath>
</defs>
</svg>
