<svg width="164" height="48" viewBox="0 0 164 48" fill="none" xmlns="http://www.w3.org/2000/svg">
<path d="M28 4H12C10.9391 4 9.92172 4.42143 9.17157 5.17157C8.42143 5.92172 8 6.93913 8 8V40C8 41.0609 8.42143 42.0783 9.17157 42.8284C9.92172 43.5786 10.9391 44 12 44H36C37.0609 44 38.0783 43.5786 38.8284 42.8284C39.5786 42.0783 40 41.0609 40 40V16M28 4L40 16M28 4V16H40M32 26H16M32 34H16M20 18H16" stroke="#1E1E1E" stroke-width="4" stroke-linecap="round" stroke-linejoin="round"/>
<path d="M126 42H154C156.209 42 158 40.2091 158 38V10C158 7.79086 156.209 6 154 6H126C123.791 6 122 7.79086 122 10V38C122 40.2091 123.791 42 126 42ZM126 42L148 20L158 30M136 17C136 18.6569 134.657 20 133 20C131.343 20 130 18.6569 130 17C130 15.3431 131.343 14 133 14C134.657 14 136 15.3431 136 17Z" stroke="#1E1E1E" stroke-width="4" stroke-linecap="round" stroke-linejoin="round"/>
<path d="M68 24H96M96 24L82 10M96 24L82 38" stroke="#1E1E1E" stroke-width="4" stroke-linecap="round" stroke-linejoin="round"/>
</svg>
